<?xml version="1.0" encoding="UTF-8" standalone="no"?>
<!DOCTYPE svg PUBLIC "-//W3C//DTD SVG 1.1//EN" "http://www.w3.org/Graphics/SVG/1.1/DTD/svg11.dtd">
<svg width="100%" height="100%" viewBox="0 0 941 204" version="1.1" xmlns="http://www.w3.org/2000/svg" xmlns:xlink="http://www.w3.org/1999/xlink" xml:space="preserve" xmlns:serif="http://www.serif.com/" style="fill-rule:evenodd;clip-rule:evenodd;stroke-linejoin:round;stroke-miterlimit:2;">
    <g transform="matrix(1,0,0,1,4.93127,8.43424)">
        <g transform="matrix(6.16336,0,0,6.16336,-1542.68,-2026.72)">
            <g transform="matrix(12,0,0,12,262.082,343.486)">
                <path d="M0.049,-0.75L0.049,-0L0.264,-0L0.264,-0.283L0.364,-0.283L0.364,-0L0.578,-0L0.578,-0.75L0.364,-0.75L0.364,-0.468L0.264,-0.468L0.264,-0.75L0.049,-0.75Z" style="fill:white;fill-rule:nonzero;"/>
            </g>
            <g transform="matrix(12,0,0,12,269.606,343.486)">
                <path d="M0.303,-0.763C0.148,-0.763 0.039,-0.667 0.039,-0.47L0.039,-0.28C0.039,-0.086 0.141,0.013 0.303,0.013C0.458,0.013 0.567,-0.083 0.567,-0.28L0.567,-0.47C0.567,-0.664 0.465,-0.763 0.303,-0.763ZM0.303,-0.577C0.337,-0.577 0.352,-0.547 0.352,-0.492L0.352,-0.258C0.352,-0.203 0.339,-0.173 0.303,-0.173C0.268,-0.173 0.254,-0.203 0.254,-0.258L0.254,-0.492C0.254,-0.547 0.267,-0.577 0.303,-0.577Z" style="fill:white;fill-rule:nonzero;"/>
            </g>
            <g transform="matrix(12,0,0,12,276.878,343.486)">
                <path d="M0.049,-0.75L0.049,-0L0.308,-0C0.475,-0 0.565,-0.095 0.565,-0.21L0.565,-0.245C0.565,-0.31 0.538,-0.364 0.487,-0.393C0.527,-0.422 0.549,-0.469 0.549,-0.524L0.549,-0.546C0.549,-0.663 0.474,-0.75 0.312,-0.75L0.049,-0.75ZM0.258,-0.3L0.302,-0.3C0.344,-0.3 0.362,-0.281 0.362,-0.245L0.362,-0.231C0.362,-0.196 0.344,-0.176 0.302,-0.176L0.258,-0.176L0.258,-0.3ZM0.258,-0.573L0.294,-0.573C0.331,-0.573 0.35,-0.556 0.35,-0.523L0.35,-0.508C0.35,-0.478 0.331,-0.458 0.294,-0.458L0.258,-0.458L0.258,-0.573Z" style="fill:white;fill-rule:nonzero;"/>
            </g>
            <g transform="matrix(12,0,0,12,284.006,343.486)">
                <path d="M0.049,-0.75L0.049,-0L0.308,-0C0.475,-0 0.565,-0.095 0.565,-0.21L0.565,-0.245C0.565,-0.31 0.538,-0.364 0.487,-0.393C0.527,-0.422 0.549,-0.469 0.549,-0.524L0.549,-0.546C0.549,-0.663 0.474,-0.75 0.312,-0.75L0.049,-0.75ZM0.258,-0.3L0.302,-0.3C0.344,-0.3 0.362,-0.281 0.362,-0.245L0.362,-0.231C0.362,-0.196 0.344,-0.176 0.302,-0.176L0.258,-0.176L0.258,-0.3ZM0.258,-0.573L0.294,-0.573C0.331,-0.573 0.35,-0.556 0.35,-0.523L0.35,-0.508C0.35,-0.478 0.331,-0.458 0.294,-0.458L0.258,-0.458L0.258,-0.573Z" style="fill:white;fill-rule:nonzero;"/>
            </g>
            <g transform="matrix(12,0,0,12,290.654,343.486)">
                <path d="M0.014,-0.75L0.19,-0.205L0.19,-0L0.405,-0L0.405,-0.205L0.581,-0.75L0.354,-0.75L0.304,-0.425L0.298,-0.425L0.248,-0.75L0.014,-0.75Z" style="fill:white;fill-rule:nonzero;"/>
            </g>
            <g transform="matrix(12,0,0,12,297.794,343.486)">
                <path d="M0.049,-0.75L0.049,-0L0.473,-0L0.473,-0.186L0.264,-0.186L0.264,-0.75L0.049,-0.75Z" style="fill:white;fill-rule:nonzero;"/>
            </g>
            <g transform="matrix(12,0,0,12,303.638,343.486)">
                <path d="M0.303,-0.763C0.148,-0.763 0.039,-0.667 0.039,-0.47L0.039,-0.28C0.039,-0.086 0.141,0.013 0.303,0.013C0.458,0.013 0.567,-0.083 0.567,-0.28L0.567,-0.47C0.567,-0.664 0.465,-0.763 0.303,-0.763ZM0.303,-0.577C0.337,-0.577 0.352,-0.547 0.352,-0.492L0.352,-0.258C0.352,-0.203 0.339,-0.173 0.303,-0.173C0.268,-0.173 0.254,-0.203 0.254,-0.258L0.254,-0.492C0.254,-0.547 0.267,-0.577 0.303,-0.577Z" style="fill:white;fill-rule:nonzero;"/>
            </g>
            <g transform="matrix(12,0,0,12,310.91,343.486)">
                <path d="M0.525,-0.518L0.525,-0.551C0.525,-0.685 0.444,-0.763 0.286,-0.763C0.133,-0.763 0.046,-0.669 0.046,-0.535L0.046,-0.51C0.046,-0.387 0.121,-0.297 0.282,-0.285C0.321,-0.282 0.339,-0.261 0.339,-0.227L0.339,-0.201C0.339,-0.174 0.324,-0.156 0.295,-0.156C0.268,-0.156 0.252,-0.174 0.252,-0.211L0.252,-0.245L0.039,-0.245L0.039,-0.212C0.039,-0.076 0.123,0.013 0.295,0.013C0.465,0.013 0.543,-0.091 0.543,-0.211L0.543,-0.236C0.543,-0.372 0.469,-0.458 0.303,-0.471C0.265,-0.474 0.248,-0.491 0.248,-0.527L0.248,-0.553C0.248,-0.579 0.261,-0.594 0.286,-0.594C0.313,-0.594 0.325,-0.578 0.325,-0.552L0.325,-0.518L0.525,-0.518Z" style="fill:white;fill-rule:nonzero;"/>
            </g>
            <g transform="matrix(12,0,0,12,320.414,343.486)">
                <path d="M0.049,-0.75L0.049,-0L0.244,-0L0.244,-0.471L0.25,-0.471L0.319,-0L0.475,-0L0.544,-0.471L0.55,-0.471L0.55,-0L0.752,-0L0.752,-0.75L0.466,-0.75L0.404,-0.29L0.398,-0.29L0.336,-0.75L0.049,-0.75Z" style="fill:white;fill-rule:nonzero;"/>
            </g>
            <g transform="matrix(12,0,0,12,330.026,343.486)">
                <path d="M0.19,-0.752L0.014,-0L0.229,-0L0.245,-0.113L0.368,-0.113L0.384,-0L0.606,-0L0.43,-0.752L0.19,-0.752ZM0.304,-0.538L0.31,-0.538L0.345,-0.281L0.268,-0.281L0.304,-0.538Z" style="fill:white;fill-rule:nonzero;"/>
            </g>
            <g transform="matrix(12,0,0,12,336.866,343.486)">
                <path d="M0.009,-0.75L0.009,-0.567L0.149,-0.567L0.149,-0L0.364,-0L0.364,-0.567L0.504,-0.567L0.504,-0.75L0.009,-0.75Z" style="fill:white;fill-rule:nonzero;"/>
            </g>
            <g transform="matrix(12,0,0,12,343.022,343.486)">
                <path d="M0.049,-0.75L0.049,-0L0.264,-0L0.264,-0.283L0.364,-0.283L0.364,-0L0.578,-0L0.578,-0.75L0.364,-0.75L0.364,-0.468L0.264,-0.468L0.264,-0.75L0.049,-0.75Z" style="fill:white;fill-rule:nonzero;"/>
            </g>
            <g transform="matrix(12,0,0,12,350.546,343.486)">
                <path d="M0.049,-0.75L0.049,-0L0.48,-0L0.48,-0.177L0.264,-0.177L0.264,-0.296L0.446,-0.296L0.446,-0.458L0.264,-0.458L0.264,-0.573L0.47,-0.573L0.47,-0.75L0.049,-0.75Z" style="fill:white;fill-rule:nonzero;"/>
            </g>
            <g transform="matrix(12,0,0,12,356.654,343.486)">
                <path d="M0.049,-0.75L0.049,-0L0.264,-0L0.264,-0.259L0.436,-0.259L0.436,-0.439L0.264,-0.439L0.264,-0.568L0.465,-0.568L0.465,-0.75L0.049,-0.75Z" style="fill:white;fill-rule:nonzero;"/>
            </g>
            <g transform="matrix(12,0,0,12,362.102,343.486)">
                <path d="M0.19,-0.752L0.014,-0L0.229,-0L0.245,-0.113L0.368,-0.113L0.384,-0L0.606,-0L0.43,-0.752L0.19,-0.752ZM0.304,-0.538L0.31,-0.538L0.345,-0.281L0.268,-0.281L0.304,-0.538Z" style="fill:white;fill-rule:nonzero;"/>
            </g>
            <g transform="matrix(12,0,0,12,369.182,343.486)">
                <path d="M0.555,-0.443L0.555,-0.477C0.555,-0.666 0.466,-0.763 0.304,-0.763C0.147,-0.763 0.039,-0.665 0.039,-0.457L0.039,-0.293C0.039,-0.087 0.138,0.013 0.302,0.013C0.464,0.013 0.557,-0.086 0.557,-0.273L0.557,-0.317L0.352,-0.317L0.352,-0.258C0.352,-0.203 0.341,-0.173 0.303,-0.173C0.267,-0.173 0.254,-0.203 0.254,-0.258L0.254,-0.492C0.254,-0.547 0.265,-0.577 0.303,-0.577C0.339,-0.577 0.352,-0.547 0.352,-0.492L0.352,-0.443L0.555,-0.443Z" style="fill:white;fill-rule:nonzero;"/>
            </g>
            <g transform="matrix(12,0,0,12,376.334,343.486)">
                <path d="M0.009,-0.75L0.009,-0.567L0.149,-0.567L0.149,-0L0.364,-0L0.364,-0.567L0.504,-0.567L0.504,-0.75L0.009,-0.75Z" style="fill:white;fill-rule:nonzero;"/>
            </g>
            <g transform="matrix(12,0,0,12,382.37,343.486)">
                <path d="M0.525,-0.518L0.525,-0.551C0.525,-0.685 0.444,-0.763 0.286,-0.763C0.133,-0.763 0.046,-0.669 0.046,-0.535L0.046,-0.51C0.046,-0.387 0.121,-0.297 0.282,-0.285C0.321,-0.282 0.339,-0.261 0.339,-0.227L0.339,-0.201C0.339,-0.174 0.324,-0.156 0.295,-0.156C0.268,-0.156 0.252,-0.174 0.252,-0.211L0.252,-0.245L0.039,-0.245L0.039,-0.212C0.039,-0.076 0.123,0.013 0.295,0.013C0.465,0.013 0.543,-0.091 0.543,-0.211L0.543,-0.236C0.543,-0.372 0.469,-0.458 0.303,-0.471C0.265,-0.474 0.248,-0.491 0.248,-0.527L0.248,-0.553C0.248,-0.579 0.261,-0.594 0.286,-0.594C0.313,-0.594 0.325,-0.578 0.325,-0.552L0.325,-0.518L0.525,-0.518Z" style="fill:white;fill-rule:nonzero;"/>
            </g>
        </g>
        <g transform="matrix(3.50806,0,0,3.50806,-449.083,-594.555)">
            <g transform="matrix(12,0,0,12,138.141,212.75)">
                <path d="M0.044,-0.75L0.044,-0.256C0.044,-0.082 0.133,0.013 0.3,0.013C0.467,0.013 0.556,-0.086 0.556,-0.256L0.556,-0.75L0.344,-0.75L0.344,-0.229C0.344,-0.186 0.327,-0.168 0.3,-0.168C0.273,-0.168 0.256,-0.186 0.256,-0.229L0.256,-0.75L0.044,-0.75ZM0.181,-1.039C0.122,-1.039 0.08,-0.995 0.08,-0.935C0.08,-0.876 0.121,-0.831 0.181,-0.831C0.242,-0.831 0.284,-0.876 0.284,-0.935C0.284,-0.995 0.242,-1.039 0.181,-1.039L0.181,-1.039ZM0.418,-1.039C0.359,-1.039 0.317,-0.995 0.317,-0.935C0.317,-0.876 0.358,-0.831 0.418,-0.831C0.479,-0.831 0.521,-0.876 0.521,-0.935C0.521,-0.995 0.479,-1.039 0.418,-1.039Z" style="fill:white;fill-rule:nonzero;"/>
            </g>
            <g transform="matrix(12,0,0,12,145.341,212.75)">
                <path d="M0.043,-0.75L0.043,-0L0.209,-0L0.209,-0.067C0.237,-0.011 0.278,0.01 0.334,0.01C0.443,0.01 0.502,-0.07 0.502,-0.204L0.502,-0.296C0.502,-0.444 0.436,-0.51 0.334,-0.51C0.295,-0.51 0.26,-0.491 0.237,-0.456L0.237,-0.75L0.043,-0.75ZM0.233,-0.293C0.233,-0.322 0.247,-0.343 0.272,-0.343C0.297,-0.343 0.311,-0.324 0.311,-0.293L0.311,-0.207C0.311,-0.177 0.296,-0.157 0.272,-0.157C0.248,-0.157 0.233,-0.176 0.233,-0.207L0.233,-0.293Z" style="fill:white;fill-rule:nonzero;"/>
            </g>
            <g transform="matrix(12,0,0,12,151.761,212.75)">
                <path d="M0.479,-0.204L0.479,-0.275C0.479,-0.408 0.413,-0.51 0.26,-0.51C0.117,-0.51 0.033,-0.414 0.033,-0.262L0.033,-0.238C0.033,-0.082 0.104,0.01 0.258,0.01C0.382,0.01 0.465,-0.055 0.479,-0.173L0.295,-0.173C0.294,-0.151 0.28,-0.138 0.257,-0.138C0.236,-0.138 0.222,-0.15 0.222,-0.18L0.222,-0.204L0.479,-0.204ZM0.222,-0.319C0.222,-0.345 0.234,-0.362 0.257,-0.362C0.281,-0.362 0.292,-0.345 0.292,-0.319L0.292,-0.303L0.222,-0.303L0.222,-0.319Z" style="fill:white;fill-rule:nonzero;"/>
            </g>
            <g transform="matrix(12,0,0,12,157.905,212.75)">
                <path d="M0.043,-0.5L0.043,-0L0.238,-0L0.238,-0.257C0.238,-0.303 0.267,-0.333 0.312,-0.333L0.349,-0.333L0.349,-0.509L0.325,-0.509C0.272,-0.509 0.229,-0.476 0.208,-0.415L0.208,-0.5L0.043,-0.5Z" style="fill:white;fill-rule:nonzero;"/>
            </g>
            <g transform="matrix(12,0,0,12,162.309,212.75)">
                <path d="M0.461,-0.34L0.461,-0.35C0.461,-0.443 0.383,-0.51 0.25,-0.51C0.115,-0.51 0.036,-0.447 0.036,-0.342C0.036,-0.245 0.094,-0.19 0.244,-0.185C0.273,-0.184 0.284,-0.172 0.284,-0.152C0.284,-0.132 0.272,-0.121 0.251,-0.121C0.23,-0.121 0.217,-0.131 0.217,-0.15L0.217,-0.16L0.028,-0.16L0.028,-0.15C0.028,-0.054 0.101,0.01 0.249,0.01C0.389,0.01 0.47,-0.051 0.47,-0.16C0.47,-0.261 0.412,-0.31 0.255,-0.318C0.231,-0.319 0.217,-0.328 0.217,-0.349C0.217,-0.367 0.229,-0.378 0.246,-0.378C0.266,-0.378 0.277,-0.367 0.277,-0.35L0.277,-0.34L0.461,-0.34Z" style="fill:white;fill-rule:nonzero;"/>
            </g>
            <g transform="matrix(12,0,0,12,168.285,212.75)">
                <path d="M0.043,-0.5L0.043,-0L0.233,-0L0.233,-0.5L0.043,-0.5ZM0.138,-0.774C0.074,-0.774 0.031,-0.734 0.031,-0.672C0.031,-0.61 0.074,-0.57 0.138,-0.57C0.203,-0.57 0.245,-0.61 0.245,-0.672C0.245,-0.734 0.203,-0.774 0.138,-0.774Z" style="fill:white;fill-rule:nonzero;"/>
            </g>
            <g transform="matrix(12,0,0,12,171.597,212.75)">
                <path d="M0.473,-0.279L0.473,-0.3C0.473,-0.418 0.404,-0.51 0.259,-0.51C0.112,-0.51 0.033,-0.405 0.033,-0.262L0.033,-0.238C0.033,-0.081 0.111,0.01 0.252,0.01C0.403,0.01 0.473,-0.087 0.473,-0.2L0.473,-0.221L0.289,-0.221L0.289,-0.2C0.289,-0.172 0.278,-0.157 0.256,-0.157C0.233,-0.157 0.223,-0.171 0.223,-0.21L0.223,-0.29C0.223,-0.328 0.234,-0.343 0.256,-0.343C0.278,-0.343 0.289,-0.328 0.289,-0.3L0.289,-0.279L0.473,-0.279Z" style="fill:white;fill-rule:nonzero;"/>
            </g>
            <g transform="matrix(12,0,0,12,177.669,212.75)">
                <path d="M0.043,-0.75L0.043,-0L0.237,-0L0.237,-0.293C0.237,-0.318 0.252,-0.335 0.277,-0.335C0.305,-0.335 0.317,-0.318 0.317,-0.293L0.317,-0L0.511,-0L0.511,-0.311C0.511,-0.44 0.461,-0.51 0.354,-0.51C0.304,-0.51 0.265,-0.487 0.237,-0.447L0.237,-0.75L0.043,-0.75Z" style="fill:white;fill-rule:nonzero;"/>
            </g>
            <g transform="matrix(12,0,0,12,184.161,212.75)">
                <path d="M0.018,-0.5L0.018,-0.346L0.077,-0.346L0.077,-0.188C0.077,-0.063 0.13,0.01 0.267,0.01C0.296,0.01 0.325,0.006 0.348,-0L0.348,-0.16C0.339,-0.159 0.33,-0.158 0.32,-0.158C0.287,-0.158 0.271,-0.173 0.271,-0.211L0.271,-0.346L0.341,-0.346L0.341,-0.5L0.271,-0.5L0.271,-0.632L0.094,-0.632L0.094,-0.572C0.094,-0.523 0.072,-0.5 0.032,-0.5L0.018,-0.5Z" style="fill:white;fill-rule:nonzero;"/>
            </g>
            <g transform="matrix(12,0,0,12,191.073,212.75)">
                <path d="M0.492,-0L0.492,-0.75L0.298,-0.75L0.298,-0.455C0.284,-0.489 0.251,-0.51 0.207,-0.51C0.104,-0.51 0.033,-0.436 0.033,-0.288L0.033,-0.199C0.033,-0.063 0.087,0.01 0.199,0.01C0.257,0.01 0.304,-0.018 0.326,-0.077L0.326,-0L0.492,-0ZM0.302,-0.207C0.302,-0.177 0.287,-0.157 0.263,-0.157C0.239,-0.157 0.224,-0.176 0.224,-0.207L0.224,-0.293C0.224,-0.322 0.238,-0.343 0.263,-0.343C0.288,-0.343 0.302,-0.324 0.302,-0.293L0.302,-0.207Z" style="fill:white;fill-rule:nonzero;"/>
            </g>
            <g transform="matrix(12,0,0,12,197.493,212.75)">
                <path d="M0.479,-0.204L0.479,-0.275C0.479,-0.408 0.413,-0.51 0.26,-0.51C0.117,-0.51 0.033,-0.414 0.033,-0.262L0.033,-0.238C0.033,-0.082 0.104,0.01 0.258,0.01C0.382,0.01 0.465,-0.055 0.479,-0.173L0.295,-0.173C0.294,-0.151 0.28,-0.138 0.257,-0.138C0.236,-0.138 0.222,-0.15 0.222,-0.18L0.222,-0.204L0.479,-0.204ZM0.222,-0.319C0.222,-0.345 0.234,-0.362 0.257,-0.362C0.281,-0.362 0.292,-0.345 0.292,-0.319L0.292,-0.303L0.222,-0.303L0.222,-0.319Z" style="fill:white;fill-rule:nonzero;"/>
            </g>
            <g transform="matrix(12,0,0,12,203.637,212.75)">
                <path d="M0.043,-0.5L0.043,-0L0.238,-0L0.238,-0.257C0.238,-0.303 0.267,-0.333 0.312,-0.333L0.349,-0.333L0.349,-0.509L0.325,-0.509C0.272,-0.509 0.229,-0.476 0.208,-0.415L0.208,-0.5L0.043,-0.5Z" style="fill:white;fill-rule:nonzero;"/>
            </g>
            <g transform="matrix(12,0,0,12,210.621,212.75)">
                <path d="M0.049,-0.75L0.049,-0L0.244,-0L0.244,-0.471L0.25,-0.471L0.319,-0L0.475,-0L0.544,-0.471L0.55,-0.471L0.55,-0L0.752,-0L0.752,-0.75L0.466,-0.75L0.404,-0.29L0.398,-0.29L0.336,-0.75L0.049,-0.75Z" style="fill:white;fill-rule:nonzero;"/>
            </g>
            <g transform="matrix(12,0,0,12,220.233,212.75)">
                <path d="M0.215,-0.315L0.215,-0.327C0.215,-0.348 0.228,-0.362 0.248,-0.362C0.27,-0.362 0.28,-0.353 0.28,-0.336C0.28,-0.314 0.263,-0.303 0.22,-0.298C0.103,-0.284 0.028,-0.23 0.028,-0.129C0.028,-0.044 0.084,0.01 0.175,0.01C0.247,0.01 0.297,-0.017 0.323,-0.078C0.335,-0.018 0.367,0.009 0.426,0.009C0.451,0.009 0.48,0.005 0.501,-0L0.501,-0.145L0.484,-0.145C0.467,-0.145 0.459,-0.155 0.459,-0.174L0.459,-0.315C0.459,-0.44 0.393,-0.51 0.256,-0.51C0.131,-0.51 0.045,-0.437 0.045,-0.327L0.045,-0.315L0.215,-0.315ZM0.278,-0.162C0.278,-0.142 0.264,-0.129 0.245,-0.129C0.224,-0.129 0.211,-0.14 0.211,-0.161C0.211,-0.18 0.224,-0.193 0.245,-0.196C0.258,-0.198 0.27,-0.202 0.278,-0.206L0.278,-0.162Z" style="fill:white;fill-rule:nonzero;"/>
            </g>
            <g transform="matrix(12,0,0,12,226.221,212.75)">
                <path d="M0.018,-0.5L0.018,-0.346L0.077,-0.346L0.077,-0.188C0.077,-0.063 0.13,0.01 0.267,0.01C0.296,0.01 0.325,0.006 0.348,-0L0.348,-0.16C0.339,-0.159 0.33,-0.158 0.32,-0.158C0.287,-0.158 0.271,-0.173 0.271,-0.211L0.271,-0.346L0.341,-0.346L0.341,-0.5L0.271,-0.5L0.271,-0.632L0.094,-0.632L0.094,-0.572C0.094,-0.523 0.072,-0.5 0.032,-0.5L0.018,-0.5Z" style="fill:white;fill-rule:nonzero;"/>
            </g>
            <g transform="matrix(12,0,0,12,230.613,212.75)">
                <path d="M0.043,-0.75L0.043,-0L0.237,-0L0.237,-0.293C0.237,-0.318 0.252,-0.335 0.277,-0.335C0.305,-0.335 0.317,-0.318 0.317,-0.293L0.317,-0L0.511,-0L0.511,-0.311C0.511,-0.44 0.461,-0.51 0.354,-0.51C0.304,-0.51 0.265,-0.487 0.237,-0.447L0.237,-0.75L0.043,-0.75Z" style="fill:white;fill-rule:nonzero;"/>
            </g>
            <g transform="matrix(12,0,0,12,237.225,212.75)">
                <path d="M0.479,-0.204L0.479,-0.275C0.479,-0.408 0.413,-0.51 0.26,-0.51C0.117,-0.51 0.033,-0.414 0.033,-0.262L0.033,-0.238C0.033,-0.082 0.104,0.01 0.258,0.01C0.382,0.01 0.465,-0.055 0.479,-0.173L0.295,-0.173C0.294,-0.151 0.28,-0.138 0.257,-0.138C0.236,-0.138 0.222,-0.15 0.222,-0.18L0.222,-0.204L0.479,-0.204ZM0.222,-0.319C0.222,-0.345 0.234,-0.362 0.257,-0.362C0.281,-0.362 0.292,-0.345 0.292,-0.319L0.292,-0.303L0.222,-0.303L0.222,-0.319Z" style="fill:white;fill-rule:nonzero;"/>
            </g>
            <g transform="matrix(12,0,0,12,243.369,212.75)">
                <path d="M0.018,-0.5L0.018,-0.346L0.075,-0.346L0.075,-0L0.269,-0L0.269,-0.346L0.336,-0.346L0.336,-0.5L0.269,-0.5L0.269,-0.531C0.269,-0.568 0.287,-0.589 0.32,-0.589L0.336,-0.589L0.336,-0.76L0.292,-0.76C0.157,-0.76 0.075,-0.68 0.075,-0.544L0.075,-0.5L0.018,-0.5Z" style="fill:white;fill-rule:nonzero;"/>
            </g>
            <g transform="matrix(12,0,0,12,247.617,212.75)">
                <path d="M0.215,-0.315L0.215,-0.327C0.215,-0.348 0.228,-0.362 0.248,-0.362C0.27,-0.362 0.28,-0.353 0.28,-0.336C0.28,-0.314 0.263,-0.303 0.22,-0.298C0.103,-0.284 0.028,-0.23 0.028,-0.129C0.028,-0.044 0.084,0.01 0.175,0.01C0.247,0.01 0.297,-0.017 0.323,-0.078C0.335,-0.018 0.367,0.009 0.426,0.009C0.451,0.009 0.48,0.005 0.501,-0L0.501,-0.145L0.484,-0.145C0.467,-0.145 0.459,-0.155 0.459,-0.174L0.459,-0.315C0.459,-0.44 0.393,-0.51 0.256,-0.51C0.131,-0.51 0.045,-0.437 0.045,-0.327L0.045,-0.315L0.215,-0.315ZM0.278,-0.162C0.278,-0.142 0.264,-0.129 0.245,-0.129C0.224,-0.129 0.211,-0.14 0.211,-0.161C0.211,-0.18 0.224,-0.193 0.245,-0.196C0.258,-0.198 0.27,-0.202 0.278,-0.206L0.278,-0.162Z" style="fill:white;fill-rule:nonzero;"/>
            </g>
            <g transform="matrix(12,0,0,12,253.725,212.75)">
                <path d="M0.473,-0.279L0.473,-0.3C0.473,-0.418 0.404,-0.51 0.259,-0.51C0.112,-0.51 0.033,-0.405 0.033,-0.262L0.033,-0.238C0.033,-0.081 0.111,0.01 0.252,0.01C0.403,0.01 0.473,-0.087 0.473,-0.2L0.473,-0.221L0.289,-0.221L0.289,-0.2C0.289,-0.172 0.278,-0.157 0.256,-0.157C0.233,-0.157 0.223,-0.171 0.223,-0.21L0.223,-0.29C0.223,-0.328 0.234,-0.343 0.256,-0.343C0.278,-0.343 0.289,-0.328 0.289,-0.3L0.289,-0.279L0.473,-0.279Z" style="fill:white;fill-rule:nonzero;"/>
            </g>
            <g transform="matrix(12,0,0,12,259.797,212.75)">
                <path d="M0.018,-0.5L0.018,-0.346L0.077,-0.346L0.077,-0.188C0.077,-0.063 0.13,0.01 0.267,0.01C0.296,0.01 0.325,0.006 0.348,-0L0.348,-0.16C0.339,-0.159 0.33,-0.158 0.32,-0.158C0.287,-0.158 0.271,-0.173 0.271,-0.211L0.271,-0.346L0.341,-0.346L0.341,-0.5L0.271,-0.5L0.271,-0.632L0.094,-0.632L0.094,-0.572C0.094,-0.523 0.072,-0.5 0.032,-0.5L0.018,-0.5Z" style="fill:white;fill-rule:nonzero;"/>
            </g>
            <g transform="matrix(12,0,0,12,264.189,212.75)">
                <path d="M0.461,-0.34L0.461,-0.35C0.461,-0.443 0.383,-0.51 0.25,-0.51C0.115,-0.51 0.036,-0.447 0.036,-0.342C0.036,-0.245 0.094,-0.19 0.244,-0.185C0.273,-0.184 0.284,-0.172 0.284,-0.152C0.284,-0.132 0.272,-0.121 0.251,-0.121C0.23,-0.121 0.217,-0.131 0.217,-0.15L0.217,-0.16L0.028,-0.16L0.028,-0.15C0.028,-0.054 0.101,0.01 0.249,0.01C0.389,0.01 0.47,-0.051 0.47,-0.16C0.47,-0.261 0.412,-0.31 0.255,-0.318C0.231,-0.319 0.217,-0.328 0.217,-0.349C0.217,-0.367 0.229,-0.378 0.246,-0.378C0.266,-0.378 0.277,-0.367 0.277,-0.35L0.277,-0.34L0.461,-0.34Z" style="fill:white;fill-rule:nonzero;"/>
            </g>
            <g transform="matrix(12,0,0,12,272.685,212.75)">
                <path d="M0.018,-0.5L0.018,-0.346L0.075,-0.346L0.075,-0L0.269,-0L0.269,-0.346L0.336,-0.346L0.336,-0.5L0.269,-0.5L0.269,-0.531C0.269,-0.568 0.287,-0.589 0.32,-0.589L0.336,-0.589L0.336,-0.76L0.292,-0.76C0.157,-0.76 0.075,-0.68 0.075,-0.544L0.075,-0.5L0.018,-0.5Z" style="fill:white;fill-rule:nonzero;"/>
            </g>
            <g transform="matrix(12,0,0,12,277.053,212.75)">
                <path d="M0.162,-0.759C0.104,-0.759 0.069,-0.72 0.069,-0.666C0.069,-0.612 0.104,-0.573 0.162,-0.573C0.22,-0.573 0.255,-0.612 0.255,-0.666C0.255,-0.72 0.22,-0.759 0.162,-0.759ZM0.388,-0.759C0.33,-0.759 0.295,-0.72 0.295,-0.666C0.295,-0.612 0.33,-0.573 0.388,-0.573C0.446,-0.573 0.481,-0.612 0.481,-0.666C0.481,-0.72 0.446,-0.759 0.388,-0.759ZM0.04,-0.5L0.04,-0.199C0.04,-0.06 0.092,0.01 0.197,0.01C0.262,0.01 0.309,-0.022 0.33,-0.082L0.33,-0L0.508,-0L0.508,-0.5L0.314,-0.5L0.314,-0.207C0.314,-0.181 0.301,-0.165 0.274,-0.165C0.246,-0.165 0.234,-0.182 0.234,-0.207L0.234,-0.5L0.04,-0.5Z" style="fill:white;fill-rule:nonzero;"/>
            </g>
            <g transform="matrix(12,0,0,12,283.665,212.75)">
                <path d="M0.043,-0.5L0.043,-0L0.238,-0L0.238,-0.257C0.238,-0.303 0.267,-0.333 0.312,-0.333L0.349,-0.333L0.349,-0.509L0.325,-0.509C0.272,-0.509 0.229,-0.476 0.208,-0.415L0.208,-0.5L0.043,-0.5Z" style="fill:white;fill-rule:nonzero;"/>
            </g>
            <g transform="matrix(12,0,0,12,290.649,212.75)">
                <path d="M0.492,-0L0.492,-0.75L0.298,-0.75L0.298,-0.455C0.284,-0.489 0.251,-0.51 0.207,-0.51C0.104,-0.51 0.033,-0.436 0.033,-0.288L0.033,-0.199C0.033,-0.063 0.087,0.01 0.199,0.01C0.257,0.01 0.304,-0.018 0.326,-0.077L0.326,-0L0.492,-0ZM0.302,-0.207C0.302,-0.177 0.287,-0.157 0.263,-0.157C0.239,-0.157 0.224,-0.176 0.224,-0.207L0.224,-0.293C0.224,-0.322 0.238,-0.343 0.263,-0.343C0.288,-0.343 0.302,-0.324 0.302,-0.293L0.302,-0.207Z" style="fill:white;fill-rule:nonzero;"/>
            </g>
            <g transform="matrix(12,0,0,12,297.069,212.75)">
                <path d="M0.479,-0.204L0.479,-0.275C0.479,-0.408 0.413,-0.51 0.26,-0.51C0.117,-0.51 0.033,-0.414 0.033,-0.262L0.033,-0.238C0.033,-0.082 0.104,0.01 0.258,0.01C0.382,0.01 0.465,-0.055 0.479,-0.173L0.295,-0.173C0.294,-0.151 0.28,-0.138 0.257,-0.138C0.236,-0.138 0.222,-0.15 0.222,-0.18L0.222,-0.204L0.479,-0.204ZM0.222,-0.319C0.222,-0.345 0.234,-0.362 0.257,-0.362C0.281,-0.362 0.292,-0.345 0.292,-0.319L0.292,-0.303L0.222,-0.303L0.222,-0.319Z" style="fill:white;fill-rule:nonzero;"/>
            </g>
            <g transform="matrix(12,0,0,12,303.213,212.75)">
                <path d="M0.043,-0.5L0.043,-0L0.237,-0L0.237,-0.293C0.237,-0.319 0.25,-0.335 0.277,-0.335C0.305,-0.335 0.317,-0.318 0.317,-0.293L0.317,-0L0.511,-0L0.511,-0.311C0.511,-0.44 0.461,-0.51 0.354,-0.51C0.288,-0.51 0.243,-0.477 0.221,-0.408L0.221,-0.5L0.043,-0.5Z" style="fill:white;fill-rule:nonzero;"/>
            </g>
            <g transform="matrix(12,0,0,12,312.345,212.75)">
                <path d="M0.049,-0.75L0.049,-0L0.264,-0L0.264,-0.196L0.299,-0.196C0.471,-0.196 0.557,-0.298 0.557,-0.452L0.557,-0.494C0.557,-0.649 0.471,-0.75 0.299,-0.75L0.049,-0.75ZM0.264,-0.568L0.293,-0.568C0.327,-0.568 0.347,-0.548 0.347,-0.504L0.347,-0.441C0.347,-0.397 0.325,-0.377 0.293,-0.377L0.264,-0.377L0.264,-0.568Z" style="fill:white;fill-rule:nonzero;"/>
            </g>
            <g transform="matrix(12,0,0,12,319.257,212.75)">
                <path d="M0.26,-0.51C0.118,-0.51 0.033,-0.41 0.033,-0.265L0.033,-0.235C0.033,-0.087 0.108,0.01 0.26,0.01C0.402,0.01 0.487,-0.089 0.487,-0.235L0.487,-0.265C0.487,-0.413 0.413,-0.51 0.26,-0.51ZM0.26,-0.343C0.283,-0.343 0.296,-0.326 0.296,-0.29L0.296,-0.21C0.296,-0.175 0.283,-0.157 0.26,-0.157C0.237,-0.157 0.224,-0.174 0.224,-0.21L0.224,-0.29C0.224,-0.325 0.237,-0.343 0.26,-0.343Z" style="fill:white;fill-rule:nonzero;"/>
            </g>
            <g transform="matrix(12,0,0,12,325.497,212.75)">
                <path d="M0.492,-0L0.492,-0.75L0.298,-0.75L0.298,-0.455C0.284,-0.489 0.251,-0.51 0.207,-0.51C0.104,-0.51 0.033,-0.436 0.033,-0.288L0.033,-0.199C0.033,-0.063 0.087,0.01 0.199,0.01C0.257,0.01 0.304,-0.018 0.326,-0.077L0.326,-0L0.492,-0ZM0.302,-0.207C0.302,-0.177 0.287,-0.157 0.263,-0.157C0.239,-0.157 0.224,-0.176 0.224,-0.207L0.224,-0.293C0.224,-0.322 0.238,-0.343 0.263,-0.343C0.288,-0.343 0.302,-0.324 0.302,-0.293L0.302,-0.207Z" style="fill:white;fill-rule:nonzero;"/>
            </g>
            <g transform="matrix(12,0,0,12,331.917,212.75)">
                <path d="M0.473,-0.279L0.473,-0.3C0.473,-0.418 0.404,-0.51 0.259,-0.51C0.112,-0.51 0.033,-0.405 0.033,-0.262L0.033,-0.238C0.033,-0.081 0.111,0.01 0.252,0.01C0.403,0.01 0.473,-0.087 0.473,-0.2L0.473,-0.221L0.289,-0.221L0.289,-0.2C0.289,-0.172 0.278,-0.157 0.256,-0.157C0.233,-0.157 0.223,-0.171 0.223,-0.21L0.223,-0.29C0.223,-0.328 0.234,-0.343 0.256,-0.343C0.278,-0.343 0.289,-0.328 0.289,-0.3L0.289,-0.279L0.473,-0.279Z" style="fill:white;fill-rule:nonzero;"/>
            </g>
            <g transform="matrix(12,0,0,12,337.989,212.75)">
                <path d="M0.215,-0.315L0.215,-0.327C0.215,-0.348 0.228,-0.362 0.248,-0.362C0.27,-0.362 0.28,-0.353 0.28,-0.336C0.28,-0.314 0.263,-0.303 0.22,-0.298C0.103,-0.284 0.028,-0.23 0.028,-0.129C0.028,-0.044 0.084,0.01 0.175,0.01C0.247,0.01 0.297,-0.017 0.323,-0.078C0.335,-0.018 0.367,0.009 0.426,0.009C0.451,0.009 0.48,0.005 0.501,-0L0.501,-0.145L0.484,-0.145C0.467,-0.145 0.459,-0.155 0.459,-0.174L0.459,-0.315C0.459,-0.44 0.393,-0.51 0.256,-0.51C0.131,-0.51 0.045,-0.437 0.045,-0.327L0.045,-0.315L0.215,-0.315ZM0.278,-0.162C0.278,-0.142 0.264,-0.129 0.245,-0.129C0.224,-0.129 0.211,-0.14 0.211,-0.161C0.211,-0.18 0.224,-0.193 0.245,-0.196C0.258,-0.198 0.27,-0.202 0.278,-0.206L0.278,-0.162Z" style="fill:white;fill-rule:nonzero;"/>
            </g>
            <g transform="matrix(12,0,0,12,344.217,212.75)">
                <path d="M0.461,-0.34L0.461,-0.35C0.461,-0.443 0.383,-0.51 0.25,-0.51C0.115,-0.51 0.036,-0.447 0.036,-0.342C0.036,-0.245 0.094,-0.19 0.244,-0.185C0.273,-0.184 0.284,-0.172 0.284,-0.152C0.284,-0.132 0.272,-0.121 0.251,-0.121C0.23,-0.121 0.217,-0.131 0.217,-0.15L0.217,-0.16L0.028,-0.16L0.028,-0.15C0.028,-0.054 0.101,0.01 0.249,0.01C0.389,0.01 0.47,-0.051 0.47,-0.16C0.47,-0.261 0.412,-0.31 0.255,-0.318C0.231,-0.319 0.217,-0.328 0.217,-0.349C0.217,-0.367 0.229,-0.378 0.246,-0.378C0.266,-0.378 0.277,-0.367 0.277,-0.35L0.277,-0.34L0.461,-0.34Z" style="fill:white;fill-rule:nonzero;"/>
            </g>
            <g transform="matrix(12,0,0,12,350.073,212.75)">
                <path d="M0.018,-0.5L0.018,-0.346L0.077,-0.346L0.077,-0.188C0.077,-0.063 0.13,0.01 0.267,0.01C0.296,0.01 0.325,0.006 0.348,-0L0.348,-0.16C0.339,-0.159 0.33,-0.158 0.32,-0.158C0.287,-0.158 0.271,-0.173 0.271,-0.211L0.271,-0.346L0.341,-0.346L0.341,-0.5L0.271,-0.5L0.271,-0.632L0.094,-0.632L0.094,-0.572C0.094,-0.523 0.072,-0.5 0.032,-0.5L0.018,-0.5Z" style="fill:white;fill-rule:nonzero;"/>
            </g>
            <g transform="matrix(12,0,0,12,356.985,212.75)">
                <path d="M0.376,-0.75L0.376,-0.391L0.37,-0.391L0.254,-0.75L0.049,-0.75L0.049,-0L0.249,-0L0.249,-0.36L0.255,-0.36L0.369,-0L0.576,-0L0.576,-0.75L0.376,-0.75Z" style="fill:white;fill-rule:nonzero;"/>
            </g>
            <g transform="matrix(12,0,0,12,364.485,212.75)">
                <path d="M0.043,-0.5L0.043,-0L0.238,-0L0.238,-0.257C0.238,-0.303 0.267,-0.333 0.312,-0.333L0.349,-0.333L0.349,-0.509L0.325,-0.509C0.272,-0.509 0.229,-0.476 0.208,-0.415L0.208,-0.5L0.043,-0.5Z" style="fill:white;fill-rule:nonzero;"/>
            </g>
            <g transform="matrix(12,0,0,12,368.349,212.75)">
                <path d="M0.139,-0.219C0.068,-0.219 0.025,-0.17 0.025,-0.105C0.025,-0.04 0.067,0.009 0.139,0.009C0.21,0.009 0.253,-0.04 0.253,-0.105C0.253,-0.17 0.209,-0.219 0.139,-0.219Z" style="fill:white;fill-rule:nonzero;"/>
            </g>
            <g transform="matrix(12,0,0,12,374.205,212.75)">
                <path d="M0.185,-0.75L0.185,-0.722C0.185,-0.618 0.138,-0.569 0.048,-0.569L0.025,-0.569L0.025,-0.396L0.175,-0.396L0.175,-0L0.39,-0L0.39,-0.75L0.185,-0.75Z" style="fill:white;fill-rule:nonzero;"/>
            </g>
            <g transform="matrix(12,0,0,12,379.545,212.75)">
                <path d="M0.042,-0.774L0.042,-0.252L0.236,-0.252L0.236,-0.774L0.042,-0.774ZM0.139,-0.209C0.071,-0.209 0.025,-0.165 0.025,-0.1C0.025,-0.035 0.07,0.009 0.139,0.009C0.207,0.009 0.253,-0.035 0.253,-0.1C0.253,-0.165 0.206,-0.209 0.139,-0.209Z" style="fill:white;fill-rule:nonzero;"/>
            </g>
        </g>
    </g>
</svg>
