<?xml version="1.0" encoding="UTF-8" standalone="no"?>
<!DOCTYPE svg PUBLIC "-//W3C//DTD SVG 20010904//EN"
  "http://www.w3.org/TR/2001/REC-SVG-20010904/DTD/svg10.dtd">
<svg xmlns="http://www.w3.org/2000/svg"
     width="11in" height="3in"
     viewBox="0 0 941 204">
  <style>
    @media (prefers-color-scheme: dark) {
      path {
        fill: white;
        stroke: black;
      }
    }
  </style>
  <defs>
    <filter id="shadow" x="0" y="0" width="200%" height="200%">
      <feOffset result="offOut" in="SourceGraphic" dx="0" dy="0"/>
      <feGaussianBlur result="blurOut" in="offOut" stdDeviation="3"/>
      <feBlend in="SourceGraphic" in2="blurOut"/>
    </filter>
  </defs>
  <path fill="black" stroke="white" stroke-width="2" filter="url(#shadow)"
        d="M 889.08,127.64
           C 889.08,127.64 889.08,149.61 889.08,149.61
             889.08,149.61 897.25,149.61 897.25,149.61
             897.25,149.61 897.25,127.64 897.25,127.64
             897.25,127.64 889.08,127.64 889.08,127.64 Z
           M 893.17,151.42
           C 890.30,151.42 888.37,153.27 888.37,156.01
             888.37,158.75 890.26,160.60 893.17,160.60
             896.03,160.60 897.97,158.75 897.97,156.01
             897.97,153.27 895.99,151.42 893.17,151.42 Z
           M 876.37,128.65
           C 876.37,128.65 876.37,129.83 876.37,129.83
             876.37,134.20 874.39,136.27 870.60,136.27
             870.60,136.27 869.63,136.27 869.63,136.27
             869.63,136.27 869.63,143.55 869.63,143.55
             869.63,143.55 875.95,143.55 875.95,143.55
             875.95,143.55 875.95,160.22 875.95,160.22
             875.95,160.22 885.00,160.22 885.00,160.22
             885.00,160.22 885.00,128.65 885.00,128.65
             885.00,128.65 876.37,128.65 876.37,128.65 Z
           M 853.89,151.00
           C 850.90,151.00 849.09,153.06 849.09,155.80
             849.09,158.54 850.86,160.60 853.89,160.60
             856.88,160.60 858.69,158.54 858.69,155.80
             858.69,153.06 856.84,151.00 853.89,151.00 Z
           M 836.29,139.17
           C 836.29,139.17 836.29,160.22 836.29,160.22
             836.29,160.22 844.50,160.22 844.50,160.22
             844.50,160.22 844.50,149.40 844.50,149.40
             844.50,147.46 845.72,146.20 847.62,146.20
             847.62,146.20 849.18,146.20 849.18,146.20
             849.18,146.20 849.18,138.79 849.18,138.79
             849.18,138.79 848.16,138.79 848.16,138.79
             845.93,138.79 844.12,140.18 843.24,142.75
             843.24,142.75 843.24,139.17 843.24,139.17
             843.24,139.17 836.29,139.17 836.29,139.17 Z
           M 824.00,128.65
           C 824.00,128.65 824.00,143.76 824.00,143.76
             824.00,143.76 823.75,143.76 823.75,143.76
             823.75,143.76 818.87,128.65 818.87,128.65
             818.87,128.65 810.24,128.65 810.24,128.65
             810.24,128.65 810.24,160.22 810.24,160.22
             810.24,160.22 818.66,160.22 818.66,160.22
             818.66,160.22 818.66,145.06 818.66,145.06
             818.66,145.06 818.91,145.06 818.91,145.06
             818.91,145.06 823.71,160.22 823.71,160.22
             823.71,160.22 832.42,160.22 832.42,160.22
             832.42,160.22 832.42,128.65 832.42,128.65
             832.42,128.65 824.00,128.65 824.00,128.65 Z
           M 784.68,139.17
           C 784.68,139.17 784.68,145.65 784.68,145.65
             784.68,145.65 787.17,145.65 787.17,145.65
             787.17,145.65 787.17,152.30 787.17,152.30
             787.17,157.57 789.40,160.64 795.17,160.64
             796.39,160.64 797.61,160.47 798.58,160.22
             798.58,160.22 798.58,153.48 798.58,153.48
             798.20,153.53 797.82,153.57 797.40,153.57
             796.01,153.57 795.33,152.94 795.33,151.34
             795.33,151.34 795.33,145.65 795.33,145.65
             795.33,145.65 798.28,145.65 798.28,145.65
             798.28,145.65 798.28,139.17 798.28,139.17
             798.28,139.17 795.33,139.17 795.33,139.17
             795.33,139.17 795.33,133.61 795.33,133.61
             795.33,133.61 787.88,133.61 787.88,133.61
             787.88,133.61 787.88,136.14 787.88,136.14
             787.88,138.20 786.96,139.17 785.27,139.17
             785.27,139.17 784.68,139.17 784.68,139.17 Z
           M 782.79,145.91
           C 782.79,145.91 782.79,145.49 782.79,145.49
             782.79,141.57 779.51,138.75 773.91,138.75
             768.22,138.75 764.90,141.40 764.90,145.82
             764.90,149.91 767.34,152.22 773.65,152.43
             774.87,152.47 775.34,152.98 775.34,153.82
             775.34,154.66 774.83,155.13 773.95,155.13
             773.06,155.13 772.52,154.70 772.52,153.90
             772.52,153.90 772.52,153.48 772.52,153.48
             772.52,153.48 764.56,153.48 764.56,153.48
             764.56,153.48 764.56,153.90 764.56,153.90
             764.56,157.95 767.63,160.64 773.86,160.64
             779.76,160.64 783.17,158.07 783.17,153.48
             783.17,149.23 780.73,147.17 774.12,146.83
             773.11,146.79 772.52,146.41 772.52,145.53
             772.52,144.77 773.02,144.31 773.74,144.31
             774.58,144.31 775.04,144.77 775.04,145.49
             775.04,145.49 775.04,145.91 775.04,145.91
             775.04,145.91 782.79,145.91 782.79,145.91 Z
           M 750.58,146.96
           C 750.58,146.96 750.58,146.45 750.58,146.45
             750.58,145.57 751.13,144.98 751.97,144.98
             752.90,144.98 753.32,145.36 753.32,146.07
             753.32,147.00 752.61,147.46 750.80,147.67
             745.87,148.26 742.71,150.54 742.71,154.79
             742.71,158.37 745.07,160.64 748.90,160.64
             751.93,160.64 754.04,159.50 755.13,156.94
             755.64,159.46 756.98,160.60 759.47,160.60
             760.52,160.60 761.74,160.43 762.62,160.22
             762.62,160.22 762.62,154.11 762.62,154.11
             762.62,154.11 761.91,154.11 761.91,154.11
             761.19,154.11 760.86,153.69 760.86,152.89
             760.86,152.89 760.86,146.96 760.86,146.96
             760.86,141.70 758.08,138.75 752.31,138.75
             747.05,138.75 743.43,141.82 743.43,146.45
             743.43,146.45 743.43,146.96 743.43,146.96
             743.43,146.96 750.58,146.96 750.58,146.96 Z
           M 753.24,153.40
           C 753.24,154.24 752.65,154.79 751.85,154.79
             750.96,154.79 750.42,154.33 750.42,153.44
             750.42,152.64 750.96,152.09 751.85,151.97
             752.39,151.88 752.90,151.72 753.24,151.55
             753.24,151.55 753.24,153.40 753.24,153.40 Z
           M 740.14,148.47
           C 740.14,148.47 740.14,147.59 740.14,147.59
             740.14,142.62 737.24,138.75 731.14,138.75
             724.95,138.75 721.62,143.17 721.62,149.19
             721.62,149.19 721.62,150.20 721.62,150.20
             721.62,156.81 724.91,160.64 730.84,160.64
             737.20,160.64 740.14,156.56 740.14,151.80
             740.14,151.80 740.14,150.92 740.14,150.92
             740.14,150.92 732.40,150.92 732.40,150.92
             732.40,150.92 732.40,151.80 732.40,151.80
             732.40,152.98 731.94,153.61 731.01,153.61
             730.04,153.61 729.62,153.02 729.62,151.38
             729.62,151.38 729.62,148.01 729.62,148.01
             729.62,146.41 730.08,145.78 731.01,145.78
             731.94,145.78 732.40,146.41 732.40,147.59
             732.40,147.59 732.40,148.47 732.40,148.47
             732.40,148.47 740.14,148.47 740.14,148.47 Z
           M 718.42,160.22
           C 718.42,160.22 718.42,128.65 718.42,128.65
             718.42,128.65 710.26,128.65 710.26,128.65
             710.26,128.65 710.26,141.06 710.26,141.06
             709.67,139.63 708.28,138.75 706.43,138.75
             702.09,138.75 699.10,141.86 699.10,148.10
             699.10,148.10 699.10,151.84 699.10,151.84
             699.10,157.57 701.37,160.64 706.09,160.64
             708.53,160.64 710.51,159.46 711.43,156.98
             711.43,156.98 711.43,160.22 711.43,160.22
             711.43,160.22 718.42,160.22 718.42,160.22 Z
           M 710.42,151.50
           C 710.42,152.77 709.79,153.61 708.78,153.61
             707.77,153.61 707.14,152.81 707.14,151.50
             707.14,151.50 707.14,147.88 707.14,147.88
             707.14,146.66 707.73,145.78 708.78,145.78
             709.84,145.78 710.42,146.58 710.42,147.88
             710.42,147.88 710.42,151.50 710.42,151.50 Z
           M 686.77,138.75
           C 680.79,138.75 677.21,142.96 677.21,149.06
             677.21,149.06 677.21,150.33 677.21,150.33
             677.21,156.56 680.37,160.64 686.77,160.64
             692.74,160.64 696.32,156.47 696.32,150.33
             696.32,150.33 696.32,149.06 696.32,149.06
             696.32,142.83 693.21,138.75 686.77,138.75 Z
           M 686.77,145.78
           C 687.73,145.78 688.28,146.50 688.28,148.01
             688.28,148.01 688.28,151.38 688.28,151.38
             688.28,152.85 687.73,153.61 686.77,153.61
             685.80,153.61 685.25,152.89 685.25,151.38
             685.25,151.38 685.25,148.01 685.25,148.01
             685.25,146.54 685.80,145.78 686.77,145.78 Z
           M 653.64,128.65
           C 653.64,128.65 653.64,160.22 653.64,160.22
             653.64,160.22 662.69,160.22 662.69,160.22
             662.69,160.22 662.69,151.97 662.69,151.97
             662.69,151.97 664.16,151.97 664.16,151.97
             671.40,151.97 675.02,147.67 675.02,141.19
             675.02,141.19 675.02,139.42 675.02,139.42
             675.02,132.90 671.40,128.65 664.16,128.65
             664.16,128.65 653.64,128.65 653.64,128.65 Z
           M 662.69,136.31
           C 662.69,136.31 663.91,136.31 663.91,136.31
             665.34,136.31 666.18,137.15 666.18,139.00
             666.18,139.00 666.18,141.65 666.18,141.65
             666.18,143.51 665.25,144.35 663.91,144.35
             663.91,144.35 662.69,144.35 662.69,144.35
             662.69,144.35 662.69,136.31 662.69,136.31 Z
           M 621.35,139.17
           C 621.35,139.17 621.35,160.22 621.35,160.22
             621.35,160.22 629.51,160.22 629.51,160.22
             629.51,160.22 629.51,147.88 629.51,147.88
             629.51,146.79 630.06,146.12 631.20,146.12
             632.38,146.12 632.88,146.83 632.88,147.88
             632.88,147.88 632.88,160.22 632.88,160.22
             632.88,160.22 641.05,160.22 641.05,160.22
             641.05,160.22 641.05,147.13 641.05,147.13
             641.05,141.70 638.94,138.75 634.44,138.75
             631.66,138.75 629.77,140.14 628.84,143.04
             628.84,143.04 628.84,139.17 628.84,139.17
             628.84,139.17 621.35,139.17 621.35,139.17 Z
           M 618.15,151.63
           C 618.15,151.63 618.15,148.64 618.15,148.64
             618.15,143.04 615.37,138.75 608.93,138.75
             602.91,138.75 599.37,142.79 599.37,149.19
             599.37,149.19 599.37,150.20 599.37,150.20
             599.37,156.77 602.36,160.64 608.85,160.64
             614.07,160.64 617.56,157.90 618.15,152.94
             618.15,152.94 610.40,152.94 610.40,152.94
             610.36,153.86 609.77,154.41 608.80,154.41
             607.92,154.41 607.33,153.90 607.33,152.64
             607.33,152.64 607.33,151.63 607.33,151.63
             607.33,151.63 618.15,151.63 618.15,151.63 Z
           M 607.33,146.79
           C 607.33,145.70 607.83,144.98 608.80,144.98
             609.81,144.98 610.28,145.70 610.28,146.79
             610.28,146.79 610.28,147.46 610.28,147.46
             610.28,147.46 607.33,147.46 607.33,147.46
             607.33,147.46 607.33,146.79 607.33,146.79 Z
           M 596.17,160.22
           C 596.17,160.22 596.17,128.65 596.17,128.65
             596.17,128.65 588.01,128.65 588.01,128.65
             588.01,128.65 588.01,141.06 588.01,141.06
             587.42,139.63 586.03,138.75 584.18,138.75
             579.84,138.75 576.85,141.86 576.85,148.10
             576.85,148.10 576.85,151.84 576.85,151.84
             576.85,157.57 579.12,160.64 583.84,160.64
             586.28,160.64 588.26,159.46 589.19,156.98
             589.19,156.98 589.19,160.22 589.19,160.22
             589.19,160.22 596.17,160.22 596.17,160.22 Z
           M 588.18,151.50
           C 588.18,152.77 587.54,153.61 586.53,153.61
             585.52,153.61 584.89,152.81 584.89,151.50
             584.89,151.50 584.89,147.88 584.89,147.88
             584.89,146.66 585.48,145.78 586.53,145.78
             587.59,145.78 588.18,146.58 588.18,147.88
             588.18,147.88 588.18,151.50 588.18,151.50 Z
           M 552.77,139.17
           C 552.77,139.17 552.77,160.22 552.77,160.22
             552.77,160.22 560.98,160.22 560.98,160.22
             560.98,160.22 560.98,149.40 560.98,149.40
             560.98,147.46 562.20,146.20 564.10,146.20
             564.10,146.20 565.65,146.20 565.65,146.20
             565.65,146.20 565.65,138.79 565.65,138.79
             565.65,138.79 564.64,138.79 564.64,138.79
             562.41,138.79 560.60,140.18 559.72,142.75
             559.72,142.75 559.72,139.17 559.72,139.17
             559.72,139.17 552.77,139.17 552.77,139.17 Z
           M 534.59,128.27
           C 532.14,128.27 530.67,129.91 530.67,132.18
             530.67,134.46 532.14,136.10 534.59,136.10
             537.03,136.10 538.50,134.46 538.50,132.18
             538.50,129.91 537.03,128.27 534.59,128.27 Z
           M 544.10,128.27
           C 541.66,128.27 540.19,129.91 540.19,132.18
             540.19,134.46 541.66,136.10 544.10,136.10
             546.54,136.10 548.02,134.46 548.02,132.18
             548.02,129.91 546.54,128.27 544.10,128.27 Z
           M 529.45,139.17
           C 529.45,139.17 529.45,151.84 529.45,151.84
             529.45,157.69 531.64,160.64 536.06,160.64
             538.80,160.64 540.77,159.29 541.66,156.77
             541.66,156.77 541.66,160.22 541.66,160.22
             541.66,160.22 549.15,160.22 549.15,160.22
             549.15,160.22 549.15,139.17 549.15,139.17
             549.15,139.17 540.99,139.17 540.99,139.17
             540.99,139.17 540.99,151.50 540.99,151.50
             540.99,152.60 540.44,153.27 539.30,153.27
             538.12,153.27 537.62,152.56 537.62,151.50
             537.62,151.50 537.62,139.17 537.62,139.17
             537.62,139.17 529.45,139.17 529.45,139.17 Z
           M 513.20,139.17
           C 513.20,139.17 513.20,145.65 513.20,145.65
             513.20,145.65 515.60,145.65 515.60,145.65
             515.60,145.65 515.60,160.22 515.60,160.22
             515.60,160.22 523.77,160.22 523.77,160.22
             523.77,160.22 523.77,145.65 523.77,145.65
             523.77,145.65 526.59,145.65 526.59,145.65
             526.59,145.65 526.59,139.17 526.59,139.17
             526.59,139.17 523.77,139.17 523.77,139.17
             523.77,139.17 523.77,137.87 523.77,137.87
             523.77,136.31 524.53,135.42 525.91,135.42
             525.91,135.42 526.59,135.42 526.59,135.42
             526.59,135.42 526.59,128.23 526.59,128.23
             526.59,128.23 524.74,128.23 524.74,128.23
             519.05,128.23 515.60,131.59 515.60,137.32
             515.60,137.32 515.60,139.17 515.60,139.17
             515.60,139.17 513.20,139.17 513.20,139.17 Z
           M 502.05,145.91
           C 502.05,145.91 502.05,145.49 502.05,145.49
             502.05,141.57 498.76,138.75 493.16,138.75
             487.48,138.75 484.15,141.40 484.15,145.82
             484.15,149.91 486.60,152.22 492.91,152.43
             494.13,152.47 494.59,152.98 494.59,153.82
             494.59,154.66 494.09,155.13 493.21,155.13
             492.32,155.13 491.77,154.70 491.77,153.90
             491.77,153.90 491.77,153.48 491.77,153.48
             491.77,153.48 483.82,153.48 483.82,153.48
             483.82,153.48 483.82,153.90 483.82,153.90
             483.82,157.95 486.89,160.64 493.12,160.64
             499.01,160.64 502.42,158.07 502.42,153.48
             502.42,149.23 499.98,147.17 493.37,146.83
             492.36,146.79 491.77,146.41 491.77,145.53
             491.77,144.77 492.28,144.31 492.99,144.31
             493.84,144.31 494.30,144.77 494.30,145.49
             494.30,145.49 494.30,145.91 494.30,145.91
             494.30,145.91 502.05,145.91 502.05,145.91 Z
           M 467.99,139.17
           C 467.99,139.17 467.99,145.65 467.99,145.65
             467.99,145.65 470.47,145.65 470.47,145.65
             470.47,145.65 470.47,152.30 470.47,152.30
             470.47,157.57 472.70,160.64 478.47,160.64
             479.69,160.64 480.91,160.47 481.88,160.22
             481.88,160.22 481.88,153.48 481.88,153.48
             481.50,153.53 481.12,153.57 480.70,153.57
             479.31,153.57 478.64,152.94 478.64,151.34
             478.64,151.34 478.64,145.65 478.64,145.65
             478.64,145.65 481.59,145.65 481.59,145.65
             481.59,145.65 481.59,139.17 481.59,139.17
             481.59,139.17 478.64,139.17 478.64,139.17
             478.64,139.17 478.64,133.61 478.64,133.61
             478.64,133.61 471.19,133.61 471.19,133.61
             471.19,133.61 471.19,136.14 471.19,136.14
             471.19,138.20 470.26,139.17 468.58,139.17
             468.58,139.17 467.99,139.17 467.99,139.17 Z
           M 465.84,148.47
           C 465.84,148.47 465.84,147.59 465.84,147.59
             465.84,142.62 462.94,138.75 456.83,138.75
             450.65,138.75 447.32,143.17 447.32,149.19
             447.32,149.19 447.32,150.20 447.32,150.20
             447.32,156.81 450.60,160.64 456.54,160.64
             462.90,160.64 465.84,156.56 465.84,151.80
             465.84,151.80 465.84,150.92 465.84,150.92
             465.84,150.92 458.10,150.92 458.10,150.92
             458.10,150.92 458.10,151.80 458.10,151.80
             458.10,152.98 457.63,153.61 456.71,153.61
             455.74,153.61 455.32,153.02 455.32,151.38
             455.32,151.38 455.32,148.01 455.32,148.01
             455.32,146.41 455.78,145.78 456.71,145.78
             457.63,145.78 458.10,146.41 458.10,147.59
             458.10,147.59 458.10,148.47 458.10,148.47
             458.10,148.47 465.84,148.47 465.84,148.47 Z
           M 433.55,146.96
           C 433.55,146.96 433.55,146.45 433.55,146.45
             433.55,145.57 434.10,144.98 434.94,144.98
             435.87,144.98 436.29,145.36 436.29,146.07
             436.29,147.00 435.58,147.46 433.76,147.67
             428.84,148.26 425.68,150.54 425.68,154.79
             425.68,158.37 428.04,160.64 431.87,160.64
             434.90,160.64 437.01,159.50 438.10,156.94
             438.61,159.46 439.95,160.60 442.44,160.60
             443.49,160.60 444.71,160.43 445.59,160.22
             445.59,160.22 445.59,154.11 445.59,154.11
             445.59,154.11 444.88,154.11 444.88,154.11
             444.16,154.11 443.83,153.69 443.83,152.89
             443.83,152.89 443.83,146.96 443.83,146.96
             443.83,141.70 441.05,138.75 435.28,138.75
             430.02,138.75 426.40,141.82 426.40,146.45
             426.40,146.45 426.40,146.96 426.40,146.96
             426.40,146.96 433.55,146.96 433.55,146.96 Z
           M 436.21,153.40
           C 436.21,154.24 435.62,154.79 434.82,154.79
             433.93,154.79 433.39,154.33 433.39,153.44
             433.39,152.64 433.93,152.09 434.82,151.97
             435.36,151.88 435.87,151.72 436.21,151.55
             436.21,151.55 436.21,153.40 436.21,153.40 Z
           M 410.36,139.17
           C 410.36,139.17 410.36,145.65 410.36,145.65
             410.36,145.65 412.76,145.65 412.76,145.65
             412.76,145.65 412.76,160.22 412.76,160.22
             412.76,160.22 420.93,160.22 420.93,160.22
             420.93,160.22 420.93,145.65 420.93,145.65
             420.93,145.65 423.75,145.65 423.75,145.65
             423.75,145.65 423.75,139.17 423.75,139.17
             423.75,139.17 420.93,139.17 420.93,139.17
             420.93,139.17 420.93,137.87 420.93,137.87
             420.93,136.31 421.68,135.42 423.07,135.42
             423.07,135.42 423.75,135.42 423.75,135.42
             423.75,135.42 423.75,128.23 423.75,128.23
             423.75,128.23 421.89,128.23 421.89,128.23
             416.21,128.23 412.76,131.59 412.76,137.32
             412.76,137.32 412.76,139.17 412.76,139.17
             412.76,139.17 410.36,139.17 410.36,139.17 Z
           M 408.21,151.63
           C 408.21,151.63 408.21,148.64 408.21,148.64
             408.21,143.04 405.43,138.75 398.99,138.75
             392.97,138.75 389.44,142.79 389.44,149.19
             389.44,149.19 389.44,150.20 389.44,150.20
             389.44,156.77 392.43,160.64 398.91,160.64
             404.13,160.64 407.62,157.90 408.21,152.94
             408.21,152.94 400.47,152.94 400.47,152.94
             400.42,153.86 399.83,154.41 398.87,154.41
             397.98,154.41 397.39,153.90 397.39,152.64
             397.39,152.64 397.39,151.63 397.39,151.63
             397.39,151.63 408.21,151.63 408.21,151.63 Z
           M 397.39,146.79
           C 397.39,145.70 397.90,144.98 398.87,144.98
             399.88,144.98 400.34,145.70 400.34,146.79
             400.34,146.79 400.34,147.46 400.34,147.46
             400.34,147.46 397.39,147.46 397.39,147.46
             397.39,147.46 397.39,146.79 397.39,146.79 Z
           M 366.66,128.65
           C 366.66,128.65 366.66,160.22 366.66,160.22
             366.66,160.22 374.83,160.22 374.83,160.22
             374.83,160.22 374.83,147.88 374.83,147.88
             374.83,146.83 375.46,146.12 376.51,146.12
             377.69,146.12 378.20,146.83 378.20,147.88
             378.20,147.88 378.20,160.22 378.20,160.22
             378.20,160.22 386.36,160.22 386.36,160.22
             386.36,160.22 386.36,147.13 386.36,147.13
             386.36,141.70 384.26,138.75 379.75,138.75
             377.65,138.75 376.01,139.72 374.83,141.40
             374.83,141.40 374.83,128.65 374.83,128.65
             374.83,128.65 366.66,128.65 366.66,128.65 Z
           M 350.20,139.17
           C 350.20,139.17 350.20,145.65 350.20,145.65
             350.20,145.65 352.69,145.65 352.69,145.65
             352.69,145.65 352.69,152.30 352.69,152.30
             352.69,157.57 354.92,160.64 360.68,160.64
             361.91,160.64 363.13,160.47 364.09,160.22
             364.09,160.22 364.09,153.48 364.09,153.48
             363.72,153.53 363.34,153.57 362.92,153.57
             361.53,153.57 360.85,152.94 360.85,151.34
             360.85,151.34 360.85,145.65 360.85,145.65
             360.85,145.65 363.80,145.65 363.80,145.65
             363.80,145.65 363.80,139.17 363.80,139.17
             363.80,139.17 360.85,139.17 360.85,139.17
             360.85,139.17 360.85,133.61 360.85,133.61
             360.85,133.61 353.40,133.61 353.40,133.61
             353.40,133.61 353.40,136.14 353.40,136.14
             353.40,138.20 352.48,139.17 350.79,139.17
             350.79,139.17 350.20,139.17 350.20,139.17 Z
           M 337.49,146.96
           C 337.49,146.96 337.49,146.45 337.49,146.45
             337.49,145.57 338.04,144.98 338.88,144.98
             339.80,144.98 340.23,145.36 340.23,146.07
             340.23,147.00 339.51,147.46 337.70,147.67
             332.77,148.26 329.62,150.54 329.62,154.79
             329.62,158.37 331.97,160.64 335.81,160.64
             338.84,160.64 340.94,159.50 342.04,156.94
             342.54,159.46 343.89,160.60 346.37,160.60
             347.42,160.60 348.65,160.43 349.53,160.22
             349.53,160.22 349.53,154.11 349.53,154.11
             349.53,154.11 348.81,154.11 348.81,154.11
             348.10,154.11 347.76,153.69 347.76,152.89
             347.76,152.89 347.76,146.96 347.76,146.96
             347.76,141.70 344.98,138.75 339.22,138.75
             333.95,138.75 330.33,141.82 330.33,146.45
             330.33,146.45 330.33,146.96 330.33,146.96
             330.33,146.96 337.49,146.96 337.49,146.96 Z
           M 340.14,153.40
           C 340.14,154.24 339.55,154.79 338.75,154.79
             337.87,154.79 337.32,154.33 337.32,153.44
             337.32,152.64 337.87,152.09 338.75,151.97
             339.30,151.88 339.80,151.72 340.14,151.55
             340.14,151.55 340.14,153.40 340.14,153.40 Z
           M 296.78,128.65
           C 296.78,128.65 296.78,160.22 296.78,160.22
             296.78,160.22 304.99,160.22 304.99,160.22
             304.99,160.22 304.99,140.39 304.99,140.39
             304.99,140.39 305.24,140.39 305.24,140.39
             305.24,140.39 308.15,160.22 308.15,160.22
             308.15,160.22 314.72,160.22 314.72,160.22
             314.72,160.22 317.62,140.39 317.62,140.39
             317.62,140.39 317.87,140.39 317.87,140.39
             317.87,140.39 317.87,160.22 317.87,160.22
             317.87,160.22 326.38,160.22 326.38,160.22
             326.38,160.22 326.38,128.65 326.38,128.65
             326.38,128.65 314.34,128.65 314.34,128.65
             314.34,128.65 311.73,148.01 311.73,148.01
             311.73,148.01 311.47,148.01 311.47,148.01
             311.47,148.01 308.86,128.65 308.86,128.65
             308.86,128.65 296.78,128.65 296.78,128.65 Z
           M 272.03,139.17
           C 272.03,139.17 272.03,160.22 272.03,160.22
             272.03,160.22 280.24,160.22 280.24,160.22
             280.24,160.22 280.24,149.40 280.24,149.40
             280.24,147.46 281.46,146.20 283.35,146.20
             283.35,146.20 284.91,146.20 284.91,146.20
             284.91,146.20 284.91,138.79 284.91,138.79
             284.91,138.79 283.90,138.79 283.90,138.79
             281.67,138.79 279.86,140.18 278.98,142.75
             278.98,142.75 278.98,139.17 278.98,139.17
             278.98,139.17 272.03,139.17 272.03,139.17 Z
           M 268.83,151.63
           C 268.83,151.63 268.83,148.64 268.83,148.64
             268.83,143.04 266.05,138.75 259.61,138.75
             253.59,138.75 250.05,142.79 250.05,149.19
             250.05,149.19 250.05,150.20 250.05,150.20
             250.05,156.77 253.04,160.64 259.53,160.64
             264.75,160.64 268.24,157.90 268.83,152.94
             268.83,152.94 261.08,152.94 261.08,152.94
             261.04,153.86 260.45,154.41 259.48,154.41
             258.60,154.41 258.01,153.90 258.01,152.64
             258.01,152.64 258.01,151.63 258.01,151.63
             258.01,151.63 268.83,151.63 268.83,151.63 Z
           M 258.01,146.79
           C 258.01,145.70 258.52,144.98 259.48,144.98
             260.49,144.98 260.96,145.70 260.96,146.79
             260.96,146.79 260.96,147.46 260.96,147.46
             260.96,147.46 258.01,147.46 258.01,147.46
             258.01,147.46 258.01,146.79 258.01,146.79 Z
           M 246.86,160.22
           C 246.86,160.22 246.86,128.65 246.86,128.65
             246.86,128.65 238.69,128.65 238.69,128.65
             238.69,128.65 238.69,141.06 238.69,141.06
             238.10,139.63 236.71,138.75 234.86,138.75
             230.52,138.75 227.53,141.86 227.53,148.10
             227.53,148.10 227.53,151.84 227.53,151.84
             227.53,157.57 229.81,160.64 234.52,160.64
             236.96,160.64 238.94,159.46 239.87,156.98
             239.87,156.98 239.87,160.22 239.87,160.22
             239.87,160.22 246.86,160.22 246.86,160.22 Z
           M 238.86,151.50
           C 238.86,152.77 238.23,153.61 237.22,153.61
             236.20,153.61 235.57,152.81 235.57,151.50
             235.57,151.50 235.57,147.88 235.57,147.88
             235.57,146.66 236.16,145.78 237.22,145.78
             238.27,145.78 238.86,146.58 238.86,147.88
             238.86,147.88 238.86,151.50 238.86,151.50 Z
           M 202.65,139.17
           C 202.65,139.17 202.65,145.65 202.65,145.65
             202.65,145.65 205.14,145.65 205.14,145.65
             205.14,145.65 205.14,152.30 205.14,152.30
             205.14,157.57 207.37,160.64 213.14,160.64
             214.36,160.64 215.58,160.47 216.55,160.22
             216.55,160.22 216.55,153.48 216.55,153.48
             216.17,153.53 215.79,153.57 215.37,153.57
             213.98,153.57 213.30,152.94 213.30,151.34
             213.30,151.34 213.30,145.65 213.30,145.65
             213.30,145.65 216.25,145.65 216.25,145.65
             216.25,145.65 216.25,139.17 216.25,139.17
             216.25,139.17 213.30,139.17 213.30,139.17
             213.30,139.17 213.30,133.61 213.30,133.61
             213.30,133.61 205.85,133.61 205.85,133.61
             205.85,133.61 205.85,136.14 205.85,136.14
             205.85,138.20 204.93,139.17 203.24,139.17
             203.24,139.17 202.65,139.17 202.65,139.17 Z
           M 180.93,128.65
           C 180.93,128.65 180.93,160.22 180.93,160.22
             180.93,160.22 189.10,160.22 189.10,160.22
             189.10,160.22 189.10,147.88 189.10,147.88
             189.10,146.83 189.73,146.12 190.78,146.12
             191.96,146.12 192.47,146.83 192.47,147.88
             192.47,147.88 192.47,160.22 192.47,160.22
             192.47,160.22 200.63,160.22 200.63,160.22
             200.63,160.22 200.63,147.13 200.63,147.13
             200.63,141.70 198.53,138.75 194.02,138.75
             191.92,138.75 190.28,139.72 189.10,141.40
             189.10,141.40 189.10,128.65 189.10,128.65
             189.10,128.65 180.93,128.65 180.93,128.65 Z
           M 177.73,148.47
           C 177.73,148.47 177.73,147.59 177.73,147.59
             177.73,142.62 174.83,138.75 168.72,138.75
             162.54,138.75 159.21,143.17 159.21,149.19
             159.21,149.19 159.21,150.20 159.21,150.20
             159.21,156.81 162.49,160.64 168.43,160.64
             174.79,160.64 177.73,156.56 177.73,151.80
             177.73,151.80 177.73,150.92 177.73,150.92
             177.73,150.92 169.99,150.92 169.99,150.92
             169.99,150.92 169.99,151.80 169.99,151.80
             169.99,152.98 169.52,153.61 168.60,153.61
             167.63,153.61 167.21,153.02 167.21,151.38
             167.21,151.38 167.21,148.01 167.21,148.01
             167.21,146.41 167.67,145.78 168.60,145.78
             169.52,145.78 169.99,146.41 169.99,147.59
             169.99,147.59 169.99,148.47 169.99,148.47
             169.99,148.47 177.73,148.47 177.73,148.47 Z
           M 148.01,139.17
           C 148.01,139.17 148.01,160.22 148.01,160.22
             148.01,160.22 156.01,160.22 156.01,160.22
             156.01,160.22 156.01,139.17 156.01,139.17
             156.01,139.17 148.01,139.17 148.01,139.17 Z
           M 152.01,127.64
           C 149.32,127.64 147.51,129.32 147.51,131.93
             147.51,134.54 149.32,136.22 152.01,136.22
             154.75,136.22 156.52,134.54 156.52,131.93
             156.52,129.32 154.75,127.64 152.01,127.64 Z
           M 144.64,145.91
           C 144.64,145.91 144.64,145.49 144.64,145.49
             144.64,141.57 141.36,138.75 135.76,138.75
             130.08,138.75 126.75,141.40 126.75,145.82
             126.75,149.91 129.20,152.22 135.51,152.43
             136.73,152.47 137.19,152.98 137.19,153.82
             137.19,154.66 136.69,155.13 135.80,155.13
             134.92,155.13 134.37,154.70 134.37,153.90
             134.37,153.90 134.37,153.48 134.37,153.48
             134.37,153.48 126.42,153.48 126.42,153.48
             126.42,153.48 126.42,153.90 126.42,153.90
             126.42,157.95 129.49,160.64 135.72,160.64
             141.61,160.64 145.02,158.07 145.02,153.48
             145.02,149.23 142.58,147.17 135.97,146.83
             134.96,146.79 134.37,146.41 134.37,145.53
             134.37,144.77 134.88,144.31 135.59,144.31
             136.44,144.31 136.90,144.77 136.90,145.49
             136.90,145.49 136.90,145.91 136.90,145.91
             136.90,145.91 144.64,145.91 144.64,145.91 Z
           M 111.60,139.17
           C 111.60,139.17 111.60,160.22 111.60,160.22
             111.60,160.22 119.81,160.22 119.81,160.22
             119.81,160.22 119.81,149.40 119.81,149.40
             119.81,147.46 121.03,146.20 122.92,146.20
             122.92,146.20 124.48,146.20 124.48,146.20
             124.48,146.20 124.48,138.79 124.48,138.79
             124.48,138.79 123.47,138.79 123.47,138.79
             121.24,138.79 119.43,140.18 118.54,142.75
             118.54,142.75 118.54,139.17 118.54,139.17
             118.54,139.17 111.60,139.17 111.60,139.17 Z
           M 108.40,151.63
           C 108.40,151.63 108.40,148.64 108.40,148.64
             108.40,143.04 105.62,138.75 99.18,138.75
             93.16,138.75 89.62,142.79 89.62,149.19
             89.62,149.19 89.62,150.20 89.62,150.20
             89.62,156.77 92.61,160.64 99.10,160.64
             104.32,160.64 107.81,157.90 108.40,152.94
             108.40,152.94 100.65,152.94 100.65,152.94
             100.61,153.86 100.02,154.41 99.05,154.41
             98.17,154.41 97.58,153.90 97.58,152.64
             97.58,152.64 97.58,151.63 97.58,151.63
             97.58,151.63 108.40,151.63 108.40,151.63 Z
           M 97.58,146.79
           C 97.58,145.70 98.09,144.98 99.05,144.98
             100.06,144.98 100.53,145.70 100.53,146.79
             100.53,146.79 100.53,147.46 100.53,147.46
             100.53,147.46 97.58,147.46 97.58,147.46
             97.58,147.46 97.58,146.79 97.58,146.79 Z
           M 67.52,128.65
           C 67.52,128.65 67.52,160.22 67.52,160.22
             67.52,160.22 74.51,160.22 74.51,160.22
             74.51,160.22 74.51,157.40 74.51,157.40
             75.69,159.76 77.42,160.64 79.77,160.64
             84.36,160.64 86.85,157.27 86.85,151.63
             86.85,151.63 86.85,147.76 86.85,147.76
             86.85,141.53 84.07,138.75 79.77,138.75
             78.13,138.75 76.66,139.55 75.69,141.02
             75.69,141.02 75.69,128.65 75.69,128.65
             75.69,128.65 67.52,128.65 67.52,128.65 Z
           M 75.52,147.88
           C 75.52,146.66 76.11,145.78 77.16,145.78
             78.22,145.78 78.81,146.58 78.81,147.88
             78.81,147.88 78.81,151.50 78.81,151.50
             78.81,152.77 78.17,153.61 77.16,153.61
             76.15,153.61 75.52,152.81 75.52,151.50
             75.52,151.50 75.52,147.88 75.52,147.88 Z
           M 42.31,128.65
           C 42.31,128.65 42.31,149.44 42.31,149.44
             42.31,156.77 46.05,160.77 53.08,160.77
             60.11,160.77 63.86,156.60 63.86,149.44
             63.86,149.44 63.86,128.65 63.86,128.65
             63.86,128.65 54.94,128.65 54.94,128.65
             54.94,128.65 54.94,150.58 54.94,150.58
             54.94,152.39 54.22,153.15 53.08,153.15
             51.95,153.15 51.23,152.39 51.23,150.58
             51.23,150.58 51.23,128.65 51.23,128.65
             51.23,128.65 42.31,128.65 42.31,128.65 Z
           M 48.07,116.48
           C 45.59,116.48 43.82,118.33 43.82,120.86
             43.82,123.34 45.55,125.24 48.07,125.24
             50.64,125.24 52.41,123.34 52.41,120.86
             52.41,118.33 50.64,116.48 48.07,116.48
             48.07,116.48 48.07,116.48 48.07,116.48 Z
           M 58.05,116.48
           C 55.57,116.48 53.80,118.33 53.80,120.86
             53.80,123.34 55.53,125.24 58.05,125.24
             60.62,125.24 62.39,123.34 62.39,120.86
             62.39,118.33 60.62,116.48 58.05,116.48 Z
           M 857.76,60.43
           C 857.76,60.43 857.76,57.99 857.76,57.99
             857.76,48.08 851.77,42.31 840.09,42.31
             828.77,42.31 822.34,49.26 822.34,59.17
             822.34,59.17 822.34,61.02 822.34,61.02
             822.34,70.12 827.88,76.78 839.79,77.66
             842.68,77.89 844.01,79.44 844.01,81.95
             844.01,81.95 844.01,83.88 844.01,83.88
             844.01,85.87 842.90,87.20 840.75,87.20
             838.76,87.20 837.57,85.87 837.57,83.14
             837.57,83.14 837.57,80.62 837.57,80.62
             837.57,80.62 821.82,80.62 821.82,80.62
             821.82,80.62 821.82,83.06 821.82,83.06
             821.82,93.12 828.03,99.70 840.75,99.70
             853.33,99.70 859.10,92.01 859.10,83.14
             859.10,83.14 859.10,81.29 859.10,81.29
             859.10,71.23 853.62,64.87 841.35,63.91
             838.53,63.68 837.28,62.43 837.28,59.77
             837.28,59.77 837.28,57.84 837.28,57.84
             837.28,55.92 838.24,54.81 840.09,54.81
             842.08,54.81 842.97,55.99 842.97,57.92
             842.97,57.92 842.97,60.43 842.97,60.43
             842.97,60.43 857.76,60.43 857.76,60.43 Z
           M 782.40,43.27
           C 782.40,43.27 782.40,56.81 782.40,56.81
             782.40,56.81 792.75,56.81 792.75,56.81
             792.75,56.81 792.75,98.74 792.75,98.74
             792.75,98.74 808.65,98.74 808.65,98.74
             808.65,98.74 808.65,56.81 808.65,56.81
             808.65,56.81 819.01,56.81 819.01,56.81
             819.01,56.81 819.01,43.27 819.01,43.27
             819.01,43.27 782.40,43.27 782.40,43.27 Z
           M 778.70,65.98
           C 778.70,65.98 778.70,63.46 778.70,63.46
             778.70,49.48 772.12,42.31 760.14,42.31
             748.53,42.31 740.54,49.56 740.54,64.94
             740.54,64.94 740.54,77.07 740.54,77.07
             740.54,92.31 747.86,99.70 759.99,99.70
             771.97,99.70 778.85,92.38 778.85,78.55
             778.85,78.55 778.85,75.30 778.85,75.30
             778.85,75.30 763.69,75.30 763.69,75.30
             763.69,75.30 763.69,79.66 763.69,79.66
             763.69,83.73 762.87,85.95 760.06,85.95
             757.40,85.95 756.44,83.73 756.44,79.66
             756.44,79.66 756.44,62.35 756.44,62.35
             756.44,58.29 757.25,56.07 760.06,56.07
             762.73,56.07 763.69,58.29 763.69,62.35
             763.69,62.35 763.69,65.98 763.69,65.98
             763.69,65.98 778.70,65.98 778.70,65.98 Z
           M 708.07,43.12
           C 708.07,43.12 695.05,98.74 695.05,98.74
             695.05,98.74 710.95,98.74 710.95,98.74
             710.95,98.74 712.14,90.38 712.14,90.38
             712.14,90.38 721.23,90.38 721.23,90.38
             721.23,90.38 722.42,98.74 722.42,98.74
             722.42,98.74 738.84,98.74 738.84,98.74
             738.84,98.74 725.82,43.12 725.82,43.12
             725.82,43.12 708.07,43.12 708.07,43.12 Z
           M 716.50,58.95
           C 716.50,58.95 716.94,58.95 716.94,58.95
             716.94,58.95 719.53,77.96 719.53,77.96
             719.53,77.96 713.84,77.96 713.84,77.96
             713.84,77.96 716.50,58.95 716.50,58.95 Z
           M 664.06,43.27
           C 664.06,43.27 664.06,98.74 664.06,98.74
             664.06,98.74 679.96,98.74 679.96,98.74
             679.96,98.74 679.96,79.59 679.96,79.59
             679.96,79.59 692.68,79.59 692.68,79.59
             692.68,79.59 692.68,66.27 692.68,66.27
             692.68,66.27 679.96,66.27 679.96,66.27
             679.96,66.27 679.96,56.73 679.96,56.73
             679.96,56.73 694.83,56.73 694.83,56.73
             694.83,56.73 694.83,43.27 694.83,43.27
             694.83,43.27 664.06,43.27 664.06,43.27 Z
           M 626.42,43.27
           C 626.42,43.27 626.42,98.74 626.42,98.74
             626.42,98.74 658.29,98.74 658.29,98.74
             658.29,98.74 658.29,85.65 658.29,85.65
             658.29,85.65 642.32,85.65 642.32,85.65
             642.32,85.65 642.32,76.85 642.32,76.85
             642.32,76.85 655.78,76.85 655.78,76.85
             655.78,76.85 655.78,64.87 655.78,64.87
             655.78,64.87 642.32,64.87 642.32,64.87
             642.32,64.87 642.32,56.36 642.32,56.36
             642.32,56.36 657.55,56.36 657.55,56.36
             657.55,56.36 657.55,43.27 657.55,43.27
             657.55,43.27 626.42,43.27 626.42,43.27 Z
           M 580.04,43.27
           C 580.04,43.27 580.04,98.74 580.04,98.74
             580.04,98.74 595.94,98.74 595.94,98.74
             595.94,98.74 595.94,77.81 595.94,77.81
             595.94,77.81 603.34,77.81 603.34,77.81
             603.34,77.81 603.34,98.74 603.34,98.74
             603.34,98.74 619.17,98.74 619.17,98.74
             619.17,98.74 619.17,43.27 619.17,43.27
             619.17,43.27 603.34,43.27 603.34,43.27
             603.34,43.27 603.34,64.13 603.34,64.13
             603.34,64.13 595.94,64.13 595.94,64.13
             595.94,64.13 595.94,43.27 595.94,43.27
             595.94,43.27 580.04,43.27 580.04,43.27 Z
           M 539.14,43.27
           C 539.14,43.27 539.14,56.81 539.14,56.81
             539.14,56.81 549.50,56.81 549.50,56.81
             549.50,56.81 549.50,98.74 549.50,98.74
             549.50,98.74 565.40,98.74 565.40,98.74
             565.40,98.74 565.40,56.81 565.40,56.81
             565.40,56.81 575.75,56.81 575.75,56.81
             575.75,56.81 575.75,43.27 575.75,43.27
             575.75,43.27 539.14,43.27 539.14,43.27 Z
           M 510.37,43.12
           C 510.37,43.12 497.36,98.74 497.36,98.74
             497.36,98.74 513.26,98.74 513.26,98.74
             513.26,98.74 514.44,90.38 514.44,90.38
             514.44,90.38 523.54,90.38 523.54,90.38
             523.54,90.38 524.72,98.74 524.72,98.74
             524.72,98.74 541.14,98.74 541.14,98.74
             541.14,98.74 528.12,43.12 528.12,43.12
             528.12,43.12 510.37,43.12 510.37,43.12 Z
           M 518.80,58.95
           C 518.80,58.95 519.25,58.95 519.25,58.95
             519.25,58.95 521.84,77.96 521.84,77.96
             521.84,77.96 516.14,77.96 516.14,77.96
             516.14,77.96 518.80,58.95 518.80,58.95 Z
           M 440.70,43.27
           C 440.70,43.27 440.70,98.74 440.70,98.74
             440.70,98.74 455.12,98.74 455.12,98.74
             455.12,98.74 455.12,63.91 455.12,63.91
             455.12,63.91 455.57,63.91 455.57,63.91
             455.57,63.91 460.67,98.74 460.67,98.74
             460.67,98.74 472.21,98.74 472.21,98.74
             472.21,98.74 477.31,63.91 477.31,63.91
             477.31,63.91 477.76,63.91 477.76,63.91
             477.76,63.91 477.76,98.74 477.76,98.74
             477.76,98.74 492.70,98.74 492.70,98.74
             492.70,98.74 492.70,43.27 492.70,43.27
             492.70,43.27 471.54,43.27 471.54,43.27
             471.54,43.27 466.96,77.29 466.96,77.29
             466.96,77.29 466.51,77.29 466.51,77.29
             466.51,77.29 461.93,43.27 461.93,43.27
             461.93,43.27 440.70,43.27 440.70,43.27 Z
           M 417.33,60.43
           C 417.33,60.43 417.33,57.99 417.33,57.99
             417.33,48.08 411.34,42.31 399.65,42.31
             388.34,42.31 381.90,49.26 381.90,59.17
             381.90,59.17 381.90,61.02 381.90,61.02
             381.90,70.12 387.45,76.78 399.36,77.66
             402.24,77.89 403.57,79.44 403.57,81.95
             403.57,81.95 403.57,83.88 403.57,83.88
             403.57,85.87 402.46,87.20 400.32,87.20
             398.32,87.20 397.14,85.87 397.14,83.14
             397.14,83.14 397.14,80.62 397.14,80.62
             397.14,80.62 381.39,80.62 381.39,80.62
             381.39,80.62 381.39,83.06 381.39,83.06
             381.39,93.12 387.60,99.70 400.32,99.70
             412.89,99.70 418.66,92.01 418.66,83.14
             418.66,83.14 418.66,81.29 418.66,81.29
             418.66,71.23 413.19,64.87 400.91,63.91
             398.10,63.68 396.84,62.43 396.84,59.77
             396.84,59.77 396.84,57.84 396.84,57.84
             396.84,55.92 397.81,54.81 399.65,54.81
             401.65,54.81 402.54,55.99 402.54,57.92
             402.54,57.92 402.54,60.43 402.54,60.43
             402.54,60.43 417.33,60.43 417.33,60.43 Z
           M 356.09,42.31
           C 344.63,42.31 336.57,49.41 336.57,63.98
             336.57,63.98 336.57,78.03 336.57,78.03
             336.57,92.38 344.11,99.70 356.09,99.70
             367.56,99.70 375.62,92.60 375.62,78.03
             375.62,78.03 375.62,63.98 375.62,63.98
             375.62,49.63 368.07,42.31 356.09,42.31 Z
           M 356.09,56.07
           C 358.61,56.07 359.72,58.29 359.72,62.35
             359.72,62.35 359.72,79.66 359.72,79.66
             359.72,83.73 358.75,85.95 356.09,85.95
             353.50,85.95 352.47,83.73 352.47,79.66
             352.47,79.66 352.47,62.35 352.47,62.35
             352.47,58.29 353.43,56.07 356.09,56.07 Z
           M 301.29,43.27
           C 301.29,43.27 301.29,98.74 301.29,98.74
             301.29,98.74 332.65,98.74 332.65,98.74
             332.65,98.74 332.65,84.99 332.65,84.99
             332.65,84.99 317.19,84.99 317.19,84.99
             317.19,84.99 317.19,43.27 317.19,43.27
             317.19,43.27 301.29,43.27 301.29,43.27 Z
           M 254.69,43.27
           C 254.69,43.27 267.71,83.58 267.71,83.58
             267.71,83.58 267.71,98.74 267.71,98.74
             267.71,98.74 283.61,98.74 283.61,98.74
             283.61,98.74 283.61,83.58 283.61,83.58
             283.61,83.58 296.63,43.27 296.63,43.27
             296.63,43.27 279.84,43.27 279.84,43.27
             279.84,43.27 276.14,67.31 276.14,67.31
             276.14,67.31 275.70,67.31 275.70,67.31
             275.70,67.31 272.00,43.27 272.00,43.27
             272.00,43.27 254.69,43.27 254.69,43.27 Z
           M 216.31,43.27
           C 216.31,43.27 216.31,98.74 216.31,98.74
             216.31,98.74 235.46,98.74 235.46,98.74
             247.81,98.74 254.47,91.72 254.47,83.21
             254.47,83.21 254.47,80.62 254.47,80.62
             254.47,75.81 252.47,71.82 248.70,69.68
             251.66,67.53 253.29,64.05 253.29,59.99
             253.29,59.99 253.29,58.36 253.29,58.36
             253.29,49.71 247.74,43.27 235.76,43.27
             235.76,43.27 216.31,43.27 216.31,43.27 Z
           M 231.76,76.55
           C 231.76,76.55 235.02,76.55 235.02,76.55
             238.12,76.55 239.46,77.96 239.46,80.62
             239.46,80.62 239.46,81.66 239.46,81.66
             239.46,84.25 238.12,85.73 235.02,85.73
             235.02,85.73 231.76,85.73 231.76,85.73
             231.76,85.73 231.76,76.55 231.76,76.55 Z
           M 231.76,56.36
           C 231.76,56.36 234.43,56.36 234.43,56.36
             237.16,56.36 238.57,57.62 238.57,60.06
             238.57,60.06 238.57,61.17 238.57,61.17
             238.57,63.39 237.16,64.87 234.43,64.87
             234.43,64.87 231.76,64.87 231.76,64.87
             231.76,64.87 231.76,56.36 231.76,56.36 Z
           M 172.37,43.27
           C 172.37,43.27 172.37,98.74 172.37,98.74
             172.37,98.74 191.53,98.74 191.53,98.74
             203.88,98.74 210.54,91.72 210.54,83.21
             210.54,83.21 210.54,80.62 210.54,80.62
             210.54,75.81 208.54,71.82 204.77,69.68
             207.73,67.53 209.35,64.05 209.35,59.99
             209.35,59.99 209.35,58.36 209.35,58.36
             209.35,49.71 203.81,43.27 191.83,43.27
             191.83,43.27 172.37,43.27 172.37,43.27 Z
           M 187.83,76.55
           C 187.83,76.55 191.09,76.55 191.09,76.55
             194.19,76.55 195.52,77.96 195.52,80.62
             195.52,80.62 195.52,81.66 195.52,81.66
             195.52,84.25 194.19,85.73 191.09,85.73
             191.09,85.73 187.83,85.73 187.83,85.73
             187.83,85.73 187.83,76.55 187.83,76.55 Z
           M 187.83,56.36
           C 187.83,56.36 190.49,56.36 190.49,56.36
             193.23,56.36 194.64,57.62 194.64,60.06
             194.64,60.06 194.64,61.17 194.64,61.17
             194.64,63.39 193.23,64.87 190.49,64.87
             190.49,64.87 187.83,64.87 187.83,64.87
             187.83,64.87 187.83,56.36 187.83,56.36 Z
           M 146.34,42.31
           C 134.88,42.31 126.81,49.41 126.81,63.98
             126.81,63.98 126.81,78.03 126.81,78.03
             126.81,92.38 134.36,99.70 146.34,99.70
             157.80,99.70 165.87,92.60 165.87,78.03
             165.87,78.03 165.87,63.98 165.87,63.98
             165.87,49.63 158.32,42.31 146.34,42.31 Z
           M 146.34,56.07
           C 148.85,56.07 149.96,58.29 149.96,62.35
             149.96,62.35 149.96,79.66 149.96,79.66
             149.96,83.73 149.00,85.95 146.34,85.95
             143.75,85.95 142.72,83.73 142.72,79.66
             142.72,79.66 142.72,62.35 142.72,62.35
             142.72,58.29 143.68,56.07 146.34,56.07 Z
           M 81.18,43.27
           C 81.18,43.27 81.18,98.74 81.18,98.74
             81.18,98.74 97.08,98.74 97.08,98.74
             97.08,98.74 97.08,77.81 97.08,77.81
             97.08,77.81 104.48,77.81 104.48,77.81
             104.48,77.81 104.48,98.74 104.48,98.74
             104.48,98.74 120.31,98.74 120.31,98.74
             120.31,98.74 120.31,43.27 120.31,43.27
             120.31,43.27 104.48,43.27 104.48,43.27
             104.48,43.27 104.48,64.13 104.48,64.13
             104.48,64.13 97.08,64.13 97.08,64.13
             97.08,64.13 97.08,43.27 97.08,43.27
             97.08,43.27 81.18,43.27 81.18,43.27 Z"/>
</svg>
