<?xml version="1.0" encoding="UTF-8" standalone="no"?>
<!DOCTYPE svg PUBLIC "-//W3C//DTD SVG 1.1//EN" "http://www.w3.org/Graphics/SVG/1.1/DTD/svg11.dtd">
<svg width="100%" height="100%" viewBox="0 0 195 292" version="1.1" xmlns="http://www.w3.org/2000/svg" xmlns:xlink="http://www.w3.org/1999/xlink" xml:space="preserve" xmlns:serif="http://www.serif.com/" style="fill-rule:evenodd;clip-rule:evenodd;stroke-linejoin:round;stroke-miterlimit:2;">
    <g id="lP7mzPbzJMvSzKTqWeA50O">
    </g>
    <g id="ArtBoard1" transform="matrix(1,0,0,1,-208.62,-302.043)">
        <rect x="208.62" y="302.043" width="194.91" height="291.772" style="fill:none;"/>
        <clipPath id="_clip1">
            <rect x="208.62" y="302.043" width="194.91" height="291.772"/>
        </clipPath>
        <g clip-path="url(#_clip1)">
            <g id="l67VwdbJlhD76v5iQOgCMVD" transform="matrix(1,0,0,1,0.620212,0.0434366)">
                <g>
                    <path id="pTFSeaIvy" d="M202.7,587.3C202.3,587 202,585.1 202,583.3C202,579.9 202,579.9 206.3,580.2C210.4,580.5 210.5,580.6 210.8,584.3C211.1,588 211.1,588 207.2,588C205.1,588 203,587.7 202.7,587.3Z" style="fill:rgb(254,109,145);fill-rule:nonzero;"/>
                    <path id="p15preWlbS" d="M270.2,510.3C270.5,506.7 270.7,506.5 274.3,506.2L278,505.9L278,514L269.9,514L270.2,510.3Z" style="fill:rgb(254,109,145);fill-rule:nonzero;"/>
                    <path id="ppsaBCDo9" d="M360,400.5C360,398.2 360.3,398 365,398C369.2,398 370,398.3 370,399.9C370,401.9 367.5,403 362.8,403C360.5,403 360,402.6 360,400.5Z" style="fill:rgb(254,109,145);fill-rule:nonzero;"/>
                    <path id="pGjoVSb39" d="M338,395.8C338.1,390.9 341,388 345.9,388C349.9,388 350,388.1 350,391.3C350,395.8 346.6,399 341.7,399C338.2,399 338,398.8 338,395.8Z" style="fill:rgb(254,109,145);fill-rule:nonzero;"/>
                    <path id="p1BC53Tgbe" d="M360,395L360,387L368,387L368,395L360,395Z" style="fill:rgb(254,109,145);fill-rule:nonzero;"/>
                    <path id="p16ypXbGYA" d="M359,382C359,378.1 359.1,378 362.5,378C365.9,378 366,378.1 366,382C366,385.9 365.9,386 362.5,386C359.1,386 359,385.9 359,382Z" style="fill:rgb(254,109,145);fill-rule:nonzero;"/>
                    <path id="pDY19A4Jn" d="M257,371C257,367.1 257.1,367 260.5,367C263.9,367 264,367.1 264,371C264,374.9 263.9,375 260.5,375C257.1,375 257,374.9 257,371Z" style="fill:rgb(254,109,145);fill-rule:nonzero;"/>
                    <path id="pzUZa8kLo" d="M317.7,368.3C317.3,368 317,366.2 317,364.3C317,362.5 316.6,361 316,361C315.5,361 315,359.2 315,357L315,353L319,353C322.8,353 323,353.2 323,356C323,358.3 323.4,359 325,359C326.7,359 327,359.7 327,363.4C327,366.5 326.5,368 325.4,368.4C323.3,369.2 318.5,369.2 317.7,368.3Z" style="fill:rgb(254,109,145);fill-rule:nonzero;"/>
                    <path id="p15ewMzMun" d="M363,348C363,341.3 363.1,341 365.4,341C368.2,341 369,343.1 369,350.3C369,354.9 368.9,355 366,355L363,355L363,348Z" style="fill:rgb(254,109,145);fill-rule:nonzero;"/>
                    <path id="p1GDVuVSpx" d="M217,348C217,344.1 217.1,344 220.5,344C223.9,344 224,344.1 224,348C224,351.9 223.9,352 220.5,352C217.1,352 217,351.9 217,348Z" style="fill:rgb(254,109,145);fill-rule:nonzero;"/>
                    <path id="peMrmhOA1" d="M256.2,333C256.3,320 256.4,319 258.1,319C259.6,319 260,318.2 260,315.5C260,312.2 260.2,312 263.5,312C267,312 267,312 267,316.5C267,319.8 266.6,321 265.5,321C264.5,321 264,322.1 263.9,324.8C263.7,331.3 264.1,335.5 265.1,336.5C266.7,338.1 266.1,343.6 264.2,345.3C263.2,346.3 261,347 259.3,347L256.2,347L256.2,333Z" style="fill:rgb(254,109,145);fill-rule:nonzero;"/>
                    <path id="pNmkwXDV7" d="M359,300.8C359,299.5 358.7,295.5 358.3,291.8C357.7,285 357.7,285 360.3,285C363,285 363,285 364.6,297.8L365.2,303L362.1,303C359.6,303 359,302.6 359,300.8Z" style="fill:rgb(254,109,145);fill-rule:nonzero;"/>
                </g>
            </g>
            <g id="l4Re4UdKnHMIgM9LfQwRB7q" transform="matrix(1,0,0,1,0.620212,0.0434366)">
                <g>
                    <path id="pjFjF0Mdc" d="M114.5,587.2C111.4,585 110,573.8 112.5,571C113.8,569.5 116,561.7 117.9,551.4C118.7,547.2 118.5,538.3 117.4,526.5C116.3,515 113,514 113,525.1C113,529.9 112.6,531 110.5,532.6C108.3,534.2 108,535.2 108,540.7C108,548.8 106.6,552 102.8,552L100,552L100,542.3C100,536.9 100.4,530.8 100.9,528.8C101.4,526.6 101.4,525 100.9,525C99.7,525 99.8,451.2 101,421C102.1,394.4 105.1,368.6 113.1,318C114.2,311.1 115.7,302.8 116.5,299.5C117.2,296.2 118.1,291.9 118.5,289.9C118.9,286.8 119.4,286.3 121,286.7C123.8,287.4 123.5,285.5 120.5,283.2C118.1,281.3 116.9,279.2 119,280.5C120.6,281.5 120.2,279.3 118.5,277.6C117.7,276.8 117,275.1 117.1,273.8C117.1,272.5 117.4,272.1 117.7,272.8C118.4,274.5 119.7,274.3 120.4,272.4C121.2,270.3 120,268.4 119,270.1C118.5,270.8 118.4,268.7 118.7,265.4C119.2,259.7 116.9,244.5 115,241C113.9,239.1 113.3,241.7 112.5,251.5C111.9,258.9 108.9,278.4 103.9,308.5C102.2,318.4 100.4,329.4 99.9,333C99.4,336.6 97.4,348.6 95.5,359.7C93.6,370.8 92,380.1 92,380.4C92,380.6 91.2,381.1 90.3,381.3C88.6,381.7 88.6,381.8 90.3,381.9C91.8,382 92,382.6 91.4,385.8C89.6,396.3 87.8,403.5 86.9,404.7C84.8,407.1 69.4,406.2 44.6,402C41.3,401.5 38.2,400.6 37.7,400.1C34.6,397 49.4,256.5 61.5,174.7C68.4,128.3 81,71.8 87.3,59C90.4,52.7 90.9,52.3 101.5,45.8C107.6,42.1 119.4,35.4 127.8,30.8C139.1,24.7 146,20.1 154.3,13.2C164.7,4.5 165.7,3.9 169,4.5C186.7,7.2 208.4,7.6 219,5.2C222.7,4.4 226.9,4 228.2,4.3C229.4,4.7 234.5,8.1 239.4,12C249.8,20.2 257.1,24.5 269.5,29.5C283.1,34.9 292,39.2 291.5,40C290.8,41.1 294.1,43.6 297.2,44.4C299.8,45 299.9,45.1 298.3,47C296.2,49.4 294.4,49.6 293.6,47.5C292.9,45.6 290.6,45.6 289,47.5C287.3,49.5 286.3,49.4 285.7,47.1C285.2,45.2 278.4,42.3 277.2,43.5C276.8,43.9 277.7,45.1 279.3,46.2C280.8,47.3 282,49.1 282,50.3C282,53.6 283.1,57 284.2,57C284.7,57 285,56.2 284.8,55.3C284.6,54.3 285.2,53.4 286.3,53.2C288.7,52.7 288.4,54.3 285.4,57.9C282.4,61.5 283,63.4 287.1,62.5C288.7,62.1 290,62.2 290,62.7C289.9,64.1 286.6,67.7 284.8,68.3C282.6,69.1 282.4,74.4 284.5,78C286.4,81.3 286.4,83.9 284.4,84.7C283.3,85.1 282.1,84.5 281,83L279.3,80.7L278.5,83.1C278.1,84.4 277.9,86.3 278,87.4C278.1,88.5 277.7,89 276.8,88.8C276.1,88.5 275.6,87.2 275.8,85.8C276.1,82.9 273.5,80.1 271.9,81.7C269.8,83.8 276.3,93.9 279.8,94C281.3,94 281.4,92.8 279.9,91.3C279.1,90.5 279.1,89.6 280,88C280.9,86.3 281.4,86.1 282.6,87.1C283.4,87.7 284,88.9 284,89.6C284,90.4 285.1,92.8 286.5,95.1C287.9,97.3 289,99.6 288.9,100.3C288.8,101 289,102.3 289.5,103.3C289.9,104.3 289.7,105.6 289,106.5C288.3,107.3 288,108.6 288.3,109.4C288.6,110.2 288.2,111.4 287.4,112C285.4,113.7 285.7,116.3 288,117.8C289.4,118.6 290,119.9 289.8,121.7C289.3,126 291.6,125.4 293,120.8C295.3,113.4 296.1,114.1 295.6,123C295.2,128.8 295.3,131 296,130C296.5,129.2 297,127.1 297,125.4C297,123.7 297.7,121.7 298.5,121C299.8,119.9 300,120.2 300,122.9C300,124.7 299.5,127 299,128.1C298.2,129.6 298.3,130.4 299.4,131.5C301.5,133.7 302.7,133.3 303.5,130.3C305,124.7 304.8,119.1 303.1,118.7C301.8,118.3 301.8,118.2 303.3,118.1C305.1,118 305.9,113 304,113C303.5,113 303,112.1 303,111C303,109.9 303.7,109 304.5,109C305.4,109 306,108.1 306,106.5C306,105.1 305.6,104 305,104C303.9,104 303.7,97.5 304.6,90.6C305,87.9 305.8,86 306.5,86C307.8,86 309.6,77.3 308.6,76.3C308.3,76 307.3,76.1 306.3,76.4C304,77.3 303.5,77.2 303.4,75.7C302.6,65.7 301,62.4 298.3,65.1C296.6,66.8 295.7,64.4 297.2,62.1C298,60.7 298.9,60.4 300,61C301.3,61.7 302,60.9 303.5,56.4L305.3,51L303,48.5C300.1,45.4 301,44.2 304.7,46.1C309,48.3 316.5,56.1 315.1,56.9C313.7,57.8 314.7,61 316.5,61C317.2,61 318,61.7 318.4,62.5C318.7,63.3 318.5,64 318,64C317.4,64 317,64.5 317,65C317,65.6 317.7,66 318.5,66C319.4,66 320.8,68.8 322.4,74L325,81.9L322.5,84.6C318.9,88.5 319.1,90.2 323,87.8C324.3,87 325.3,86.9 325.9,87.5C327.1,88.9 335.7,125.3 341.6,154.5C344.4,168.7 344.4,169 342.5,169C340.2,169 340.7,170.9 343.3,171.9C345.4,172.7 345.9,174.4 348.9,191.1C351.3,203.9 351.9,209.5 351.1,209.8C349.4,210.4 349.8,214 351.5,214C352.3,214 353,214.5 353,215C353,215.6 352.6,216 352,216C351.5,216 351,216.7 351,217.5C351,218.3 351.7,219 352.5,219C353.3,219 354,219.7 354,220.5C354,221.3 353.6,222 353,222C352.5,222 352,222.9 352,224C352,225.1 352.7,226 353.5,226C354.3,226 355,226.5 355,227C355,227.6 354.6,228 354,228C353.5,228 353,228.5 353,229C353,229.6 353.7,230 354.5,230C356.3,230 356.6,234.6 354.8,235.3C353.9,235.7 354.1,235.9 355.1,235.9C356.4,236 357.1,239.1 359,252.7C360.6,264.7 360.9,269.5 360.1,269.8C358.5,270.3 358.7,273 360.4,273C362.2,273 363.9,287.2 362.1,287.8C360.5,288.3 360.8,291 362.5,291C363.5,291 364,292 364,294C364,295.7 363.6,297 363,297C362.5,297 362,297.7 362,298.5C362,299.3 362.7,300 363.5,300C364.4,300 365,300.9 365,302.3C365,303.5 365.7,311.3 366.5,319.5C368.2,337.2 368.4,344 367,344C366.5,344 366,345.8 366,348C366,350.7 366.4,352 367.4,352C369.4,352 369.9,356.9 370.7,380.9L371.3,402.3L367.5,401.6C364.9,401.1 363.5,401.2 363,402.1C362.4,402.9 356.1,403.4 341.8,403.8L321.3,404.3L320.7,401.9C319.8,398.2 315.5,371 311.5,345C301.2,276.6 295.5,243.3 293.3,239.8C292.4,238.2 291.2,239.1 290.7,242C290.3,243.8 289.4,245 288.5,245C286.7,245 286.5,246.6 288.3,247.3C289,247.6 288.8,247.9 287.8,247.9C286,248 283.5,254.9 284.3,257.3C284.5,258 285,257 285.4,255.3C285.8,253.5 286.7,252 287.4,252C288.3,252 288.6,254.8 288.6,262.5C288.5,270.2 288.2,273 287.3,273C286.6,273 286,273.6 286,274.4C286,275.2 285.7,276.5 285.4,277.4C285.1,278.3 285.3,279 285.9,279C286.5,279 287,277.9 287,276.5C287,275 287.6,274 288.4,274C289.9,274 292,281.5 292,286.8C292,288.3 292.9,292.3 294,295.7C295.2,299.5 296.5,309 297.5,320.2C298.3,330.3 299.9,346.6 301,356.5C306.2,402.9 311.8,503.2 312.3,556.5L312.5,585.5L298,586.7C290,587.3 279.2,587.9 274,587.9L264.5,588L264.3,555.5C264.2,536.6 264.5,522.8 265.1,522.5C266.6,521.5 266.1,519 264.5,519C263.5,519 263,518 263,515.7C263,513.1 262.4,512.1 260.5,511.2C257.3,509.7 256,509.7 256,511C256,511.6 256.6,512 257.4,512C258.6,512 258.8,515.3 258.9,530.6C258.9,540.8 258.5,550.3 257.9,551.7C257.2,553.6 257.3,554.5 258.1,555.1C259,555.6 259.1,558.3 258.7,564.9C258.1,573.6 258.1,574 260.1,574C261.9,574 262.1,574.5 261.8,579.8L261.5,585.5L257.8,585.8C255.7,586 254,586.5 254,587.1C254,588.2 116,588.3 114.5,587.2ZM227.1,550C226.9,522.6 226.4,502 225.5,489.7C224.9,482.3 225.1,480.9 226.4,480.4C227.4,480 228,478.6 228,476.6C228,473.5 227.9,473.4 224.5,473.8L221,474.2L221,482.4C221,491 223.4,545.2 224.6,563.3C225.8,582.2 227.2,574.8 227.1,550ZM176,571C176,570.6 174.9,570 173.5,569.8C171.2,569.3 170.1,570.7 171.6,572.2C172.3,573 176,572 176,571ZM171,559C170.4,558 170.1,559.1 170.1,562.5C170.2,567.3 170.2,567.4 171,564C171.5,562.1 171.4,559.9 171,559ZM133,507.5C133,485.5 132.8,453.1 132.5,435.5C132.3,417.9 132.1,401.5 132,399.1C132,396.7 131.7,394.9 131.4,395.2C131.1,395.5 130.9,415.8 131,440.2C131,464.5 130.5,497.1 129.9,512.5C129.2,529.3 129.1,545.3 129.5,552.5L130.3,564.5L131.6,556C132.5,550.1 133,535.2 133,507.5ZM200.7,543.1C199.4,537.9 197.8,533.4 197.2,533.2C195.7,532.7 195.6,536.3 197,539C197.6,540.1 198.5,541.9 199,543C199.6,544.1 200,547 200,549.5C200,552 200.6,554.7 201.3,555.4C203.4,557.8 203.2,553.3 200.7,543.1ZM169.8,540.5C169.6,531.3 169.2,528 168.3,528C167.4,528 167,526.1 167,522.1C167,518.8 166.6,515.9 166.1,515.5C165.5,515.2 165.2,509.8 165.3,503.4L165.5,491.9L162.3,489.9C160.5,488.8 158.1,486.7 157,485.3C153.6,480.9 153.6,480.9 156.6,507.8C157.1,511.6 157.4,512 159.9,512C162.4,512 162.9,512.5 163.8,516.3C164.4,518.6 165.1,523 165.4,526.1C165.7,529.2 166.7,533.6 167.5,536C168.3,538.3 169,543.1 169,546.6C169,550.1 169.2,553 169.5,553C169.8,553 169.9,547.4 169.8,540.5ZM291,536.3C290.6,532.1 290.5,531.9 290.2,534.8C289.9,537.8 290.4,541 291.2,541C291.4,541 291.3,538.9 291,536.3ZM303.2,536.3C302.6,529.8 302.2,529.3 302.1,534.8C302.1,537.6 302.4,540 302.8,540C303.2,540 303.4,538.3 303.2,536.3ZM245.2,502.6C244.9,498.7 245.1,498 247.5,496.4C250.3,494.6 251.5,492.3 252.9,486C253.7,482.5 253.6,482.4 251.3,482.8C250,483 248.7,483.6 248.4,484.1C248.1,484.6 246.1,485 243.9,485L240,485L240,480.5C240,478 240.5,476 241,476C241.6,476 242,475.2 242,474.2C242,471.5 244,470 247.7,470C249.5,470 251,469.6 251,469C251,468.5 250.3,468 249.5,468C248.7,468 248,467.6 248,467.1C248,466.6 247.4,465.5 246.7,464.8C243.6,461.7 242,458.3 242,455C241.9,453.1 241.2,449.7 240.4,447.5C239.5,445.3 238.2,441.3 237.5,438.5C235.6,431.1 235.1,429.6 231.3,421.7C226.4,411.6 222,397.6 222,392.4L222,388L229.8,388L230.5,378.6C231.2,368.5 230.5,363.3 228.8,366.3C227.6,368.6 222.4,368.5 219.9,366.1C217.9,364.3 215.3,356.2 214.3,348.8C213.8,345.3 213.6,345 210.4,345C207.2,345 207,344.8 207,341.5C207,339.3 207.5,338 208.3,338C209.2,338 209.5,336.3 209.5,332.3C209.5,326.5 209.5,326.5 212.6,326.2C214.4,326 216.6,325 217.6,323.9C218.8,322.6 220.6,322 223.6,322C227.6,322 228,321.8 228.8,318.8C230,314 229.1,310 226.9,310C225.4,310 225,310.7 225,313.5C225,315.4 224.6,317 224.1,317C223.6,317 222.5,317.7 221.7,318.5C220.8,319.3 216.4,320.7 211.8,321.6C207.3,322.5 202.8,323.9 201.9,324.6C201.1,325.4 198.9,326 197.2,326C194.8,326 194.2,326.4 194.6,327.5C195,328.4 196.5,329 198.6,329C201.8,329 202,329.2 202,332.5C202,335 201.6,336 200.4,336C199.3,336 199,336.5 199.4,337.7C199.8,338.6 200.4,342.9 200.7,347.2C201.1,351.9 201.8,355.5 202.6,356.1C204.3,357.5 204.4,361.1 202.9,366.3C202.1,369.4 202.3,371.6 204,378.3C206.7,388.7 214.6,413.2 217,418.5C218,420.7 219,424.1 219.4,426C219.7,427.9 221.3,432.7 223,436.5C229.5,451.9 233,462 233.7,466.6C234.1,469.8 235.1,472.4 236.7,473.9C238.3,475.5 239,477.4 239,480.1C239,483.5 238.7,483.9 236.3,484.2L233.5,484.5L235.8,486.8C237.1,488.1 238,490.2 238,492C238,494.5 238.4,495 240.4,495C243.1,495 244.3,497.3 243.9,501.8C243.6,504 244.5,507 245.3,507C245.4,507 245.4,505 245.2,502.6ZM287.6,478.8C286.7,473.4 286,464.7 286,459.5C286,454.3 285.6,449.8 285,449.5C284.5,449.2 284,446.6 284,443.7C284,438 281.1,412.8 280.3,412C279.7,411.4 280.9,485.4 281.6,489.8C282,492.4 282.6,493 284.5,493C285.8,493 287.2,493.6 287.7,494.3C289.2,496.6 289.2,488.9 287.6,478.8ZM267.5,458.8C267.2,442.8 266.8,429.5 266.6,429.2C266.3,429 265.4,430 264.5,431.4C263.2,433.3 262.7,436.9 262.3,444.7C261.7,460.6 261.4,462 258.5,462C257,462 256,462.6 256,463.4C256,464.2 255.7,465.5 255.4,466.4C254.9,467.6 255.4,468 257.4,468C259.7,468 260,468.4 260,471.5C260,474.7 259.8,475 257,475C254.3,475 254,475.3 254.1,478.3C254.1,480 254.4,480.9 254.7,480.3C255,479.5 257,479 259.5,479C263.7,479 263.8,479.1 265,483.5C265.7,486 266.6,488 267.1,488C267.6,488 267.7,474.9 267.5,458.8ZM170.5,483C170.8,482.4 170.3,481.7 169.3,481.3C168.3,481 166.7,480 165.7,479.2C163,476.8 162.4,478.7 165,481.5C167.5,484.1 169.5,484.7 170.5,483ZM169.1,476.8C169.2,476.1 169.1,475.1 169,474.5C168.9,474 168.7,472.6 168.6,471.5C168.5,470.1 167.7,469.4 165.7,469.2C163.1,468.9 163,469.1 163.6,471.7C164,473.2 164.7,475.3 165.2,476.3C166.2,478.3 168.9,478.6 169.1,476.8ZM111.7,464.8C111.5,463 111.3,464.2 111.3,467.5C111.3,470.8 111.5,472.3 111.7,470.8C111.9,469.3 111.9,466.6 111.7,464.8ZM171,467.9C171,466.8 170.6,466.2 170,466.5C169.5,466.8 169,467.8 169,468.6C169,469.4 169.5,470 170,470C170.6,470 171,469.1 171,467.9ZM168,467.2C168,466.7 166.9,465.3 165.5,464C162.9,461.6 162.2,462.6 164,466.1C165.1,468 168,468.8 168,467.2ZM152.8,450.8L152.7,438.5L152,450C151.4,460.7 151.5,463 152.6,463C152.8,463 152.9,457.5 152.8,450.8ZM215.9,445.8C215.9,445.1 215.5,443.6 215,442.5C214.3,440.9 214.1,440.8 214.1,442.2C214,443.1 213.7,444.5 213.4,445.4C213,446.5 213.3,447 214.4,447C215.3,447 216,446.4 215.9,445.8ZM155.1,423C156.7,423 157,422.3 157,418.7C157,416.3 157.5,413.9 158.2,413.2C159.1,412.3 159.1,411.4 158.2,409.5C157.5,408.1 157,406.1 157,405.1C157,404 156.4,403 155.6,402.7C154.8,402.4 153.9,399.6 153.4,395.8C152.6,390.5 152.4,392.6 152,410C151.7,421.3 151.7,431 152,431.5C152.3,432.1 152.6,430.4 152.8,427.8C153.1,423.8 153.4,423 155.1,423ZM145,409C145,407.9 144.3,407 143.5,407C142.2,407 142.1,407.4 143,409C143.6,410.1 144.3,411 144.5,411C144.8,411 145,410.1 145,409ZM143.4,401.4C144.3,399 144.1,398.6 142.5,400C140.8,401.4 140.5,403 141.9,403C142.4,403 143.1,402.3 143.4,401.4ZM345,393.5C346.6,391.8 346.9,391 345.9,391C344.4,391.1 340.3,396 341.8,396C342.3,396 343.7,394.9 345,393.5ZM324,363.4C324,361.8 321.4,361.5 320.5,363C320.2,363.6 320.1,364.4 320.5,365C321.3,366.3 324,365.1 324,363.4ZM146.8,363.1C147.1,362.3 146.7,361.9 145.9,362.2C145.2,362.4 144.4,363.2 144.2,363.9C143.9,364.7 144.3,365.1 145.1,364.8C145.8,364.6 146.6,363.8 146.8,363.1ZM126,351.8C126,350.8 125.3,350 124.5,350C123.4,350 123,351.1 123,353.8C123.1,357.3 123.2,357.4 124.5,355.6C125.3,354.5 126,352.8 126,351.8ZM261.9,339.3C260,337.1 259,337.8 259,341.2C259,344.2 259,344.3 261,342.5C262.5,341.1 262.7,340.4 261.9,339.3ZM144,341.5C144,340.7 143.6,340 143.1,340C141.8,340 140.9,341.6 141.7,342.4C142.8,343.5 144,343 144,341.5ZM261,323.4C261,322.6 260.6,322 260,322C259.5,322 259,322.9 259,324.1C259,325.2 259.5,325.8 260,325.5C260.6,325.2 261,324.2 261,323.4ZM186.9,291.9C185,290.7 184.5,291.7 186.1,293.6C187,294.7 187.5,294.9 187.8,294C188.1,293.3 187.6,292.4 186.9,291.9ZM201.6,289.9C201.9,289.3 201.8,288.4 201.4,288C200.2,286.8 197.6,288.5 198.4,289.9C199.3,291.3 200.7,291.3 201.6,289.9ZM189.6,286.1C189.2,285.6 189.3,284.4 189.6,283.5C190.1,282.2 190.4,282.1 191.1,283.2C191.8,284.2 192,284.2 192,283.2C192,281.2 189.1,280.6 186.4,282C184.1,283.3 184.1,283.4 185.8,285.1C187.6,286.9 190.6,287.7 189.6,286.1ZM219.3,284C218.7,281.8 217.5,281.4 216.5,283C215.7,284.3 216.8,286 218.5,286C219.3,286 219.6,285.3 219.3,284ZM209.7,268.6C210.1,267.9 211.6,267.3 212.9,267.4C214.7,267.5 215.3,266.9 215.5,265.2C215.7,262.4 212.4,260.2 210.7,261.9C209.9,262.7 209.9,263 210.8,263C211.5,263 212,263.7 212,264.5C212,266.7 210.2,266.3 209.5,264C209.2,262.9 208.4,262 207.9,262C207.3,262 207.1,262.4 207.5,262.9C207.8,263.4 207.6,264.1 207,264.5C206.5,264.8 206,266.2 206,267.6C206,270.2 208.4,270.9 209.7,268.6ZM133,267C133,265.9 132.3,265 131.5,265C130.7,265 130,265.9 130,267C130,268.1 130.7,269 131.5,269C132.3,269 133,268.1 133,267ZM224,265.4C224,264 223.6,263.1 223.1,263.4C222.6,263.7 222.4,264.9 222.7,266C223.4,268.8 224,268.5 224,265.4ZM267,260C267.6,260 268,259.6 268,259C268,258.5 267.3,258 266.5,258C264.8,258 264.5,255.3 266,253C266.5,252.1 266.5,251.1 265.8,250.3C265,249.3 264.3,249.8 262.9,252.5C260.7,256.5 260.6,258.7 262.1,262.7L263.2,265.5L264.6,262.8C265.4,261.2 266.5,260 267,260ZM129.6,258.2C128.4,257 127.8,259 128.6,261.7L129.4,264.5L129.8,261.7C130,260.1 129.9,258.6 129.6,258.2ZM231.6,261.2C234.5,259.3 233.6,250.8 230.3,249.6C229.3,249.2 229,249.4 229.3,250.3C229.5,251 229.4,253.7 229,256.3C228.2,261.8 228.8,263.1 231.6,261.2ZM214.8,258.6C220.3,260.1 223.1,259.9 222.8,258C222.6,257 223.5,255.4 224.7,254.4C226.9,252.5 227.2,251.1 228.3,237.6C228.4,236 227.9,234.5 227.3,234.3C226.4,234 226,234.9 226,236.9C226,239.7 225.8,239.9 223.7,239.1C220.7,237.9 218.6,239.6 218.2,243.5C217.7,247.3 215.1,250.3 212.8,249.7C211.5,249.3 211,249.8 211,251.1C211,252.2 211.7,253 212.6,253C214,253 214,253.2 212.9,254.6C212.2,255.5 210.6,256.6 209.3,257.1C208,257.6 207,258.7 207,259.6C207,261.1 207.2,261.1 209.6,259.5C211.4,258.4 213,258.1 214.8,258.6ZM151,253C151,252.6 149.7,252.5 148,252.8C145.1,253.2 144.3,254 145.6,255.3C146.3,256 151,254 151,253ZM240,251.5C240,250.7 239.6,250 239,250C238.5,250 238,250.7 238,251.5C238,252.3 238.5,253 239,253C239.6,253 240,252.3 240,251.5ZM232.2,245.5C232.2,245 231.7,244.4 231.1,244.2C230.5,244 230,244.6 230,245.5C230,246.4 230.5,247 231.1,246.8C231.7,246.6 232.2,246 232.2,245.5ZM268,245.1C268,244 265.4,242.9 264.6,243.7C263.4,244.9 264.1,246 266,246C267.1,246 268,245.6 268,245.1ZM127,237.6C127,232.8 126.5,230.6 125.1,228.9C123.5,227 122.9,226.7 121.9,227.8C120.8,228.8 120.9,229.6 122.4,232C123.4,233.7 124.1,236.7 124,238.8C123.7,243.8 123.8,244 125.5,244C126.7,244 127,242.6 127,237.6ZM269,237.9C269,236 268.5,235 267.5,235C266,235 265.3,240 266.6,241.3C267.8,242.5 269,240.9 269,237.9ZM235,237C235,236.5 234.2,235.9 233.3,235.6C231.3,234.8 230.1,236.5 230.7,239.2C231.2,241 231.4,241 233.1,239.4C234.2,238.5 235,237.4 235,237ZM143,232.8C143,230.9 142.8,230.8 142,232C140.7,233.9 140.7,235 142,235C142.6,235 143,234 143,232.8ZM202.5,225.4C201.7,222.6 201,218 201,215.3C200.9,209.5 199.6,203.2 198,201.6C197.1,200.8 197,201.1 197.4,203C197.6,204.4 198.9,212.1 200.2,220.2C201.8,230.3 202.7,234.2 203.3,232.8C203.7,231.5 203.4,228.5 202.5,225.4ZM233.6,228.3C232.4,227 231.1,229.6 231.7,232L232.4,234.4L233.3,231.7C233.8,230.1 233.9,228.6 233.6,228.3ZM268.8,229.9C269.5,228.7 269.9,227.6 269.6,227.3C268.8,226.4 266,229 266,230.6C266,232.6 267.3,232.3 268.8,229.9ZM140.9,222.3C140.8,216.6 139.3,211 137.8,211C137.2,211 137,211.9 137.4,213.3C137.8,214.5 138.6,218.1 139.1,221.3C139.7,224.4 140.4,227 140.6,227C140.8,227 141,224.9 140.9,222.3ZM124.4,222.1C123.4,220.1 123.1,218.5 123.7,217.7C124.2,217 124.7,214.5 124.8,212C124.9,209.5 125.4,207.4 126,207.2C127.8,206.6 127.1,203.3 125,202.7C123.3,202.3 123,201.7 123.6,199.3C124,197.8 124.7,196.4 125.2,196.2C126.6,195.6 126.1,194 124.5,194C123.4,194 123,192.7 122.9,188.8C122.8,185.9 122.9,182.8 123,182C123.1,181.2 122.4,178.1 121.5,175C118.3,164.4 118,163.3 118,161.1C118,159 115.5,157.1 114.3,158.4C114,158.7 114.2,160.9 114.9,163.2C115.6,165.5 116.3,172 116.6,177.8C116.9,188 117.8,191 120.6,191C122.7,191 122.3,195.3 120,197.7C117.6,200.3 118.3,206.5 121.1,208.1C122.2,208.6 123,209.6 123,210.2C123,211.1 122.7,211.1 121.8,210.2C121.1,209.5 120.2,209 119.7,209C118.7,209 119.8,217.1 121,218.4C121.5,218.9 121.6,219.9 121.3,220.6C121,221.4 121.8,222.9 123.1,223.9C126.2,226.4 126.4,226.1 124.4,222.1ZM231.6,222.6C232.2,221 230.4,217 229.1,217C228.1,217 227.2,221 227.8,222.8C228.3,224.5 230.9,224.3 231.6,222.6ZM60,220C60,218.9 59.6,218 59,218C58.5,218 58,218.9 58,220C58,221.1 58.5,222 59,222C59.6,222 60,221.1 60,220ZM231.9,212.4C231.3,211.6 230.1,211 229.2,211C227.9,211 228,211.3 229.5,213C231.5,215.2 233.8,214.7 231.9,212.4ZM332,211.1C332,208.2 330.6,206.2 329.7,207.7C328.9,208.9 330.1,214 331.1,214C331.6,214 332,212.7 332,211.1ZM176.2,206.8C175.6,206.2 174.7,206 174.3,206.4C173.9,206.8 174.2,207.5 175,208C176.9,209.2 177.7,208.3 176.2,206.8ZM193,199.1C193,198.5 192.3,198 191.5,198C190.6,198 190,199 190,200.6C190,202.9 190.2,203 191.5,201.6C192.3,200.8 193,199.7 193,199.1ZM285,192C285,191.5 284.3,191 283.5,191C282.7,191 282,191.5 282,192C282,192.6 282.7,193 283.5,193C284.3,193 285,192.6 285,192ZM175,190.5C175,189.7 174.6,189 174,189C173.5,189 173,189.7 173,190.5C173,191.3 173.5,192 174,192C174.6,192 175,191.3 175,190.5ZM235.3,186.3C234.7,184.8 231.4,184.6 230.5,185.9C230.2,186.4 230.5,187.2 231.1,187.6C231.7,187.9 232.6,187.6 233.1,186.9C233.7,185.9 234,186.4 234.1,188.5C234.1,191 234.3,191.2 234.9,189.5C235.4,188.4 235.5,186.9 235.3,186.3ZM134.1,178.9L133.2,175.5L133.1,178.5C133.1,180.2 133.3,182.6 133.7,184C134.4,186.3 134.5,186.4 134.8,184.4C135,183.2 134.7,180.7 134.1,178.9ZM235.4,182C235.9,181.5 236.5,178.5 236.8,175.3C237,172.1 237.6,169 238.1,168.4C238.6,167.8 239,165.1 238.9,162.4C238.9,159.7 239.2,155.3 239.5,152.5C239.8,149.8 240.3,143.2 240.6,138C240.9,132.8 241.3,126 241.5,123C241.9,116.7 239.6,109.8 237.4,110.7C236.6,111 236,110.7 236,110.1C236,109.5 236.6,109 237.4,109C238.8,109 240,106.9 240,104.3C240,103.5 240.6,101.4 241.4,99.7C242.2,97.9 243,95.6 243.3,94.5C243.6,93.4 244.1,91.7 244.5,90.8C245.1,89.3 244.7,89 242.2,89C239.8,89 239.1,89.5 238.8,91.3C238.6,92.6 237.9,93.4 236.9,93.2C234.7,92.9 231.2,96.9 232.8,97.8C233.9,98.6 234,107.4 232.8,108.5C232,109.4 234.1,116.2 235.8,118.2C236.6,119.2 237,120.9 236.7,122.1C236.4,123.3 236.5,125.3 237,126.5C237.6,128.2 237.5,129.2 236.5,130C235.6,130.8 235.4,131.9 236,134C236.6,136 236.4,137.4 235.4,138.7C234.7,139.7 234,141.5 234,142.8C234,144 233.3,146.2 232.4,147.5C230.6,150.3 231.2,153.5 233.4,152.7C234.6,152.2 234.6,152.7 233.9,155.3C233.4,157.1 233,160.8 233,163.6C233,168.1 232.7,169 230.3,170.6C228.7,171.6 227.2,172.3 226.8,172.2C226.3,172.1 226,172.8 226,173.9C226,175 227.2,176.2 229,177C231.9,178.2 232,178.4 230.5,180.6C229.7,181.9 229,183.2 229,183.6C229,184.4 234.2,183.1 235.4,182ZM333,178.6C333,176 336,174.7 339.8,175.7C342.7,176.4 342.6,175.6 339.3,173.5C336.8,171.8 336.6,171.8 335.4,173.4C334.4,174.9 333.9,174.9 332.1,173.9C331,173.2 329.7,173 329.3,173.4C328.9,173.9 329,174.5 329.7,174.7C330.5,175 330.7,176.2 330.3,178.1C329.9,180.3 330.1,181 331.4,181C332.4,181 333,180.1 333,178.6ZM155.1,174.7C153.8,173.4 153.6,174.8 154.7,177.7C155.4,179.4 155.5,179.4 155.8,177.6C156,176.6 155.7,175.3 155.1,174.7ZM189,176C189,174 188.5,173 187.5,173C186.7,173 186,172.6 186,172C186,171.5 186.5,171 187,171C187.6,171 188,170.6 188,170C188,169.5 187.2,169 186.3,169C184.9,169 184.8,168.8 185.9,168.1C187.7,166.9 186.4,157 184.4,157C182.7,157 182.6,155.3 184.3,154.7C185,154.4 184.8,154.1 183.7,154.1C182.2,154 182,154.8 182.1,159.2C182.2,162.1 182.9,165.6 183.7,167C184.4,168.4 185,170.8 185,172.3C185,175.5 186.6,179 188,179C188.6,179 189,177.7 189,176ZM171,173.6C171,168.8 172.6,168.3 174.7,172.2C176.4,175.4 176.4,175.5 176.8,173C176.9,171.6 177.6,169.5 178.2,168.3C179.1,166.4 179,165.6 177.6,164.1C176.6,163 176.1,161.6 176.5,161C176.9,160.4 176.4,159 175.4,157.9C173.9,156.2 173.8,155.5 174.8,154C176.5,151.2 176.4,150.7 173.1,146.6C170.2,143 170.1,143 169.5,145.2C169.1,146.5 167.8,148.3 166.6,149.3L164.5,151L166.7,152.9C167.9,153.9 169.2,156 169.5,157.6C170.1,160.4 170.1,160.4 168.6,158.6C167.7,157.5 166.8,156.9 166.5,157.2C165.6,158.1 167.8,162.7 169.4,163.3C170.3,163.7 171,164.9 171,166C171,167.7 170.7,167.9 169.1,167C166.8,165.8 165.7,166.9 167.1,169C167.6,169.8 168,171.7 168,173.1C168,174.5 168.3,176 168.7,176.3C170.2,177.8 171,176.8 171,173.6ZM159.6,171.3C159.3,170.3 158.8,167.4 158.4,164.7C158.1,162.1 157.3,159.7 156.7,159.3C156.1,158.9 155.9,159.6 156.4,161.4C156.7,162.8 157.3,166 157.7,168.5C158,171 158.7,173 159.2,173C159.7,173 159.9,172.2 159.6,171.3ZM295,156.6C295.6,152.2 296.4,148.1 296.7,147.3C297.4,145.5 299,145.6 299,147.5C299,148.3 299.7,149 300.5,149C301.5,149 302,147.9 302,145.5C302,143.6 301.6,142 301,142C300.5,142 300,140.9 300,139.5C300,137.9 300.6,137 301.5,137C302.3,137 303,136.6 303,136C303,134.4 300.3,134.9 299.6,136.6C299.3,137.5 299,139.5 299,141.1C299,143.5 298.6,144 296.6,144C294.4,144 294.1,144.6 292.6,152.8C291.7,157.6 291,164 291.1,167L291.2,172.5L292.5,168.5C293.2,166.3 294.3,160.9 295,156.6ZM132.4,166.6C132.1,164.5 131.6,163.1 131.3,163.4C131.1,163.6 131.2,165.4 131.6,167.4C131.9,169.5 132.4,170.9 132.7,170.6C132.9,170.4 132.8,168.6 132.4,166.6ZM333.5,169.1C333.8,168.5 333.3,167.7 332.4,167.2C331.1,166.4 331,165.9 332,164.1C332.6,162.8 332.9,161.6 332.6,161.2C332.3,160.9 332,161.2 332,161.8C332,162.5 331.4,163 330.6,163C328.4,163 327.9,164.5 329,167.4C329.9,170 332.3,170.9 333.5,169.1ZM230,166.1C230,164.3 227.8,159 227,159C225.5,159 224.9,162.9 226,165C227,167 230,167.8 230,166.1ZM244.3,157.4C241.7,155.4 241.3,155.7 240.7,159.3C240.2,162.6 241.8,164.8 243.2,162.7C243.7,162 244,162.4 244.1,164C244.2,165.9 244.4,165.5 245.1,162.6C245.9,159.4 245.7,158.5 244.3,157.4ZM288,161.5C288,160.1 287.6,159 287,159C286.5,159 286,158.6 286,158C286,157.5 286.7,157 287.5,157C288.3,157 289,156.5 289,155.9C289,155.3 288.2,155 287.3,155.2C284.8,155.6 284.1,164 286.4,164C287.4,164 288,163.1 288,161.5ZM263.3,155.3C263.7,153.1 263.5,151.4 263,151.2C262.4,151 262,149.9 262,148.8C262,145 260.6,148 260.3,152.3C259.8,159.6 262.3,161.9 263.3,155.3ZM156.8,154.8C156.6,154.2 155.8,153.4 155.2,153.2C154.5,153 154.2,153.4 154.6,154.4C155.3,156.2 157.4,156.6 156.8,154.8ZM334.4,150.8C333.4,143.1 332.6,140.8 330,138C327.2,135 324.6,134.3 322.2,135.9C321.2,136.5 321.5,137.1 323.4,138.4C326.4,140.3 326.8,142.5 324.1,141.7C322.4,141.3 322.3,141.5 323.2,144.1C324.3,147.3 326,148 326,145.3C326,143.9 326.3,143.9 327.2,144.8C328.2,145.8 328.2,146.3 327.1,146.9C325.5,147.9 326.5,150 328.5,150C329.2,150 330.2,150.9 330.5,152C330.8,153.1 332,154 333,154C334.5,154 334.7,153.4 334.4,150.8ZM184,149.4C184,148.6 184.7,148 185.5,148C186.3,148 187,147.6 187,147C187,146.5 186.1,146 185,146C183.9,146 183,145.3 183,144.5C183,143.7 182.3,143 181.5,143C180,143 179.4,147.3 180.6,150.4C181.3,152.2 184,151.4 184,149.4ZM290,148.5C290,147.7 289.6,147 289,147C288.5,147 288,146.3 288,145.5C288,144.7 288.7,144 289.5,144C290.3,144 291,143.3 291,142.5C291,141.7 290.6,141 290,141C288.2,141 288.9,138 290.8,137.9C291.8,137.9 292,137.6 291.3,137.3C290.6,137.1 290,136.1 289.9,135.2C289.8,131.9 288.3,137.4 287.5,143.8C286.9,149.1 287,150 288.4,150C289.3,150 290,149.3 290,148.5ZM182,140C182,139.5 181.3,139 180.5,139C179.7,139 179,139.5 179,140C179,140.6 179.7,141 180.5,141C181.3,141 182,140.6 182,140ZM128,124.6C127.2,123.8 126.9,125 127.1,129C127.4,137.4 128.5,139.3 128.8,132.1C129,128.3 128.6,125.3 128,124.6ZM154,131.4C153.4,130 152.6,129.2 152,129.5C150.7,130.3 150.7,132 152.2,135.2C153.4,137.7 153.5,137.7 154.2,135.9C154.6,134.9 154.5,132.8 154,131.4ZM328,129.5C328,127.6 326.9,127.6 324.4,129.5C322.6,130.9 322.6,130.9 325.3,131C327,131 328,130.5 328,129.5ZM255,124.5C255,123.7 254.6,123 254,123C253.5,123 253,123.7 253,124.5C253,125.3 253.5,126 254,126C254.6,126 255,125.3 255,124.5ZM328.6,122.6C329.3,119.5 326.7,115.4 323.5,114.7C320.3,114.1 320.3,115.3 323.5,117C326.5,118.6 326.3,120 322.7,121.8C318.8,123.7 319.4,125 324,125C327.4,125 328.1,124.6 328.6,122.6ZM249,112.5C249,107.5 248.2,104.8 246.9,105.6C245.9,106.2 245.7,116.3 246.6,117.3C248,118.7 249,116.7 249,112.5ZM113,113.4C113,112.6 112.6,112.2 112,112.5C111.5,112.8 111,113.8 111,114.6C111,115.4 111.5,115.8 112,115.5C112.6,115.2 113,114.2 113,113.4ZM322.4,110.3C323.2,108.6 323.4,106.9 322.9,106C322.5,105.2 321.8,102.8 321.5,100.8C320.9,97 319.6,95.8 318.7,98.3C318.5,98.9 318.7,101.1 319.1,103C319.6,104.9 320,108 320,109.8C320,113.7 320.5,113.8 322.4,110.3ZM149.1,103.3C148.2,101.8 148.1,102.1 148,105.1C148,107.1 148.3,109 148.8,109.4C149.9,110.6 150.2,105.2 149.1,103.3ZM112,107.5C112,106.7 111.6,106 111,106C110.5,106 110,106.7 110,107.5C110,108.3 110.5,109 111,109C111.6,109 112,108.3 112,107.5ZM161,103.1C161,98.2 160,93 159,93C157.5,93 157,99.9 158.2,103.8C159.7,108.7 161,108.3 161,103.1ZM126.3,93.5L125.6,89.5L125,93.5C124.7,95.7 124.7,99.8 124.9,102.5L125.4,107.5L126.2,102.5C126.6,99.8 126.7,95.7 126.3,93.5ZM256.3,100.8C256.6,98.7 256.5,97 255.9,97C255.4,97 255,98.9 255,101.2C255,106.1 255.5,105.9 256.3,100.8ZM248.5,101.5C249.2,100.3 249.4,96.6 249.2,92.7C248.8,87.1 248.5,86.1 247.4,87.1C245.8,88.4 245.5,91.6 247,92.5C248.6,93.5 248.2,100 246.5,100.6C244.7,101.3 244.5,104.1 246.2,103.8C246.9,103.6 247.9,102.6 248.5,101.5ZM167.2,96C166.9,93.4 166.3,92 165.4,92C163.7,92 163.7,92.5 165.2,96.7C166.8,101.1 167.6,100.9 167.2,96ZM105.3,96.3C105.8,93.7 105.5,92.1 104.6,93.1C103.7,94.2 103.1,99 103.9,99C104.4,99 105,97.8 105.3,96.3ZM275,93C275,92.5 274.3,92 273.5,92C272.7,92 272,92.5 272,93C272,93.6 272.7,94 273.5,94C274.3,94 275,93.6 275,93ZM269.7,91.5C270.5,89.3 269.1,88.2 268,90C266.7,92 266.8,93 268,93C268.6,93 269.3,92.3 269.7,91.5ZM173,85C173,83.9 172.3,83 171.5,83C170.7,83 170,83.9 170,85C170,86.1 170.7,87 171.5,87C172.3,87 173,86.1 173,85ZM186.5,85.7C188.2,84.4 188.2,84.1 186.7,81.2C185.4,78.4 185.4,77.9 186.7,76.8C187.6,76.1 188,74.6 187.7,73.1C187.2,70.6 188.9,60.7 190,59.7C190.3,59.5 192.2,59 194.3,58.7C197.1,58.3 198,58.5 198,59.5C198,60.3 197.4,60.7 196.8,60.5C195,59.8 192.6,61.6 193.5,62.9C193.9,63.6 195.6,64 197.3,63.8C200.4,63.5 200.5,63.6 200.5,67.7C200.5,72 202,74.7 203.8,73.6C204.3,73.3 204.7,69.1 204.5,64.3L204.3,55.5L201.1,55.7C198.9,55.8 197.7,55.3 197.2,54.2C195.8,50.3 190,48.1 190,51.5C190,53.3 191.7,53.5 192.3,51.8C192.5,51.1 193.1,50.8 193.5,51.2C193.9,51.6 193.2,52.8 191.9,53.9L189.5,55.8L189.2,52.9C188.8,49.6 186.5,49 185.5,51.9C184.8,54.3 181.8,55.4 178.8,54.5C176.7,53.8 176.7,53.9 177.3,61.9C177.6,66.9 178.5,71.4 179.7,73.8C180.8,75.8 181.7,79.3 181.9,81.4C182.2,87.3 183.1,88.1 186.5,85.7ZM241.1,86C244.7,86 244.8,84.7 241.4,83.1C239.2,82.1 238.3,82.2 236.3,83.5C233.8,85.2 234.1,87.6 236.7,86.6C237.5,86.3 239.5,86 241.1,86ZM316.4,85.2C317.5,83.4 318.2,77 317.2,77C315.7,77 313,82.8 313.7,84.6C314.3,86.1 315.6,86.5 316.4,85.2ZM205.7,83.4C206.4,81.6 204.5,77 203,77C201.9,77 201.6,83.3 202.7,84.3C203.8,85.5 205,85.1 205.7,83.4ZM250.4,80.8C251.1,75.5 250.9,70 249.9,70C248.2,70 247,75 247.7,79.5C248.4,84.8 249.7,85.4 250.4,80.8ZM243,75.4C243,74.6 242.6,74.2 242,74.5C241.5,74.8 241,75.8 241,76.6C241,77.4 241.5,77.8 242,77.5C242.6,77.2 243,76.2 243,75.4ZM127.7,72C128,69.6 126.2,68.3 125.4,70.4C124.7,72.3 125.7,75.6 126.7,74.6C127.1,74.2 127.5,73.1 127.7,72ZM171.3,71.9C170.5,69.1 168,69.5 168,72.4C168,74.3 168.4,74.7 169.9,74.3C171.2,74 171.6,73.2 171.3,71.9ZM244.6,69.6C245.5,66 244.7,62.6 242.9,62.2C241.6,62 241.1,62.9 240.8,66.2C240.5,68.6 240.5,70.8 240.7,71.3C241.6,72.9 244,71.9 244.6,69.6ZM109,68C109,67.5 108.3,67 107.5,67C106.7,67 106,67.5 106,68C106,68.6 106.7,69 107.5,69C108.3,69 109,68.6 109,68ZM131.3,65.9C131,64.7 130.4,64.2 129.8,64.8C128.8,65.8 129.8,69.2 131,68.5C131.5,68.2 131.6,67.1 131.3,65.9ZM170,64.4C170,62.9 169.4,62 168.5,62C167.5,62 167,63 167,65C167,67.2 167.4,67.8 168.5,67.4C169.3,67 170,65.7 170,64.4ZM251.2,62.8C251.4,56.2 251.5,55.5 252.5,55.7C253.5,55.8 253.6,45.3 252.7,44.3C252.4,44 252.4,41.6 252.7,39C253,36.3 253,33.3 252.6,32.3C251.4,29.3 249.9,32.8 250.2,38.1C250.3,40.6 250,43.1 249.7,43.8C248.8,45.1 248,65.1 248.7,66.3C249.9,68.2 251,66.6 251.2,62.8ZM128,62C128,60.9 127.3,60 126.5,60C124.8,60 124.7,60.2 125.6,62.4C126.5,64.7 128,64.4 128,62ZM256,62.6C256,61.8 255.7,60.4 255.4,59.5C254.5,57.2 253.1,59.5 253.7,62.1C254.3,64.3 256,64.7 256,62.6ZM169,56.6C169,55.7 168.3,55 167.5,55C166.5,55 166,56 166,58.1C166,60.8 166.2,61 167.5,59.6C168.3,58.8 169,57.4 169,56.6ZM132,55.8C132,54 132.2,49.4 132.5,45.5C132.7,41.7 132.5,39.2 132.1,40C130.8,42.5 128.7,55.7 129.3,57.4C130.4,60.1 132,59.1 132,55.8ZM247,54.5C247,53.7 246.6,53 246,53C245.5,53 245,53.7 245,54.5C245,55.3 245.5,56 246,56C246.6,56 247,55.3 247,54.5ZM168.1,48.9C168.3,48.1 168,46 167.6,44.2C167,41.6 166.4,40.9 164.7,41.2C162,41.6 161.2,46.1 163.4,48.3C164.3,49.2 165,50.6 165,51.5C165,52.9 165.2,53 166.4,51.7C167.2,50.9 168,49.7 168.1,48.9ZM245.9,44.8C245.4,43.9 245,42 245,40.6C245,37.5 243.9,37.3 242.3,39.9C241.3,41.4 241.4,42.1 242.4,42.9C243.2,43.5 244.1,45.5 244.5,47.3C245.1,50.1 245.3,50.2 246,48.5C246.4,47.4 246.4,45.7 245.9,44.8ZM203.8,48.1C204.7,47.6 206.7,46.7 208.2,46.2C209.9,45.5 211,44.1 211.5,42.2C212,39.6 212.8,39.1 218.8,37.3C224.1,35.8 225.6,35 225.8,33.3C226.1,31.3 225.8,31.2 222.3,32C220.2,32.5 215.7,33.1 212.3,33.5C208.8,33.9 206,34.6 206,35.1C206,36.3 197.3,36.2 194.9,35C193.6,34.3 193,34.3 193,35C193,36.3 186.3,36.3 185.4,34.9C185.1,34.3 183.9,34 182.9,34.3C181.9,34.6 180.7,34.4 180.4,33.9C180.1,33.3 179,33.2 178,33.5C177,33.8 175.9,33.6 175.5,33C174.5,31.4 171,31.8 170.3,33.7C169.4,35.9 173.4,39 177.1,39C180.1,39 184.5,42.4 183.5,44C181.6,47.1 198.9,50.6 203.8,48.1ZM265.2,43.4C264.6,40.2 261.9,37.8 260.3,39.1C258.5,40.7 258.6,41.6 261.1,44.1C263.5,46.5 265.6,46.1 265.2,43.4ZM236,37.5C236,36.8 235.3,35.9 234.5,35.6C232.7,34.9 231.5,37.2 232.4,39.6C232.9,40.9 233.3,41 234.5,40C235.3,39.3 236,38.2 236,37.5ZM236,25.4C236,24.7 237.1,23.5 238.5,22.7L241.1,21.4L237.9,19.1C234,16.2 233.1,17.3 233.2,24.3C233.2,28.3 233.4,28.9 234.6,27.9C235.4,27.3 236,26.1 236,25.4Z" style="fill:rgb(249,91,127);fill-rule:nonzero;"/>
                </g>
            </g>
            <g id="l77fN6M75cXSJ6jG2ufpCYw" transform="matrix(1,0,0,1,0.620212,0.0434366)">
                <g>
                    <path id="p15fwIQiTB" d="M223,581.7C223,576.6 223.4,574.9 225,573.5C226.4,572.2 226.7,571.3 226,570C225.1,568.2 224.6,560.4 224.9,551C225.3,538.9 225,501.1 224.4,495.3C224,490.6 223.4,489 222.3,489C219.6,489 218,486.2 218,481.6C218,478.2 217.6,477 216.5,477C215.6,477 215,476.1 215,474.5C215,473.1 215.6,472 216.3,472C217.1,472 217,471.6 216,471C215,470.4 214.9,470 215.8,470C216.7,470 217,467.3 217,459.9C217,450.9 216.8,449.9 215.3,450.2C213.7,450.5 213.5,451.9 213.7,465.3C213.8,473.9 213.5,480 212.9,480C212.4,480 212,479.1 212,478C212,476.8 211.3,476 210.4,476C209.1,476 208.9,475.3 209.3,473.3C209.5,471.7 209.4,466.5 209,461.6C208.6,456.6 208.7,451 209.1,449.1C209.6,447 209.5,445.1 209,444.6C207.5,443.1 207.8,442 209.5,442C210.3,442 211,441.6 211,441C211,440.5 210.4,440 209.7,440C208.7,440 208.3,438.4 208.3,434.8C208.2,424.6 208.1,423.8 206.5,424.3C204.6,425.1 203.4,423.2 204.9,421.7C205.5,421.1 206,419.1 206,417.2C206,411.3 208.7,415.2 212.2,426.2C213.9,431.7 215.8,436.7 216.5,437.3C218.6,439.5 223,453.8 223,458.7C223,462.8 223.5,464 226.4,466.7C232.3,472.5 231.9,469.4 224,449.5C216.1,429.7 216.1,429.6 216,427.6C216,426.6 215.1,423.9 214.1,421.6C210.4,413.7 199,376.4 199,372.3C199,371.6 199.8,371 200.8,371C202,371 203,372.7 204.5,377.5C206.1,383 206.8,384 208.7,384C210.6,384 211,384.5 211,387.4C211,389.3 210.5,391 209.9,391.2C207.9,391.9 210.7,397 213.1,397C215.1,397 215.2,397.3 214.6,402.8C214.1,407.4 214.3,409.3 216,412.7C217.1,415 218.7,420.2 219.5,424.1C220.4,428.1 221.5,431.9 222,432.6C223.4,434.1 229,450.9 229,453.2C229,454.2 229.4,455 229.9,455C230.7,455 234,462.5 235.6,468C236,469.4 237.3,471.9 238.6,473.6C240.4,475.9 241,478 241,481.9C241,487.5 244.1,495 246.3,495C247.9,495 251.1,489.3 253,483.3C254.2,479.4 254.6,479 257.7,479C260,479 261,479.5 261,480.5C261,481.3 260.4,482 259.6,482C258.1,482 256.9,484.7 255,492.3C254.1,495.6 252.8,497.7 250.8,499.1C249.2,500.3 248.1,501.7 248.2,502.2C248.4,502.8 252.5,504.5 257.4,506.1C264.2,508.3 266.6,508.7 268.1,507.9C269.2,507.3 270,506.6 269.8,506.2C267.1,501.2 264,493.5 264,492.1C264,491 264.7,487.4 265.6,484.1C267.2,477.5 267.2,477.5 262.4,469.3C260.9,466.7 259.8,466 257.4,466C254.4,466 254.3,465.7 251.2,456.7C247.7,446.6 247.2,443 249.4,443C250.2,443 251.2,445 251.9,447.8C253.3,453.4 256,459 257.2,459C258.2,459 258.2,458.8 258.4,447C258.5,441.7 259,436.9 259.4,436.2C259.8,435.5 259.5,434.7 258.6,434.4C256.7,433.7 256.5,431 258.3,431C259.6,431 265,424.7 265,423.1C265,422.5 265.5,422 266,422C266.6,422 267,421.3 267,420.5C267,418.7 270,418.5 270.1,420.3C270.2,421.7 271.1,469 271.1,473.4C271.1,475 271.5,477.1 272.1,478.2C272.8,479.5 272.8,480.5 272.1,481.4C270.9,482.8 270.4,504.2 271.5,507.7C272,509.3 271.5,510.3 269.1,512.1C265.7,514.6 265.1,516 267.5,516C268.6,516 269,517.2 269,520.4C269,522.9 268.6,525.1 268.1,525.5C267.3,525.9 267.4,539.6 268.2,563C268.2,563.8 267.9,569.8 267.5,576.3L266.7,588L250.9,588L251.2,585.3C251.5,582.8 251.9,582.5 255,582.5C258,582.4 258.5,582.1 258.8,579.7C259.1,577.7 258.8,577.1 257.6,577.6C255.7,578.3 252,576.3 252,574.5C252,573.7 252.7,572.7 253.6,572.2C255,571.4 255,570.9 254,569C253,567.2 253.1,566.6 254.1,565.9C255.6,565 256.2,558 254.7,558C254.1,558 254,555.9 254.4,552.8C255.7,541.5 256,528.3 255.1,523.5C254.5,520.4 254.5,518.1 255.1,517.6C256.5,516.1 256.2,515 254.5,515C253.5,515 253,514 253,512.4C253,509.9 252.8,509.8 249.4,510.3C245,511 241,509.6 240.3,507C240,505.9 239.4,504.9 238.9,504.9C238.4,504.8 237.5,504.7 236.8,504.6C235.1,504.5 232.4,494.7 233.9,494.2C235.5,493.7 235.2,492.2 233,490C231.9,488.9 231,486.8 231,485.4C231,483.8 230.5,483 229.8,483.3C229.1,483.5 228.6,484.6 228.7,485.6C229.3,490.6 230.2,525.1 230.4,547.5C230.5,561.3 230.9,573.1 231.4,573.8C231.9,574.7 231.5,575.7 230.1,576.7C228.9,577.5 228,578.9 228.1,579.8C228.2,580.8 228.2,583 228.1,584.8C228,587.5 227.6,588 225.5,588C223.1,588 223,587.8 223,581.7ZM262.3,530.5C261.8,529.7 261.4,531 261.3,533.8C261.2,536.4 260.8,541.1 260.5,544.4C260,548.1 260.2,550.6 260.9,551.3C261.5,551.9 262.1,556.8 262.2,562.5C262.4,568 262.6,563.4 262.7,552.2C262.9,541 262.7,531.3 262.3,530.5ZM236,480.2C236,478.9 231.9,474.8 231.2,475.4C230.9,475.8 231.7,477.1 233,478.5C235.5,481.2 236,481.5 236,480.2Z" style="fill:rgb(236,76,112);fill-rule:nonzero;"/>
                    <path id="poWjhOxek" d="M275,582.8C275.1,579.9 275,576.6 274.9,575.5C274.4,571.3 277.4,532 278.2,532C278.6,532 279,524.6 279,515.7C279,506.7 279.3,493.8 279.7,487.2L280.3,475L285.5,475L285.2,464.3C285.1,458.3 284.3,451.3 283.5,448.5C282.7,445.8 282.1,441 282.1,438C282.2,435 281.5,426.3 280.6,418.7C278.5,400.9 278.5,391 280.4,391C282.1,391 282.8,394 283.5,404C283.8,408.1 284.7,416.7 285.6,423C286.5,429.3 287.1,436.9 287,439.8C286.9,442.8 287.3,445.7 287.9,446.4C288.4,447 289,451.8 289.1,457C289.1,462.2 289.9,470.8 290.7,476C291.5,481.2 292.3,488.6 292.5,492.5C292.7,496.3 293.2,504.7 293.5,511C293.8,517.3 294.3,528.9 294.5,536.8C294.7,544.6 295.2,551.5 295.5,552C295.9,552.6 295.8,553.9 295.5,555.1C295,556.7 294.5,556.9 293.4,555.9C291.7,554.5 288.9,555.5 289.5,557.3C289.8,558 291.4,559.4 293,560.4C296.7,562.5 296.9,565 293.5,565C291.7,565 291.2,564.6 291.7,563.4C292.1,562.4 291.6,561.7 290.2,561.3C288.9,561 287.9,559.6 287.4,557.7C286.9,555.1 287.2,554.3 289.9,552.1C293.6,549 293.8,548.3 290.8,547.8C289.5,547.6 288.6,546.9 288.8,546.1C288.9,545.4 288.7,544.3 288.2,543.6C287.7,543 287,539.9 286.6,536.8C286,531.3 286.1,531 288.1,531C290.2,531 290.3,530.7 289.7,524.1C289.4,520.2 288.6,516.2 288.1,515.1C286.7,512.6 286.7,506 288,506C288.6,506 289,504.4 289,502.5C289,500.5 288.5,499 287.8,499C287.2,499 285.8,498.3 284.8,497.3C283.1,495.7 283,496.3 282.9,513.6C282.7,534.7 282.5,541.4 281.4,553.5C280.9,558.5 280.5,567.2 280.5,573C280.4,588.2 280.4,588 277.5,588C275.1,588 275,587.7 275,582.8ZM287.7,486.8C287.5,485.5 287.3,486.3 287.3,488.5C287.2,490.7 287.4,491.7 287.7,490.8C287.9,489.8 287.9,488 287.7,486.8Z" style="fill:rgb(236,76,112);fill-rule:nonzero;"/>
                    <path id="p10b2VA9rF" d="M301,576.5C301,572.4 300.7,569 300.3,569C299.8,569 299.4,560.7 299.2,550.5C299,534 299.2,532 300.6,532C301.6,532 302,531.5 301.6,530.4C300.3,527.1 299.1,515.9 298.5,502.5C298.2,494.8 297.7,485.9 297.4,482.8C297,478.4 297.2,477 298.2,477C300.7,477 302.8,488.3 303.1,503.5C303.1,504.5 303.5,505.9 304,506.5C304.5,507.1 304.8,511.7 304.7,516.7C304.6,523 304.9,526.2 305.8,527.3C306.7,528.3 306.9,530 306.6,531.7C306.2,533.3 306.6,536.4 307.5,538.9C308.3,541.3 308.8,543.6 308.5,544C308.2,544.5 308.4,545.9 308.8,547.2C310.1,550.7 309.3,552.2 306.8,550.9C303.9,549.3 302.9,551.3 303.2,557.8C303.4,560.6 303.2,563 302.8,563C302.3,563 302,564.2 302.1,565.8C302.1,567.3 302.4,567.9 302.7,567.3C303.4,565.5 305.7,565.7 306.4,567.5C306.7,568.4 308.2,569 310.2,569L313.5,569L309.5,570.9C307.3,571.9 304.7,573 303.8,573.3C302.4,573.8 302.2,574.7 302.7,579C303.1,582.4 302.9,584 302.1,584C301.4,584 301,581.4 301,576.5ZM305,544.9C304,543.2 302,542.2 302,543.6C302,545.1 304.2,548 305.1,547.5C305.6,547.1 305.6,546.2 305,544.9Z" style="fill:rgb(236,76,112);fill-rule:nonzero;"/>
                    <path id="pyT45hGPX" d="M208.9,574.8C205.8,568.8 202.8,565.4 200.7,565.8C198.7,566.2 197.2,563.1 198.9,562.1C200.2,561.3 199.4,558 197.9,558L196.3,558C195.8,558 195.5,559 195.5,560.3C195.5,561.6 194.7,562.6 193.6,562.8C191.9,563.2 191.8,562.8 192.3,559.4C192.7,557.2 193,554.7 193,553.7C193,552.3 193.5,552 195,552.5C196.7,553 197,552.7 197,550.1C197,548.1 196.3,546.7 194.9,546C193.4,545.2 193.2,544.5 193.9,543.6C194.6,542.7 194.6,542 193.7,541.1C193,540.4 192.5,536.8 192.4,532.4C192.4,527.2 191.9,524.5 191,524C190,523.4 189.9,522.8 190.7,521.8C191.3,521 191.4,517.5 191,512.6C190.6,508.2 190.7,502.8 191.2,500.6C191.8,497.9 191.7,496.5 190.9,496C190.1,495.5 190,491.1 190.4,480.5C190.7,472.5 191.2,465.4 191.6,464.9C193,462.5 194,465.8 193.9,472.3C193.7,480.3 196.2,502.6 198.6,513.5C200.1,520.5 200.5,525.7 199.6,527.2C198.8,528.5 199,529.3 200.1,530.2C202.1,531.8 205.8,547.3 206.4,556.2C206.6,559.8 207.3,563.7 207.8,564.7C208.3,565.7 209,568.1 209.4,570.1C209.8,572.2 210.7,574.3 211.5,575C212.3,575.7 213,576.9 213,577.6C213,580.3 211,578.9 208.9,574.8Z" style="fill:rgb(236,76,112);fill-rule:nonzero;"/>
                    <path id="przMl4ed5" d="M285.5,573.9C285.1,573.3 285.1,572.6 285.4,572.3C285.7,572 285.5,570.9 284.9,569.8C284.2,568.4 284.2,567.5 285.1,566.4C286.1,565.2 286.5,565.2 287.7,567C288.5,568.2 288.9,569.7 288.6,570.5C288.3,571.3 288.5,572.2 289.1,572.5C289.6,572.9 289.8,573.6 289.5,574.1C288.7,575.3 286.3,575.2 285.5,573.9Z" style="fill:rgb(236,76,112);fill-rule:nonzero;"/>
                    <path id="pcNabSobH" d="M237,566C237,565.5 237.7,565 238.5,565C239.3,565 240,565.5 240,566C240,566.6 239.3,567 238.5,567C237.7,567 237,566.6 237,566Z" style="fill:rgb(236,76,112);fill-rule:nonzero;"/>
                    <path id="pgKDQiRW1" d="M237.5,554.8C238.2,552.7 238.7,549.1 240.5,533.5C242,520.4 243.7,522.5 244.4,538.6C245,550.4 245,550.8 242.9,551.3C241.7,551.6 241,552.5 241.2,553.2C241.7,554.5 239.4,556.9 237.6,557C237.2,557 237.1,556 237.5,554.8Z" style="fill:rgb(236,76,112);fill-rule:nonzero;"/>
                    <path id="pPvVjV2fd" d="M220,526.5C220,525.7 219.3,525 218.5,525C217.7,525 217,524.6 217,524C217,523.5 217.5,523 218,523C218.6,523 219,522.3 219,521.5C219,520.7 219.9,520 221,520C222.7,520 223,520.7 223,524C223,526.9 222.6,528 221.5,528C220.7,528 220,527.3 220,526.5Z" style="fill:rgb(236,76,112);fill-rule:nonzero;"/>
                    <path id="plkpt7l16" d="M241.6,520.9C241.2,520 241,517.6 241.2,515.6C241.5,512.1 241.6,512 243.5,513.3C245,514.4 245.2,515.1 244.3,516.1C243.7,516.9 243,518.6 242.8,520C242.4,522 242.2,522.2 241.6,520.9Z" style="fill:rgb(236,76,112);fill-rule:nonzero;"/>
                    <path id="p1A0HPWzOc" d="M212.8,508C211.3,504.9 211.3,504.5 212.7,504.2C214.8,503.7 215.2,504.4 214.8,508.2L214.4,511.5L212.8,508Z" style="fill:rgb(236,76,112);fill-rule:nonzero;"/>
                    <path id="pEeJvRlFF" d="M209.6,487.4C208.3,484 208.9,481 211,481C213.1,481 215,483.7 215,486.9C215,489.5 210.5,489.9 209.6,487.4Z" style="fill:rgb(236,76,112);fill-rule:nonzero;"/>
                    <path id="pnyNmVqYK" d="M296.5,468.3C296.2,464.5 295.2,456.3 294.4,450C292.8,436.7 292.7,435 293.9,435C294.3,435 295,437.8 295.4,441.1C295.8,445.2 296.6,447.7 297.7,448.6C298.8,449.4 299,449.9 298.3,450C296.5,450 296.7,453.7 298.4,454.3C299.6,454.8 299.7,455.6 298.9,458.5C298.2,461 298.2,463.7 298.9,467.1C300.3,473.7 300.3,475 298.6,475C297.6,475 297,473.1 296.5,468.3Z" style="fill:rgb(236,76,112);fill-rule:nonzero;"/>
                    <path id="pD61TabQE" d="M248,438C248,436.7 247.3,436 246,436C245,436 243.6,435.1 243,434C241.6,431.4 240.2,431.5 239.7,434.3C239.4,435.9 239.2,435.7 239.1,433.4C239.1,431.4 239.6,430 240.5,429.6C241.3,429.3 242,428.1 242,427C242,424 244.4,424.6 245.7,428C246.4,430 247.5,431 248.9,431C251.6,431 252.3,432.5 251.6,436.6C250.9,440.3 248,441.4 248,438Z" style="fill:rgb(236,76,112);fill-rule:nonzero;"/>
                    <path id="pnMURc5j2" d="M230.6,414.8C229.6,411 230,410.3 231.5,413C233.2,415.9 233.3,417 232.1,417C231.6,417 231,416 230.6,414.8Z" style="fill:rgb(236,76,112);fill-rule:nonzero;"/>
                    <path id="pPxQikJVi" d="M237,415.6C237,414.7 236.3,414 235.4,414C234.4,414 234,413.4 234.4,412.5C234.7,411.7 234.5,411 234,411C233.5,411 233.3,410.3 233.6,409.5C234,408.7 233.7,408 232.9,408C232.2,408 231.9,407.7 232.3,407.4C232.6,407 232.1,404.6 231,401.9C229.6,398.1 229.5,397 230.5,397C231.2,397 232.1,398.5 232.5,400.3C233.6,405.7 236.2,412 237.1,411.4C237.6,411.1 238,408.9 238,406.4C238,403.3 238.4,402 239.4,402C241.6,402 240.8,416.4 238.6,416.8C237.7,417 237,416.5 237,415.6Z" style="fill:rgb(236,76,112);fill-rule:nonzero;"/>
                    <path id="p4h1vYvaF" d="M290,412.3C290,408 290.8,408.3 291.4,412.8C291.6,414.6 291.3,416 290.9,416C290.4,416 290,414.4 290,412.3Z" style="fill:rgb(236,76,112);fill-rule:nonzero;"/>
                    <path id="p16rixSzIy" d="M325,397.5C325,396 325.7,394.9 327.1,394.5C329.8,393.6 330.4,394.4 329.1,396.8C327.4,399.9 325,400.4 325,397.5Z" style="fill:rgb(236,76,112);fill-rule:nonzero;"/>
                    <path id="pwmt7PQNN" d="M229,387.5C229,384.7 229.4,384 231,384C232.6,384 233,384.7 233,387.5C233,390.3 232.6,391 231,391C229.4,391 229,390.3 229,387.5Z" style="fill:rgb(236,76,112);fill-rule:nonzero;"/>
                    <path id="p1EBVl0fE2" d="M339.5,388C338.7,386.7 340.8,384 342.6,384C344.3,384 344.3,384.5 343,387.1C341.8,389.2 340.5,389.6 339.5,388Z" style="fill:rgb(236,76,112);fill-rule:nonzero;"/>
                    <path id="pxt71u8ZB" d="M301.2,383.3C301.6,381.6 299.8,376 298.9,376C298.3,376 298.2,375.5 298.6,374.9C298.9,374.3 298.6,373.4 297.9,372.9C296.8,372.2 296.9,372 298.3,372C299.2,372 300,372.7 300,373.5C300,374.2 300.7,375.3 301.6,375.8C302.5,376.3 303,377.3 302.8,378.1C302.5,378.9 302.7,380.5 303.1,381.8C303.7,383.4 303.6,384 302.5,384C301.7,384 301.1,383.7 301.2,383.3Z" style="fill:rgb(236,76,112);fill-rule:nonzero;"/>
                    <path id="pJ2t4mMMv" d="M332.1,379.8C332.3,376.8 335.6,368.6 336.8,368.2C339.4,367.4 337.5,378.4 334.7,380.2C332.9,381.3 332,381.2 332.1,379.8Z" style="fill:rgb(236,76,112);fill-rule:nonzero;"/>
                    <path id="pzfxaukbF" d="M220.5,369.1C220.2,368 219.3,366.9 218.5,366.6C217.7,366.3 217,365.1 217,364C217,362.3 216.4,362 212.5,362C208.5,362 207.8,361.7 206.9,359.3C206.3,357.7 205.5,354.6 205.3,352.3L204.7,348L208.9,348C212.9,348 213,347.9 213,344.5C213,341.7 213.4,341 214.9,341C216.4,341 216.9,341.9 217.3,345.3C218.2,352.8 220.8,361.2 222.9,363.1C224.8,364.9 225,364.9 225.9,363.2C226.8,361.7 227.1,361.7 228,363C228.5,363.8 229,366 229,367.8C229,370.9 228.8,371 225.1,371C222.1,371 221,370.5 220.5,369.1Z" style="fill:rgb(236,76,112);fill-rule:nonzero;"/>
                    <path id="p6sUjxiZK" d="M292.2,349C291.4,345.9 291.5,345 292.5,345C293.8,345 295,348 295,351.3C295,354.5 293.3,353 292.2,349Z" style="fill:rgb(236,76,112);fill-rule:nonzero;"/>
                    <path id="pIlXlP4O8" d="M200.3,345C200,343.9 199.4,343 199,343C198,343 196,335.8 196,332.1C196,329.1 196.2,329 200.1,329C203.8,329 204.2,329.3 205.6,332.8C206.4,334.8 207.5,337.3 208,338.2C208.6,339.2 209,341.6 209,343.5C209,346.9 208.9,347 204.9,347C201.7,347 200.7,346.6 200.3,345Z" style="fill:rgb(236,76,112);fill-rule:nonzero;"/>
                    <path id="p3o1Hiy05" d="M285,344C285,342.9 284.7,342 284.3,342C283.8,342 283.7,339.5 283.8,336.5C284,333.3 283.8,331 283.2,331C282.6,331 282.4,330 282.7,328.9C283.6,325.7 284.6,328.4 285.4,335.5C285.7,338.8 286.3,342.5 286.6,343.8C287,345.1 286.8,346 286.1,346C285.5,346 285,345.1 285,344Z" style="fill:rgb(236,76,112);fill-rule:nonzero;"/>
                    <path id="p18Z8KFGXD" d="M290.5,340.4C289.9,337 290.4,335 291.5,336.2C291.8,336.5 292.4,338.4 292.7,340.4C293.4,345.2 291.4,345.2 290.5,340.4Z" style="fill:rgb(236,76,112);fill-rule:nonzero;"/>
                    <path id="p7POb6I3w" d="M209,332.6C209,328.4 209.4,326 210.3,325.7C210.9,325.4 210.5,325.1 209.4,325.1C208.2,325 205.9,325.7 204.4,326.5C202.8,327.3 199.7,328 197.4,328C193.5,328 193.2,327.8 190.6,322.9C186.1,314.2 187.3,312.5 193.2,319.2C196.6,323.2 196.9,323.4 198.7,321.9C199.7,321 204.3,319.5 208.8,318.6C213.4,317.7 217.8,316.3 218.7,315.5C219.5,314.7 220.6,314 221.2,314C221.8,314 221.1,312.5 219.6,310.6C216.9,307 216.5,305.9 217.8,306.1C219.7,306.4 221.1,305.9 220.6,305.1C220.3,304.6 220.7,303.9 221.6,303.6C222.4,303.3 222.8,302.6 222.5,302C222.2,301.5 222.4,301 223,301C223.6,301 223.8,300.6 223.5,300C223.2,299.5 223.6,299 224.5,299C225.8,299 225.8,299.5 224.1,302.9L222.1,306.8L226,306.6C228.2,306.6 230,306.1 230,305.7C230,305.2 231.4,305.1 233,305.5C235,305.9 236,305.8 236,305C236,304.2 237,304.1 238.9,304.5C241,304.9 242.1,304.7 242.7,303.5C243.4,302.3 244.4,302.1 246.4,302.6L249.2,303.3L245.6,305.3C243.3,306.6 242,308.2 242,309.4C241.9,311.3 241.9,311.3 240.9,309.8C239.7,307.7 234.7,307.4 233.2,309.3C232.6,310 232.3,311.6 232.7,312.8C233.5,316.1 232.1,322 230.5,322C229.4,322 229,320.8 229,317.5C229,315 228.6,313 228,313C227.5,313 227,314.3 227,316C227,318.4 226.5,319.1 224.3,319.7L221.5,320.4L225,321C228.2,321.5 228.5,321.8 228.8,325.3C229,327.4 228.7,329 228.1,329C227.5,329 227,328.4 227,327.6C227,325.1 223,324.6 220.7,326.8C219.5,327.9 217.2,329 215.5,329.2C212.7,329.5 212.5,329.8 212.8,332.9C212.9,334.8 213.5,337 214.2,337.7C215,338.7 214.6,339 212.1,339L209,339L209,332.6Z" style="fill:rgb(236,76,112);fill-rule:nonzero;"/>
                    <path id="p1HorZQF8M" d="M288.5,328.9C287.9,326.2 288.4,324 289.4,325.1C290.4,326.2 291.1,332 290.2,332C289.6,332 288.9,330.6 288.5,328.9Z" style="fill:rgb(236,76,112);fill-rule:nonzero;"/>
                    <path id="paHJQWv8Y" d="M283,323.8C283,322.3 282.7,321 282.3,320.8C281.8,320.7 281.7,318.7 282,316.5C282.5,312.7 282.6,312.8 283.3,318.9C283.8,322.4 283.9,325.5 283.6,325.8C283.3,326.1 283,325.2 283,323.8Z" style="fill:rgb(236,76,112);fill-rule:nonzero;"/>
                    <path id="pd2xHkj7Q" d="M294.2,322.3C294.1,319.9 293.5,318 292.9,318C292.3,318 292.1,317.3 292.4,316.3C293.2,314.4 291,304 289.9,304C289.4,304 289.3,303.3 289.6,302.5C290,301.7 289.8,301 289.4,301C288.9,301 288.4,299.6 288.3,298C288,294.5 285,290.5 285,293.7C285,294.7 285.9,299.5 287,304.4C288.1,309.4 289,313.5 289,313.7C289,313.9 288.3,314 287.5,314C285.8,314 285.9,314.1 285.4,305.2C285.2,299.4 283.3,293 281.9,293C281.6,293 281,293.3 280.6,293.8C280.2,294.2 279.3,294.5 278.7,294.5C278,294.5 277.2,296.5 276.9,299L276.3,303.5L276.2,298.8C276,293 274,292.4 272,297.5C270.4,301.5 270.6,301.4 268.2,300C267,299.2 265.2,299.3 262,300.2C258.5,301.2 257.2,302.3 256,304.7C254.2,308.7 252.4,308.9 251.7,305.3C251.1,302.1 254.1,298.5 256.6,299.4C257.3,299.7 258,299.6 258,299.2C258,297.1 273.3,292.2 281.6,291.5C285.2,291.2 289,289.4 289,288C289,287.4 289.7,287 290.5,287C292.7,287 292.3,289.7 290,290.3C287.7,290.9 287.8,292 291,302C293.6,310 295.2,319 294.7,323C294.3,326.3 294.3,326.3 294.2,322.3Z" style="fill:rgb(236,76,112);fill-rule:nonzero;"/>
                    <path id="pdOhR8KNR" d="M278.2,321C278.2,319.1 278.4,318.3 278.7,319.3C278.9,320.2 278.9,321.8 278.7,322.8C278.4,323.7 278.2,322.9 278.2,321Z" style="fill:rgb(236,76,112);fill-rule:nonzero;"/>
                    <path id="p13fXWdCd" d="M250,316C250,312.7 250.3,312 252,312C254.1,312 254.5,313.6 253.4,317.8C252.3,321.7 250,320.5 250,316Z" style="fill:rgb(236,76,112);fill-rule:nonzero;"/>
                    <path id="p1ATtwcHLF" d="M277.3,309C277.3,306.5 277.5,305.5 277.7,306.8C277.9,308 277.9,310 277.7,311.3C277.5,312.5 277.3,311.5 277.3,309Z" style="fill:rgb(236,76,112);fill-rule:nonzero;"/>
                    <path id="pw4IAT7lu" d="M280.6,310.4C280.3,309.5 280.4,308.1 281,307.2C281.7,305.8 281.9,306.2 282,308.8C282,312.3 281.5,312.9 280.6,310.4Z" style="fill:rgb(236,76,112);fill-rule:nonzero;"/>
                    <path id="plO0NacVR" d="M207.8,299.6C202.7,296.2 201.9,295 205,295C206.4,295 207,294.3 207,292.8C207,289.9 208.7,291.7 209.2,295C209.4,296.9 210,297.4 211.8,297.2C214.5,296.8 215.8,299.4 213.8,301.3C212.7,302.4 211.7,302.2 207.8,299.6Z" style="fill:rgb(236,76,112);fill-rule:nonzero;"/>
                </g>
            </g>
            <g id="l2J0oGW9mYdC7tfOB36Wcy1" transform="matrix(1,0,0,1,0.620212,0.0434366)">
                <g>
                    <path id="pKTCiUXn" d="M223,583.6C223,581.2 222.7,577.9 222.4,576.3C221.9,573.8 222.2,573.2 224.1,572.7C225.8,572.2 226.1,571.8 225.3,570.8C224.7,570.1 223.9,563.3 223.5,555.8C223,546.1 222.4,542 221.5,542C220.3,542 219,519.1 217.4,468.8C216.8,451.4 216.9,449 218.3,449C220.4,449 221.1,452.6 220.4,461.1C219.7,471.2 220.8,482 222.5,481.4C223.4,481 223.6,481.7 223.4,483.7C223,486.5 223.1,486.5 223.9,484C224.4,482.6 224.8,478.7 224.9,475.3C225,471.9 225.4,468.9 225.9,468.6C227.1,467.8 228,474.3 227.6,480C227.4,482.5 227.7,494.2 228.2,506C229.4,533.8 229.4,542.9 228.1,547.4C227.6,549.5 227.5,552.1 227.9,553.3C228.4,554.5 228.8,558 228.9,561C229,564 229.3,568.2 229.6,570.3C230.1,573.3 229.8,574.6 228.2,576.3C227.1,577.5 225.9,580.6 225.5,583.3C224.6,589.2 223,589.5 223,583.6Z" style="fill:rgb(243,62,102);fill-rule:nonzero;"/>
                    <path id="pjuavNpXv" d="M262.1,584.1C261.2,582.6 261.3,581.5 262.2,580C263.3,578.2 263.2,577.7 261.6,576.4C260.5,575.6 258.8,575 257.8,575C255.6,575 255.3,571.2 257.5,570.4C259.6,569.5 259.7,555.2 257.6,554.4C256.4,553.9 256.2,552.2 256.6,545.8C256.9,541.3 257.4,537.1 257.9,536.3C258.3,535.5 258.2,532.1 257.7,528.7C257.2,525.3 256.7,520.5 256.7,518C256.7,514.4 256.2,513 253.9,510.7C252.3,509.2 251,507.8 251,507.5C251,506.4 255.9,507.1 261.1,508.8C266.4,510.5 266.6,510.5 268.5,508.8C269.5,507.8 270.5,507.2 270.8,507.4C271.5,508.2 268.9,512 267.6,512C266.8,512 265.7,512.7 265,513.5C263.5,515.3 263.5,524.2 265,526.9C266.4,529.6 266.8,573.3 265.4,575.1C264.8,575.9 264.2,578.5 264.1,580.9C264,586.2 263.5,586.9 262.1,584.1Z" style="fill:rgb(243,62,102);fill-rule:nonzero;"/>
                    <path id="psh4YH3st" d="M300,553.1C300,550.4 299.7,547.5 299.4,546.6C299,545.6 299.3,545 300.3,545C302.3,545 303.5,550.6 302.5,554.9C301.5,559.7 300,558.6 300,553.1Z" style="fill:rgb(243,62,102);fill-rule:nonzero;"/>
                    <path id="p1D5vkNLYw" d="M278,538.5C278,532.9 278.2,532 279.8,532C281.3,532 281.7,532.8 281.8,535.8C282.1,541.1 281.1,545 279.4,545C278.3,545 278,543.4 278,538.5Z" style="fill:rgb(243,62,102);fill-rule:nonzero;"/>
                    <path id="p1BM6K7nsI" d="M290.1,542.9C289.6,541.6 289.4,540.2 289.7,539.8C289.9,539.3 289.6,539 289,539C288.4,539 288.2,538.6 288.5,538C288.8,537.5 288.7,537 288.1,537C286.3,537 285.8,531.3 287.4,528.8C288.5,527.1 288.9,524.6 288.6,520C288,510.3 286.9,501.8 285.7,499C284.4,495.9 284.3,495.4 284.1,493.3C283.9,490.4 282,493.9 281.9,497.5C281.9,499.2 281.6,499.8 281.3,499C281,498.2 280.3,497.2 279.8,496.9C279.3,496.6 278.7,479.2 278.6,456.4C278.4,434.5 277.8,413.4 277.2,409.5C275.9,400.8 275.6,315 276.9,315C278.5,315 279,319.4 279,335.3C279,344 279.5,353.2 280.2,355.7C281,359.2 281,360.7 280.1,362.2C279.5,363.2 279.1,364.4 279.4,364.8C279.9,365.6 281.7,387.7 282.5,402.5C282.8,407.5 283.5,415.3 284.1,420C284.8,424.7 285.4,432.2 285.6,436.8C285.8,441.3 286.4,445.8 286.9,446.8C287.4,447.7 288.1,454.9 288.4,462.7C288.8,470.5 289.6,478.4 290.1,480.2C290.7,482 291.3,487.3 291.5,492C291.7,496.7 292.2,506.6 292.6,514C293.8,538.2 293.8,541.6 292.4,543.5C291.1,545.2 291,545.2 290.1,542.9Z" style="fill:rgb(243,62,102);fill-rule:nonzero;"/>
                    <path id="pWiroI6DT" d="M299.9,542.8C299.8,542.1 299.7,538.1 299.5,534C298.2,494 297.2,474.2 295.9,461.6C295.3,456.2 295.1,451.5 295.4,451.2C295.7,450.9 296,451.3 296,452C296,452.7 296.8,453.9 297.8,454.6C299.2,455.7 299.3,456.1 298.1,456.9C297,457.6 297,457.8 298.1,458.2C299.3,458.6 299.3,458.9 298.1,460.3C297.3,461.3 297.1,462.7 297.5,463.7C299.2,467.6 300.7,480.5 301.4,496.5C302.1,513.3 302.8,520.6 304.1,525.3C305.4,529.8 305.3,537.2 304,538C303.5,538.3 302.8,539.8 302.5,541.3C301.8,544 300.1,545 299.9,542.8Z" style="fill:rgb(243,62,102);fill-rule:nonzero;"/>
                    <path id="phPWfpt6I" d="M212.7,507.8C211.9,506 211.4,502.5 211.6,500C211.7,497.5 211.4,495 211,494.5C210.5,493.9 209.8,489.1 209.4,483.8C208.9,476.1 209.1,473.7 210.2,472.1C213.1,467.9 214,471.8 214.7,491.9C215,502.4 215,511 214.7,511C214.3,511 213.4,509.5 212.7,507.8Z" style="fill:rgb(243,62,102);fill-rule:nonzero;"/>
                    <path id="p14Zya7D0y" d="M243,503.9C243,502.2 241.6,497.7 240,493.9C237.6,488.6 237.1,486.2 237.6,483.5C238.1,480.6 237.7,479.3 235.7,476.6C234.3,474.8 232.8,472 232.4,470.4C232,468.8 230.6,465 229.2,462C227.9,459 225.3,452.1 223.4,446.6C221.6,441.2 219.6,436.2 219.1,435.6C218.5,434.9 217.4,431.1 216.5,427.1C215.7,423.2 214.1,418.1 213.1,415.9C212,413.7 210.8,410.5 210.5,408.7C210.1,406.9 209.6,404.7 209.3,403.6C208.9,402.2 209.1,402 210.1,402.5C210.9,403 210.5,402.2 209.4,400.9C208.2,399.6 206.2,395.4 205,391.5C203.8,387.7 202.1,382.7 201.4,380.5C199.3,374.6 198,366.6 199,365.5C200.5,363.7 200.5,360.3 199.1,358.7C198.3,357.7 197.7,354 197.5,349.5C197.3,344.2 196.7,341.2 195.4,339.3C193.2,336 191,329.5 191,326C191,324.6 190.3,322.2 189.5,320.6C188,317.7 187.5,315 188.6,315C189.4,315 192.6,318.3 192,318.5C191.7,318.6 192.7,320.1 194.2,321.8C196.4,324.4 197.4,324.9 199.5,324.4C200.9,324.1 202.3,323.4 202.6,322.9C202.9,322.4 204.5,322 206.1,322C207.8,322 211.5,320.9 214.3,319.6C217.2,318.3 220.5,316.9 221.8,316.5C224,315.9 224,315.7 222.5,314C221,312.4 221.1,312.3 223.4,312.7C225.4,313.1 225.9,312.7 226.2,310.9C226.4,309.1 227.6,308.1 231,307C233.5,306.2 235.8,305.1 236.1,304.6C236.5,304.2 237.6,304.1 238.7,304.4C239.8,304.8 243.6,304.1 247.1,303C254.7,300.7 257.7,300.4 256.2,302.3C255.7,302.9 255,305.5 254.7,308C252.9,323.2 251.7,330.9 250.6,333.5C248.4,338.4 247,344.5 247,348.6C247,350.8 246.3,356.1 245.5,360.5C243.9,369.6 243.6,384.8 245,387C245.7,388.2 246.2,388.2 247.2,387.2C248.9,385.5 250,385.7 250,387.8C250,388.8 248.9,390.7 247.5,392C245.8,393.6 245.2,395 245.6,396.6C246.5,400.2 245.1,403.3 242.9,402.7C241.9,402.4 241,402.5 241,402.8C240.9,403.2 240.5,405.5 240.1,407.9C239.3,411.8 239.5,412.9 241.6,416.2C242.9,418.3 244.4,420 244.8,420C245.2,420 245.4,421.8 245.2,424.1C244.7,428.8 246.5,433 249,433C250.5,433 250.8,434.5 251.3,443C251.7,450.6 252.3,453.6 253.8,455.7C254.9,457.2 256.1,459.5 256.4,460.8C257.7,464.8 259.5,463.4 259,458.7C258.9,457.7 259.3,456.3 259.8,455.7C260.4,455 260.8,452.4 260.7,449.8C260.5,444.9 262.1,443.1 263,447.1C263.3,448.3 264.1,449.5 264.7,449.7C265.6,450 265.7,448.5 265.4,444.3C265.1,441.1 264.9,437 264.9,435.2C265,432.3 264.7,431.9 263,432.5C260.3,433.3 260.4,431.1 263.1,427.6C264.8,425.5 265.1,423.8 264.9,419.2C264.7,413.5 266.1,408 267.9,408C270.4,408 271,411 270.3,419.6C269.7,427.3 269.5,435.1 269.9,439.3C270.2,441.9 268.1,451 266.7,453.2C265.9,454.5 264.9,457.5 264.6,459.9C264,463.6 264.3,464.9 266.4,468C269.5,472.7 271.4,479.4 270.2,481.7C268,486.2 266.9,494.6 267.9,499C269.6,506.6 266.7,501.3 263.4,491C260.2,480.6 258.2,479.3 256,486.3C253.9,492.9 250.8,498 248.8,498C246.8,498 245.5,501.8 246.5,504.9C247,506.6 246.7,507 245.1,507C243.4,507 243,506.4 243,503.9ZM245.2,480.5C245.2,480 244.7,479.4 244.1,479.2C243.5,479 243,479.6 243,480.5C243,481.4 243.5,482 244.1,481.8C244.7,481.6 245.2,481 245.2,480.5ZM250.8,477.4C251.2,474.5 248.5,472.3 246.5,474C244.7,475.5 244.6,477.2 246.2,478.8C248,480.6 250.4,479.8 250.8,477.4ZM253,462C253,461.4 251.5,457 249.7,452.2C247.9,447.4 245.5,440.9 244.5,437.8C243.4,434.4 242,432 241.2,432C239.5,432 240.3,437.8 242.6,442.3C243.4,443.8 244.4,447.4 244.7,450.3C245.2,455.1 246.6,458.5 249.4,461.7C250.7,463.2 253,463.4 253,462ZM240.5,426.8C240.1,425 239.6,423.2 239.3,422.8C238.6,421.5 236,421.9 236.5,423.3C238.4,428.8 239.1,430 240.1,430C240.8,430 240.9,428.9 240.5,426.8ZM237.4,417.3C237,415.2 236.3,413.2 235.8,412.9C235.3,412.6 235.5,412 236.4,411.7C237.5,411.3 238,409.8 238,407.5C238,405.5 238.7,398 239.4,390.7C240.6,379.7 243.7,351.2 247.9,311.3C248.3,307.3 248.3,304 247.8,304C245.3,304 243.1,308.3 242.5,314.4C242.1,318 241.3,321 240.8,321C240.1,321 240,318.9 240.4,315.1C241.2,308.2 239.7,306 235.2,307.6C232.7,308.5 232.5,309 232.4,314.6C232.4,317.9 231.8,322.1 231,323.9C229.9,326.6 229.9,329.1 231.2,339.8C232.1,346.8 232.7,354.3 232.7,356.5C232.7,358.7 233.1,363.5 233.7,367.1C234.4,371.3 234.5,375.4 233.9,378.5C233.1,382.8 232.5,389.7 232,400C231.9,403.4 231.8,403.3 229.6,397.5C227.4,391.8 225,389.2 225,392.3C225,394.6 230.5,411 233.1,416.3C236,422.2 238.4,422.7 237.4,417.3ZM225.8,365.5C226.4,360.6 226.2,354.5 225.5,351.7C225,349.7 225.2,348.4 226.4,347.1C227.5,345.9 227.8,345 227.1,344.6C226.4,344.1 226.4,343.2 227.3,341.8C228.2,340.2 228.2,339.6 227.3,339.3C226.6,339 226,337.5 226,335.9C226,333.8 226.4,333.2 227.5,333.6C228.3,334 229,333.7 229,333.1C229,332.5 228.6,332 228.1,332C227.5,332 227,330.6 226.8,328.9C226.4,324.3 223.7,323 220.7,325.8C219.4,327 217.6,328 216.8,328C214.1,328 212,329.1 212,330.6C212,331.4 211.3,332 210.5,332C209.5,332 209,331 209,329C209,325.8 208.8,325.7 205.4,326.6C203.5,327.1 203.4,327.5 204.4,331.1C205.1,333.8 206,335 207.2,335C208.2,335 209,334.6 209,334C209,333.5 209.7,333 210.5,333C211.3,333 212,333.6 212,334.3C212,335.1 213.2,336.7 214.6,338.1C216.6,340 217,341.1 216.6,343.4C216.2,345 216.7,348.7 217.7,351.7C219,355.7 219.1,357.3 218.2,357.9C217.4,358.3 218.2,359.8 220.5,362.5C222.4,364.6 224,366.7 224,367.2C224,369.2 225.5,367.7 225.8,365.5ZM213,358.1C213,356.9 211,355.6 210.3,356.3C209.6,357 210.9,359 212.1,359C212.6,359 213,358.6 213,358.1ZM206,343.1C206,341.9 204,340.6 203.3,341.3C202.6,342 203.9,344 205.1,344C205.6,344 206,343.6 206,343.1ZM203.6,338.4C203.3,337.5 203,336.4 203,335.9C203,335.4 202.3,335 201.4,335C200.3,335 200,335.5 200.4,336.6C200.7,337.5 201,338.6 201,339.1C201,339.6 201.7,340 202.6,340C203.7,340 204,339.5 203.6,338.4ZM201.5,333C201.2,332.5 200.2,332 199.4,332C198.6,332 198.2,332.5 198.5,333C198.8,333.6 199.8,334 200.6,334C201.4,334 201.8,333.6 201.5,333Z" style="fill:rgb(243,62,102);fill-rule:nonzero;"/>
                    <path id="prDSfOp8K" d="M233.5,408.7C233,408 232.4,406.6 232.3,405.5C232.2,403.5 232.2,403.5 233.6,405.4C234.4,406.5 235,408 235,408.7C235,410.3 234.8,410.3 233.5,408.7Z" style="fill:rgb(243,62,102);fill-rule:nonzero;"/>
                    <path id="p8SDiVhPZ" d="M235.5,494C235.1,492.8 235,491.6 235.3,491.3C235.6,491.1 236.1,491.8 236.5,493C236.9,494.2 237,495.4 236.7,495.7C236.4,495.9 235.9,495.2 235.5,494Z" style="fill:rgb(243,62,102);fill-rule:nonzero;"/>
                    <path id="pMQnLL9cQ" d="M209.5,461C209.7,452.7 209.8,452 210.8,452C211.9,452 213.5,460 213.2,464.2C213,467 212.5,467.8 211.1,467.7C209.5,467.6 209.3,466.7 209.5,461Z" style="fill:rgb(243,62,102);fill-rule:nonzero;"/>
                    <path id="p11EAz1fUg" d="M217,445.5C217,444.7 216.2,444 215.3,443.9C214.2,443.9 214,443.6 214.8,443.3C215.4,443.1 216,442.1 216,441.2C216,438.9 217.7,440.9 218.5,444.3C219,446 218.8,447 218.1,447C217.5,447 217,446.3 217,445.5Z" style="fill:rgb(243,62,102);fill-rule:nonzero;"/>
                    <path id="pmpxouDqd" d="M294.1,446.3C294,445.6 293.4,440.2 292.6,434.3C290.5,418.9 290.3,416 291.2,416C291.6,416 292.1,417.5 292.4,419.3C294.8,434.1 295.1,437 294.6,437.9C294.3,438.4 294.4,439.9 294.9,441.2C295.3,442.4 295.4,444.4 294.9,445.5C294.5,446.6 294.1,447 294.1,446.3Z" style="fill:rgb(243,62,102);fill-rule:nonzero;"/>
                    <path id="pBFhSUTMd" d="M211.4,437.4C211.7,436.5 212,435.3 212,434.7C212,434 212.5,434.3 213.1,435.3C214.2,437.1 213.6,439 211.8,439C211.3,439 211.1,438.3 211.4,437.4Z" style="fill:rgb(243,62,102);fill-rule:nonzero;"/>
                    <path id="pFoODkaxn" d="M244.5,415C243.4,414.5 243,414.1 243.7,414.1C244.3,414 245.5,413.7 246.4,413.4C247.5,413 248,413.3 248,414.4C248,416.2 247.4,416.3 244.5,415Z" style="fill:rgb(243,62,102);fill-rule:nonzero;"/>
                    <path id="pS8glgotb" d="M289.6,406.5C289.1,403 287.9,388.3 285.3,351.8C284.9,345.5 285,343 285.9,343C286.6,343 287,345 287,348.3C287,351.2 287.7,356.2 288.5,359.3C289.6,363.4 289.8,367.5 289.4,373.8C288.9,379.8 289.2,384.4 290.1,388.1C290.8,391.1 291.3,394.5 291.1,395.8C291,397.1 291.4,398.7 292,399.5C292.8,400.4 292.8,401 292,401.5C291.4,401.9 291.2,403 291.5,403.9C291.8,404.9 291.6,406.8 291.2,408.1C290.3,410.3 290.2,410.2 289.6,406.5Z" style="fill:rgb(243,62,102);fill-rule:nonzero;"/>
                    <path id="puRJbyc8J" d="M267.3,405.8C265.8,403.9 264.8,397.2 265.7,395.7C266.1,395.1 266.5,392 266.5,389C266.5,384.8 266.8,383.5 268,383.5C269.6,383.5 269.9,385.6 270.3,398.7C270.5,405.1 269.2,408.2 267.3,405.8Z" style="fill:rgb(243,62,102);fill-rule:nonzero;"/>
                    <path id="pRSuUdKnk" d="M340,387C340,386.5 340.7,386 341.6,386C342.4,386 342.8,385.6 342.5,385C342.2,384.5 342.4,384 342.9,384C344.3,384 344.3,385.3 342.8,386.8C341.3,388.3 340,388.4 340,387Z" style="fill:rgb(243,62,102);fill-rule:nonzero;"/>
                    <path id="p14cIY9zDC" d="M301,380.4C299.7,377 299.7,376 301.4,376C302.4,376 302.8,377.1 302.7,379.5C302.6,383.7 302.3,383.8 301,380.4Z" style="fill:rgb(243,62,102);fill-rule:nonzero;"/>
                    <path id="pqKcQwVUV" d="M332.5,380.2C333.1,379.8 333.6,378 333.8,376.2C334,372.9 337,365 338.1,365C339,365 338.3,373.3 337.1,376.5C335.9,379.5 334.4,381 332.5,381C331.8,381 331.8,380.7 332.5,380.2Z" style="fill:rgb(243,62,102);fill-rule:nonzero;"/>
                    <path id="pcUXI3QBG" d="M327.3,354.4C327,353.5 327.3,352.4 328.1,351.9C330.3,350.5 330.8,350.8 330.2,353.5C329.7,356.3 328.2,356.8 327.3,354.4Z" style="fill:rgb(243,62,102);fill-rule:nonzero;"/>
                    <path id="pYkUEPf7m" d="M283,326.5C283,324.6 283.2,323 283.4,323C283.6,323 284,324.6 284.2,326.5C284.4,328.4 284.2,330 283.8,330C283.4,330 283,328.4 283,326.5Z" style="fill:rgb(243,62,102);fill-rule:nonzero;"/>
                    <path id="pY1auihx8" d="M287.1,319.8C286.4,315.8 285.6,311 285.3,309.1C284.9,306.6 285.1,305.9 286.1,306.2C287.8,306.8 288.6,309.8 289.5,319.3C290.4,329.2 288.7,329.5 287.1,319.8Z" style="fill:rgb(243,62,102);fill-rule:nonzero;"/>
                    <path id="p1CE4hHlFv" d="M269,304.9C269,300.7 268.7,299.7 267,299.3C265.9,299 265,298.2 265,297.5C265,296.2 269.5,294.6 270.8,295.4C271.8,296 271,310 269.9,310C269.4,310 269,307.7 269,304.9Z" style="fill:rgb(243,62,102);fill-rule:nonzero;"/>
                </g>
            </g>
            <g id="lL2tdAivx96UyhPEHqB5SP" transform="matrix(1,0,0,1,0.620212,0.0434366)">
                <g>
                    <path id="p1A3SsT242" d="M222.1,572.3C219.4,536.3 217.3,475 218.7,475C220.3,475 220.8,478.4 220.9,490.5C221,502.3 222,515.3 222.7,514.6C222.9,514.4 224,509.1 225,502.9L226.8,491.5L227,503.5C227.1,510.1 227.1,516 227,516.5C226.8,517.1 226.8,518.2 226.9,519C227,519.8 227.3,523.4 227.6,526.9L228.2,533.3L225.6,532.6C223.2,532 223,532.2 223,535.5C223,538.7 223.2,538.9 225,537.8C227.7,536.1 228.5,537.4 227,540.9C226.3,542.7 226,545.9 226.4,549.2C226.7,552.1 227.1,557.3 227.3,560.7C227.4,564.1 227.9,567.2 228.3,567.6C228.7,568 229,569.9 229,571.8C229,574.3 228.5,575.3 227,575.7C225.4,576.1 225,577.1 225,580.9C225,583.4 224.6,586.1 224.1,586.8C223.7,587.6 222.8,581.5 222.1,572.3ZM223,520.6C222.1,519.8 221.9,520.5 222.4,523.5C223.1,528.9 223.3,529.1 223.7,525.1C224,523.3 223.6,521.2 223,520.6Z" style="fill:rgb(222,57,96);fill-rule:nonzero;"/>
                    <path id="pL9SmGdyg" d="M277.5,585C276.5,583.3 276.7,566.1 278,542.5C278.7,530 278.9,510.3 278.5,489.8C277.8,457.5 277.8,457 279.8,457C281.4,457 281.9,457.9 282.4,461.5C282.8,464 282.9,466.4 282.6,466.8C282.3,467.3 282,483.2 281.9,502.1C281.9,521 281.4,541.9 280.8,548.5C280.3,555.1 279.7,566.1 279.5,572.8C279.1,585.2 278.8,587.1 277.5,585Z" style="fill:rgb(222,57,96);fill-rule:nonzero;"/>
                    <path id="p2nSKAT8t" d="M301,577.5C301,572.8 300.7,569 300.3,569C299.8,569 299.6,565.6 299.8,561.5C300.3,550.8 301.8,552.2 301.7,563.3C301.7,568.3 302,575.5 302.4,579.3C302.9,583.8 302.8,586 302.1,586C301.4,586 301,582.8 301,577.5Z" style="fill:rgb(222,57,96);fill-rule:nonzero;"/>
                    <path id="pSabasV4v" d="M260.7,575.3C259.3,574.9 259,574.2 259.4,572.7C259.7,571.5 260,569.5 260,568.2C260,566.9 260.4,566.2 261,566.5C261.6,566.8 262,568 262,569.1C262,570.7 262.5,571 264,570.5C266.2,569.8 266.6,571.1 265,574.1C263.9,576.1 263.8,576.1 260.7,575.3Z" style="fill:rgb(222,57,96);fill-rule:nonzero;"/>
                    <path id="pUV1S3uL" d="M261.9,564.2C260.6,564 260.2,562.6 260.1,557.8C260.1,554.4 259.5,550.1 258.9,548.1C257.9,545.1 258,544.5 259.7,543.1C261.2,541.8 261.5,540.6 261.2,537C261,534.5 260.4,532 259.9,531.4C259.4,530.8 259.5,529.9 260.2,529.2C261.1,528.3 261.1,527.7 260.2,526.8C259.5,526.1 259,524.6 259,523.4C259,522.1 258.5,520.8 258,520.5C257.4,520.1 257.3,518.2 257.6,516L258.2,512.1L252.9,509.6C249.9,508.2 246.6,507 245.5,506.8C243.9,506.5 243.4,505.4 242.9,501.4C242.5,498.6 241.8,495.4 241.1,494.2C240.5,493.1 240,491.3 240,490.3C240.1,488.9 240.8,489.3 243,492C245.4,494.7 246,496.4 246,500.1L246,504.7L250.8,506C253.4,506.6 258,508 261,508.9C266.3,510.5 266.7,510.5 268.5,508.8C270.3,507 270.3,506.9 268.3,503.2C266,499.2 262,487.6 262,485.1C262,481.9 263.8,485.7 265.4,492.5C266.4,496.4 268,501 269.1,502.8C270.1,504.6 271,506.7 271,507.4C271,509.3 267.8,511.9 264.9,512.3C262.8,512.7 262.5,513.2 262.4,517.1C262.3,519.5 262.2,522 262,522.5C261.5,524.4 262.2,527.5 263.5,529C264.2,529.9 264.8,533.9 265,539C265.6,562.9 265.4,565 261.9,564.2Z" style="fill:rgb(222,57,96);fill-rule:nonzero;"/>
                    <path id="pFhQEncN4" d="M299.9,549.8C299.9,549.1 299.7,541.5 299.5,533C299.2,524.5 298.8,515.1 298.5,512.3C298.1,508.2 298.3,507 299.4,507C300.4,507 300.9,509.2 301.5,515.1C301.8,519.6 302.9,524.8 303.8,526.6C305.2,529.7 305.2,530.1 303.7,531.8C302.4,533.2 302,535.6 302,542.3C302,547.4 301.6,551 301,551C300.5,551 300,550.4 299.9,549.8Z" style="fill:rgb(222,57,96);fill-rule:nonzero;"/>
                    <path id="pfeU7Hmi1" d="M298,498.5C298,494.2 298.4,491 299,491C299.6,491 300,491.1 300,491.3C300.1,491.4 300.3,494.8 300.7,498.8C301.1,505 301,506 299.6,506C298.3,506 298,504.7 298,498.5Z" style="fill:rgb(222,57,96);fill-rule:nonzero;"/>
                    <path id="pnapYC9oc" d="M235.1,498.8C234.6,497.3 234.5,494.9 234.9,493.3C235.7,490.5 235.7,490.5 236.9,494.9C237.8,497.9 237.8,499.6 237.1,500.3C236.4,501 235.8,500.5 235.1,498.8Z" style="fill:rgb(222,57,96);fill-rule:nonzero;"/>
                    <path id="p45mW0xxK" d="M247,495C245.7,494.1 245.7,493.8 247.3,492.6C248.2,491.9 249,490.8 249,490.1C249,488.4 253.9,481 255,481C256.7,481 256,484.3 253.2,490C250.3,495.8 249.4,496.5 247,495Z" style="fill:rgb(222,57,96);fill-rule:nonzero;"/>
                    <path id="ppJNXsaZY" d="M297.6,479.8C297.2,475.2 296.7,469.3 296.5,466.5C296.1,463.2 296.3,462.2 296.9,463.5C297.3,464.6 298,468.7 298.4,472.5C298.8,476.4 299.3,481.4 299.7,483.8C300,486.3 299.8,488 299.2,488C298.7,488 297.9,484.3 297.6,479.8Z" style="fill:rgb(222,57,96);fill-rule:nonzero;"/>
                    <path id="pgXqZyds4" d="M226.3,478.5C226.3,475.8 226.5,474.7 226.7,476.3C226.9,477.8 226.9,480 226.7,481.3C226.5,482.5 226.3,481.3 226.3,478.5Z" style="fill:rgb(222,57,96);fill-rule:nonzero;"/>
                    <path id="pD80V6gvO" d="M260,479.3C259.3,477.2 257.7,472.9 256.3,469.7C255,466.5 254.3,463.4 254.6,462.8C255.1,462.1 255.6,462.5 256.2,463.9C256.6,465.1 257.4,465.9 257.9,465.5C259,464.9 263,476.8 263,480.6C263,484.2 261.3,483.5 260,479.3Z" style="fill:rgb(222,57,96);fill-rule:nonzero;"/>
                    <path id="pFHJLecmr" d="M217.6,469.8C216.8,463.3 216.4,440.1 217.1,440.6C219.1,441.8 220.2,451.8 220,468.3C220,475 218.4,475.9 217.6,469.8Z" style="fill:rgb(222,57,96);fill-rule:nonzero;"/>
                    <path id="p18aEIMfnt" d="M295.6,457.3C295.3,455.8 293.9,445.3 292.5,434.1C290.2,415 289.6,408.1 290.6,410.5C291.3,412.3 297.1,459.3 296.6,459.7C296.4,460 295.9,458.9 295.6,457.3Z" style="fill:rgb(222,57,96);fill-rule:nonzero;"/>
                    <path id="pYUlQOJgY" d="M250.2,453.3C249.7,452.3 247.8,447.5 246.1,442.5C244.4,437.6 241.7,429.7 240,425C238.4,420.4 237,415.8 237,414.9C237,413.9 236.4,412.9 235.8,412.7C235,412.4 235.2,412.1 236.3,412.1C237.4,412 238,411.2 238,409.5C238,408.1 238.5,407 239.1,407C239.8,407 240,408.1 239.6,410C239.2,412.1 239.9,415.2 241.6,419.8C243,423.5 245.1,428.8 246.1,431.5C247.1,434.3 248,437.8 248,439.4C248,440.9 248.6,443.6 249.3,445.3C251.8,451.1 252.8,455 251.9,455C251.5,455 250.7,454.2 250.2,453.3Z" style="fill:rgb(222,57,96);fill-rule:nonzero;"/>
                    <path id="pqimr40Ak" d="M277.5,444.8C277.1,440.2 277,432.2 277.1,427C277.3,421.8 277.3,413.5 277.2,408.5C276.8,396.3 276.8,396 278.4,396C279.9,396 281.1,402.2 281.1,409C281,410.9 281.4,420.6 281.8,430.5C282.7,450.8 282.5,453 280,453C278.4,453 278.1,451.8 277.5,444.8Z" style="fill:rgb(222,57,96);fill-rule:nonzero;"/>
                    <path id="p2wb49LNQ" d="M289.7,407C289.3,405.6 289.1,403.2 289.1,401.5L289.2,398.5L290.1,401.9C290.7,403.7 291,406.2 290.8,407.4C290.5,409.4 290.4,409.3 289.7,407Z" style="fill:rgb(222,57,96);fill-rule:nonzero;"/>
                    <path id="pJBKpHmAg" d="M230.1,399.1C228.4,394.7 227,390.8 227,390.5C227,389.8 216.3,364.6 215,362.1C211.9,356.4 202.8,335.3 202.3,332.9C202,331.3 201.4,330 201,330C200.6,330 199.4,328.8 198.5,327.3C197,325.1 197,324.8 198.3,325.3C199.2,325.6 200,325.4 200.2,324.9C200.4,324.3 203.6,323.4 207.3,322.7C211,322.1 214,321.3 214,320.8C214,319.7 221.6,317.9 223.4,318.6C226.2,319.7 225.1,317.2 219.9,311C217.1,307.6 215,304.7 215.3,304.4C215.5,304.2 216.3,304.6 216.9,305.4C217.6,306.2 218.8,306.6 219.7,306.3C220.5,306 221.5,306.2 221.9,306.8C222.3,307.4 223.5,308 224.5,308.2C227.2,308.5 236,305.8 236,304.7C236,304.2 237.1,304 238.3,304.4C239.6,304.7 242.2,304.5 244,304C245.9,303.5 247.6,303.2 247.8,303.4C248.7,304.4 241.8,307 238.3,307C232.6,307 231.6,308.1 231.9,313.8C232.1,320.2 229.4,324 224.5,324C222.7,324 220.7,324.6 220,325.4C219.4,326.2 217.4,327 215.7,327.2C212.7,327.5 212.5,327.7 212.2,332C212,335 212.8,339.1 214.6,344C216,348.1 217.9,354 218.8,357.1C219.8,360.2 221,363.3 221.6,364.1C224,367.1 226.8,373.7 228,379.2C228.6,382.4 229.6,385.2 230.1,385.6C230.6,385.9 230.8,388.2 230.4,390.8C230,394.3 230.3,396.9 231.9,400.9C233,403.9 233.8,406.6 233.6,406.8C233.4,407 231.8,403.5 230.1,399.1Z" style="fill:rgb(222,57,96);fill-rule:nonzero;"/>
                    <path id="p64OF7qs9" d="M238.4,400.8C238.7,399 239.7,390.3 240.5,381.5C242.1,365.3 244.2,346.4 246,331C246.6,326.3 247.3,319.4 247.6,315.5C247.9,311.7 248.3,307.6 248.5,306.5C248.7,305.4 248.9,303.9 248.9,303.3C249,302.6 250.8,301.7 253.1,301.4C255.3,301 257.7,300.2 258.3,299.5C260.5,297.4 270.1,294.7 271.3,295.9C272.5,297.1 271.5,297.6 262.9,300C259.9,300.8 256,302.7 254.3,304.1C251.7,306.3 251.1,307.6 250.6,313.1C250.2,316.6 249.3,324.2 248.5,330C247.1,340.4 244.7,362.6 243.5,377C241.4,400.7 240.9,404 239.3,404C238.1,404 237.9,403.2 238.4,400.8Z" style="fill:rgb(222,57,96);fill-rule:nonzero;"/>
                    <path id="pFq40Zf6a" d="M288.8,396C288.4,394.6 288.1,391.9 288.1,390L288.2,386.5L289.1,389.9C289.7,391.7 290,394.4 289.8,395.9L289.5,398.5L288.8,396Z" style="fill:rgb(222,57,96);fill-rule:nonzero;"/>
                    <path id="p8CvUzot2" d="M276.6,385.8C275.4,381.2 275.9,375 277.5,375C278.7,375 279,376.4 279,381.5C279,387.9 277.8,390.1 276.6,385.8Z" style="fill:rgb(222,57,96);fill-rule:nonzero;"/>
                    <path id="pHXgM2cwn" d="M287.8,382.5C287.5,381.1 287.7,380 288.1,380C288.6,380 289,381.1 289,382.5C289,383.9 288.8,385 288.6,385C288.4,385 288,383.9 287.8,382.5Z" style="fill:rgb(222,57,96);fill-rule:nonzero;"/>
                    <path id="pMAcxIygy" d="M287.3,375.5C287.3,373.3 287.5,372.5 287.7,373.8C287.9,375 287.9,376.8 287.7,377.8C287.4,378.7 287.2,377.7 287.3,375.5Z" style="fill:rgb(222,57,96);fill-rule:nonzero;"/>
                    <path id="pFXbh12S7" d="M298.3,373.6C297.7,372.8 297.3,372 297.5,371.8C297.7,371.6 297.3,369 296.4,366C294.7,359.7 292.1,348.4 291,342.5C290.1,337.9 283,293.4 283,292.6C283,292 290.5,288 291.5,288C291.8,288 292,288.5 292,289C292,289.6 291.3,290 290.5,290C289.6,290 288.7,290.6 288.4,291.4C288.1,292.2 287.2,292.6 286.4,292.3C284.7,291.7 284.7,292.3 286.5,302.9C287.3,307.6 288.9,317.8 290.1,325.5C291.9,337.4 297.5,365.3 299.6,372.8C300.3,375.3 300,375.5 298.3,373.6Z" style="fill:rgb(222,57,96);fill-rule:nonzero;"/>
                    <path id="p16mIHwePO" d="M276,367C276,361.8 277.3,360.3 278.4,364.3C279.5,368.4 279.1,372 277.5,372C276.4,372 276,370.8 276,367Z" style="fill:rgb(222,57,96);fill-rule:nonzero;"/>
                    <path id="pInKcqJWv" d="M286.7,368.1C286.3,366.3 286,363.3 286.1,361.6L286.2,358.5L287.1,361.9C287.7,363.7 288,366.6 287.8,368.4L287.5,371.5L286.7,368.1Z" style="fill:rgb(222,57,96);fill-rule:nonzero;"/>
                    <path id="pOZ8IKAlt" d="M285.7,356C285.3,354.6 285.1,351 285.1,348L285.3,342.5L286.1,349.4C287.1,356.7 286.8,360.2 285.7,356Z" style="fill:rgb(222,57,96);fill-rule:nonzero;"/>
                    <path id="p1DgHstG2m" d="M276,340C276,332.3 276.4,326 276.8,326C277.2,326 277.6,332.3 277.6,340C277.7,347.7 277.3,354 276.9,354C276.4,354 276,347.7 276,340Z" style="fill:rgb(222,57,96);fill-rule:nonzero;"/>
                    <path id="pdBCnSaYB" d="M276.1,306.8C276.1,302.9 276.4,302 277,303.5C278.2,306.3 278.2,312 277,312C276.5,312 276,309.6 276.1,306.8Z" style="fill:rgb(222,57,96);fill-rule:nonzero;"/>
                    <path id="p17EwPZxJv" d="M209.7,300.5C207.6,298.7 206.3,296.9 206.8,296.6C207.7,296 207.2,285.1 206.1,283.5C205.7,283 205.7,280.7 206,278.5C206.6,274.8 206.7,275 207.3,281.5C208.8,295.6 209.3,297.3 211.7,297.5C214.8,297.7 215.3,298.5 214.4,301.3L213.5,303.8L209.7,300.5Z" style="fill:rgb(222,57,96);fill-rule:nonzero;"/>
                </g>
            </g>
            <g id="l1R1R7ikEXWcW85vBjK6jLF" transform="matrix(1,0,0,1,0.620212,0.0434366)">
                <g>
                    <path id="p7qvsTqWk" d="M223.2,581C223.2,579.1 223.4,578.3 223.7,579.3C223.9,580.2 223.9,581.8 223.7,582.8C223.4,583.7 223.2,582.9 223.2,581Z" style="fill:rgb(152,4,42);fill-rule:nonzero;"/>
                    <path id="pnMbbVjb1" d="M222.6,573.7C222.3,572.4 221.2,551.6 220.1,527.4C217,457.7 216.8,453 217.8,453C218.6,453 219.6,467.9 220.5,495C220.7,500.8 221.4,516.1 221.9,529C223.8,571.2 224,576 223.6,576C223.4,576 223,575 222.6,573.7Z" style="fill:rgb(152,4,42);fill-rule:nonzero;"/>
                    <path id="p11hlR1YVm" d="M300.2,553C300.2,547.4 300.4,545.2 301,546.5C302.1,549 302.1,555.7 301,559C300.5,560.7 300.2,558.7 300.2,553Z" style="fill:rgb(152,4,42);fill-rule:nonzero;"/>
                    <path id="pZwOXqzMC" d="M299.7,528.3C299.3,521.2 298.8,512 298.4,507.8C297.9,502.5 298.1,500 298.8,500C299.4,500 300.1,501.2 300.4,502.8C301.2,506.5 301.6,539.7 300.9,540.4C300.6,540.8 300,535.3 299.7,528.3Z" style="fill:rgb(152,4,42);fill-rule:nonzero;"/>
                    <path id="pilwYGZJu" d="M279,512.9C279,508.3 278.7,487.5 278.3,466.8C277.8,431.6 277.8,429 279.4,429C280.9,429 281.1,430.1 280.8,439.5C280.6,445.3 280.8,450 281.3,450C281.7,450 282,452.3 282,455C282,457.8 281.6,460 281,460C279.8,460 279.8,503.9 281.1,508.2C281.6,510 281.6,511.6 281.2,511.9C280.7,512.3 280.3,514.3 280.1,516.5C279.7,523.7 279,521.5 279,512.9Z" style="fill:rgb(152,4,42);fill-rule:nonzero;"/>
                    <path id="p1DkmtOTK3" d="M298,488.8C298,485.3 297.8,478.7 297.6,474L297.1,465.5L298.5,476C300.1,489 300.3,495 299,495C298.4,495 298,492.2 298,488.8Z" style="fill:rgb(152,4,42);fill-rule:nonzero;"/>
                    <path id="pT2DprbxH" d="M262,485.8C260.8,481.8 257.7,472.9 255,466C249.2,450.8 248.6,449 249.7,449C250.2,449 251.4,451.1 252.4,453.8C253.4,456.4 255,460.5 256,463C257,465.5 258.8,469.9 259.9,472.9C262.1,478.4 265.3,492 264.6,492.7C264.4,492.9 263.2,489.8 262,485.8Z" style="fill:rgb(152,4,42);fill-rule:nonzero;"/>
                    <path id="p1Dx73SGm6" d="M296.3,461C296.3,458.5 296.5,457.5 296.7,458.8C296.9,460 296.9,462 296.7,463.3C296.5,464.5 296.3,463.5 296.3,461Z" style="fill:rgb(152,4,42);fill-rule:nonzero;"/>
                    <path id="pR19wi6lX" d="M295.2,452C295.2,450.1 295.4,449.3 295.7,450.3C295.9,451.2 295.9,452.8 295.7,453.8C295.4,454.7 295.2,453.9 295.2,452Z" style="fill:rgb(152,4,42);fill-rule:nonzero;"/>
                    <path id="pW7cWVhwj" d="M217.1,444.8C217.1,441.5 217.3,441 218,442.5C219.2,445.3 219.2,449 218,449C217.5,449 217,447.1 217.1,444.8Z" style="fill:rgb(152,4,42);fill-rule:nonzero;"/>
                    <path id="pOShaJUO8" d="M243.9,435.3C236.9,417.1 236.9,417.2 238,407C238.6,401.8 239.7,391 240.5,383C242.3,365.7 244.5,345.1 246.5,328C247.3,321.1 248.2,312.8 248.5,309.5C249.1,302.7 249.4,302.3 253.9,301.4C256.4,300.9 257.1,301 256.6,301.8C256.2,302.5 255,303 253.9,303C251.5,303 250,306.6 250,312.5C250,314.8 248.9,325.5 247.5,336.1C246.2,346.8 244.2,365.6 243,378C241.9,390.4 240.5,403.7 239.8,407.5C239.2,411.4 238.7,415.3 238.9,416.3C239.2,418.2 244.3,431.2 246,434.2C247.3,436.5 247.3,438 246,438C245.4,438 244.5,436.8 243.9,435.3Z" style="fill:rgb(152,4,42);fill-rule:nonzero;"/>
                    <path id="p5Q5Bh1zD" d="M290.3,409.5C290.3,407.3 290.5,406.5 290.7,407.8C290.9,409 290.9,410.8 290.7,411.8C290.4,412.7 290.2,411.7 290.3,409.5Z" style="fill:rgb(152,4,42);fill-rule:nonzero;"/>
                    <path id="p11GH8LIgy" d="M289.3,397.5C289.3,394.8 289.5,393.7 289.7,395.3C289.9,396.8 289.9,399 289.7,400.3C289.5,401.5 289.3,400.3 289.3,397.5Z" style="fill:rgb(152,4,42);fill-rule:nonzero;"/>
                    <path id="p9Qg3dcbO" d="M288.3,386C288.3,383.5 288.5,382.5 288.7,383.8C288.9,385 288.9,387 288.7,388.3C288.5,389.5 288.3,388.5 288.3,386Z" style="fill:rgb(152,4,42);fill-rule:nonzero;"/>
                    <path id="pxDk5RmtT" d="M276.8,384.3C276.5,383.3 276.3,374 276.2,363.5C276.1,341 277.4,344.2 278.5,369.3C279,380.2 278.9,386 278.2,386C277.7,386 277,385.2 276.8,384.3Z" style="fill:rgb(152,4,42);fill-rule:nonzero;"/>
                    <path id="pSyyg6Teh" d="M222.9,380.3C216,364.2 211.4,353.8 208.9,348.8C205.5,342 205.5,342 208,342C209.1,342 210,342.7 210,343.5C210,344.3 210.6,345 211.4,345C212.1,345 213,346 213.3,347.3C213.5,348.5 215,352.7 216.5,356.5C217.9,360.4 219.5,364.6 219.9,366C220.4,367.4 222.1,371.3 223.9,374.7C227,381 227.9,385 226,385C225.4,385 224,382.9 222.9,380.3Z" style="fill:rgb(152,4,42);fill-rule:nonzero;"/>
                    <path id="p11XqeDigR" d="M287.3,371.5C287.3,369.3 287.5,368.5 287.7,369.8C287.9,371 287.9,372.8 287.7,373.8C287.4,374.7 287.2,373.7 287.3,371.5Z" style="fill:rgb(152,4,42);fill-rule:nonzero;"/>
                    <path id="paLOiHULz" d="M294.1,355.8C291.5,344.8 285.4,309 284.7,300.5C283.7,290.2 285.8,299 288,314.9C289.1,322.9 291.6,337.2 293.5,346.8C297.3,365.3 297.7,371.4 294.1,355.8Z" style="fill:rgb(152,4,42);fill-rule:nonzero;"/>
                    <path id="p8Vr2YLKr" d="M286.3,358.5C286.3,356.3 286.5,355.5 286.7,356.8C286.9,358 286.9,359.8 286.7,360.8C286.4,361.7 286.2,360.7 286.3,358.5Z" style="fill:rgb(152,4,42);fill-rule:nonzero;"/>
                    <path id="pqm4bbThF" d="M201.8,333.7C199.5,328.2 199.5,327 202,327C206.6,327 225.7,319.3 228,316.5C229.6,314.6 232,314.6 232,316.3C232,318.3 228.7,321 226.3,321C225.2,321 221.3,322.3 217.7,324C212.2,326.5 211.1,327.4 210.7,329.7L210.3,332.5L210.1,329.8C210,326.6 209.4,326.4 206.9,328.6C205.2,330.1 205.2,330.5 206.5,333.7C208.4,338.2 208.4,338 205.8,338C204,338 203.1,337 201.8,333.7Z" style="fill:rgb(152,4,42);fill-rule:nonzero;"/>
                    <path id="p1C824uZvH" d="M276.2,313.3C276.3,300 276.5,298 277,303.5C278.1,314.3 278.1,328.8 277,329.5C276.3,329.9 276.1,324.3 276.2,313.3Z" style="fill:rgb(152,4,42);fill-rule:nonzero;"/>
                    <path id="pZ6UhdG8m" d="M222.2,313.7C219.7,311.1 219.3,308.8 221.3,309.6C222.1,309.9 225,309.2 227.9,308L233.1,306L232.4,308.2C232,309.5 231.7,311.1 231.7,311.8C231.7,313.3 229.5,312.8 229.4,311.2C229.1,309 229,308.9 226.9,310C225.3,310.9 225,311.8 225.4,313.6C226.2,316.6 225,316.7 222.2,313.7Z" style="fill:rgb(152,4,42);fill-rule:nonzero;"/>
                    <path id="p90QJVAXr" d="M241,305.2C243.4,303.7 248.7,302.7 247.5,303.9C246.9,304.5 244.9,305.2 243,305.5C240.6,305.9 240,305.8 241,305.2Z" style="fill:rgb(152,4,42);fill-rule:nonzero;"/>
                </g>
            </g>
            <g id="l2AaT6MAwlUTIKCcJsuBvMN" transform="matrix(1,0,0,1,0.620212,0.0434366)">
                <g>
                    <path id="pIpG3Tdki" d="M223.3,577C223.3,574.5 223.5,573.5 223.7,574.8C223.9,576 223.9,578 223.7,579.3C223.5,580.5 223.3,579.5 223.3,577Z" style="fill:rgb(124,0,26);fill-rule:nonzero;"/>
                    <path id="pAOBisVtx" d="M222.3,562.5C222.3,559.8 222.5,558.7 222.7,560.3C222.9,561.8 222.9,564 222.7,565.3C222.5,566.5 222.3,565.3 222.3,562.5Z" style="fill:rgb(124,0,26);fill-rule:nonzero;"/>
                    <path id="p1GvaGNSLk" d="M220.7,534.6C220.3,523.2 220.1,513.6 220.3,513.3C220.9,512.7 222.3,546.5 221.8,551.5C221.7,553.7 221.1,546.1 220.7,534.6Z" style="fill:rgb(124,0,26);fill-rule:nonzero;"/>
                    <path id="pTDBaJVp0" d="M300.4,536.5C300.4,526.1 300.6,521.9 300.7,527.3C300.9,532.7 300.9,541.2 300.7,546.3C300.6,551.4 300.4,547 300.4,536.5Z" style="fill:rgb(124,0,26);fill-rule:nonzero;"/>
                    <path id="p2Q86WckU" d="M298.8,507.5C298.3,502 298.1,493.7 298.1,489L298.3,480.5L299.2,489C299.7,493.7 299.9,502 299.8,507.5L299.5,517.5L298.8,507.5Z" style="fill:rgb(124,0,26);fill-rule:nonzero;"/>
                    <path id="pLfTetfRI" d="M219.4,495C219.4,489.8 219.5,487.6 219.7,490.3C219.9,492.9 219.9,497.1 219.7,499.8C219.5,502.4 219.4,500.2 219.4,495Z" style="fill:rgb(124,0,26);fill-rule:nonzero;"/>
                    <path id="p1Clxp6S2K" d="M259.3,476.5C258.2,473.5 257.5,471 258,471C258.8,471 260.6,475 261.6,479.3C262.6,483.6 261.7,482.5 259.3,476.5Z" style="fill:rgb(124,0,26);fill-rule:nonzero;"/>
                    <path id="p15qLTJWGE" d="M218.2,471.4C218.1,467 217.8,458.4 217.5,452.4C217.1,444.1 217.3,442.3 218,444.7C218.6,446.6 218.9,454.9 218.7,463.7C218.6,472.4 218.3,475.9 218.2,471.4Z" style="fill:rgb(124,0,26);fill-rule:nonzero;"/>
                    <path id="pSpMvjjYs" d="M254.1,462.9C253.5,461.1 253.2,459.5 253.4,459.3C253.6,459.1 254.3,460.3 254.9,462.1C255.5,463.9 255.8,465.5 255.6,465.7C255.4,465.9 254.7,464.7 254.1,462.9Z" style="fill:rgb(124,0,26);fill-rule:nonzero;"/>
                    <path id="pUdXDVWI8" d="M249.9,452.4C248.6,448.9 244,435.8 244,435.3C244,435.1 244.7,435 245.5,435C246.3,435 247,435.8 247,436.8C247,437.7 248.2,442 249.5,446.4C252,454 252.2,458.3 249.9,452.4Z" style="fill:rgb(124,0,26);fill-rule:nonzero;"/>
                    <path id="piO12UGex" d="M278,435C278,433.9 278.7,433 279.5,433C280.3,433 281,433.9 281,435C281,436.1 280.3,437 279.5,437C278.7,437 278,436.1 278,435Z" style="fill:rgb(124,0,26);fill-rule:nonzero;"/>
                    <path id="pwsYt0H3P" d="M277.6,428.9C277.3,427.2 277.1,410.2 277.2,391.1C277.3,354.2 277.7,355.7 279.9,401.5C281.3,430.6 281.3,432 279.6,432C278.9,432 278,430.6 277.6,428.9Z" style="fill:rgb(124,0,26);fill-rule:nonzero;"/>
                    <path id="pvZn362RR" d="M226.2,388.3C223.9,382.4 222.3,377.4 222.6,377.1C224,375.6 227,381.6 228.8,389.5C229.9,394.4 230.7,398.6 230.6,398.8C230.4,398.9 228.5,394.2 226.2,388.3Z" style="fill:rgb(124,0,26);fill-rule:nonzero;"/>
                    <path id="pUwmy41Cx" d="M240.2,392C240.2,390.1 240.4,389.3 240.7,390.3C240.9,391.2 240.9,392.8 240.7,393.8C240.4,394.7 240.2,393.9 240.2,392Z" style="fill:rgb(124,0,26);fill-rule:nonzero;"/>
                    <path id="pgl2jS0TW" d="M241.3,382.5C241.3,380.3 241.5,379.5 241.7,380.8C241.9,382 241.9,383.8 241.7,384.8C241.4,385.7 241.2,384.7 241.3,382.5Z" style="fill:rgb(124,0,26);fill-rule:nonzero;"/>
                    <path id="pp5ZDWUlW" d="M242.3,371.5C242.3,368.8 242.5,367.7 242.7,369.3C242.9,370.8 242.9,373 242.7,374.3C242.5,375.5 242.3,374.3 242.3,371.5Z" style="fill:rgb(124,0,26);fill-rule:nonzero;"/>
                    <path id="pBoTfONQR" d="M243.2,363C243.2,361.1 243.4,360.3 243.7,361.3C243.9,362.2 243.9,363.8 243.7,364.8C243.4,365.7 243.2,364.9 243.2,363Z" style="fill:rgb(124,0,26);fill-rule:nonzero;"/>
                    <path id="pIFFpwIbR" d="M214.1,360C211.9,354.8 211,347.2 213.2,351.8C213.8,353 214.7,354 215.2,354C215.7,354 215.8,354.5 215.5,355C215.2,355.6 215.3,356 215.9,356C216.5,356 216.7,357.2 216.4,358.9C215.9,361 216.2,361.9 217.3,362.2C218.5,362.4 218.6,362.7 217.5,363.7C216.5,364.7 215.8,363.9 214.1,360Z" style="fill:rgb(124,0,26);fill-rule:nonzero;"/>
                    <path id="pncvwqbqT" d="M244.3,353.5C244.3,351.3 244.5,350.5 244.7,351.8C244.9,353 244.9,354.8 244.7,355.8C244.4,356.7 244.2,355.7 244.3,353.5Z" style="fill:rgb(124,0,26);fill-rule:nonzero;"/>
                    <path id="pHEYFABCX" d="M203,336.7L197.5,325.4L200.7,326.4C202.5,327 203.9,327.9 203.8,328.5C203.5,330.1 205.2,334.4 206.5,335.5C208.4,337 210.5,344.3 209.2,344.8C208.6,345 208.4,345.8 208.7,346.6C209,347.4 209,348 208.8,348C208.6,348 206,342.9 203,336.7Z" style="fill:rgb(124,0,26);fill-rule:nonzero;"/>
                    <path id="ps2yal7ey" d="M245.3,343.5C245.3,341.3 245.5,340.5 245.7,341.8C245.9,343 245.9,344.8 245.7,345.8C245.4,346.7 245.2,345.7 245.3,343.5Z" style="fill:rgb(124,0,26);fill-rule:nonzero;"/>
                    <path id="pgZfxKHRg" d="M246.3,335.5C246.3,333.3 246.5,332.5 246.7,333.8C246.9,335 246.9,336.8 246.7,337.8C246.4,338.7 246.2,337.7 246.3,335.5Z" style="fill:rgb(124,0,26);fill-rule:nonzero;"/>
                    <path id="p12A2UxRR3" d="M247.3,326.5C247.3,324.3 247.5,323.5 247.7,324.8C247.9,326 247.9,327.8 247.7,328.8C247.4,329.7 247.2,328.7 247.3,326.5Z" style="fill:rgb(124,0,26);fill-rule:nonzero;"/>
                    <path id="p1eM67cGO" d="M247.5,319.8C247.7,319.1 248.1,315.1 248.5,311C248.8,306.9 249.4,303.3 249.6,303C249.9,302.7 249.9,305.9 249.6,310C249.4,314.1 249.1,318.3 249.1,319.3C249,320.2 248.6,321 248,321C247.5,321 247.2,320.4 247.5,319.8Z" style="fill:rgb(124,0,26);fill-rule:nonzero;"/>
                    <path id="pgqkN8Yro" d="M227.2,317.4C228.2,316.3 229.1,314.4 229.3,313.2C230,308.6 231.7,308.8 231.8,313.5C232,316.8 231.6,318 230.6,318C229.8,318 228.3,318.3 227.3,318.7C225.6,319.3 225.6,319.2 227.2,317.4Z" style="fill:rgb(124,0,26);fill-rule:nonzero;"/>
                    <path id="pdf2KMZLK" d="M222.2,313.7C219.5,310.8 219.4,309 222,309.7C223.1,310 223.8,310.6 223.5,311C223.2,311.4 223.7,312.3 224.5,313C226.1,314.4 226.5,316 225.2,316C224.7,316 223.4,315 222.2,313.7Z" style="fill:rgb(124,0,26);fill-rule:nonzero;"/>
                </g>
            </g>
        </g>
    </g>
</svg>
