<?xml version="1.0" encoding="UTF-8" standalone="no"?>
<!DOCTYPE svg PUBLIC "-//W3C//DTD SVG 1.1//EN" "http://www.w3.org/Graphics/SVG/1.1/DTD/svg11.dtd">
<svg width="100%" height="100%" viewBox="0 0 12 12" version="1.1" xmlns="http://www.w3.org/2000/svg" xmlns:xlink="http://www.w3.org/1999/xlink" xml:space="preserve" xmlns:serif="http://www.serif.com/" style="fill-rule:evenodd;clip-rule:evenodd;stroke-linejoin:round;stroke-miterlimit:2;">
    <g transform="matrix(0.826462,0,0,0.816101,6.13462,6.07988)">
        <g transform="matrix(1,0,0,1,-7.5,-7.5)">
            <clipPath id="_clip1">
                <rect x="0" y="0" width="15" height="15"/>
            </clipPath>
            <g clip-path="url(#_clip1)">
                <g id="ArtBoard1" transform="matrix(1,0,0,1,-0.0717553,-0.142427)">
                    <rect x="0.072" y="0.142" width="14.431" height="14.555" style="fill:none;"/>
                    <g>
                        <g id="l2W8F41OpcyKkWU9Dm95LQP" transform="matrix(0.3,0,0,0.3,0.0717553,0.142427)">
                            <g>
                                <rect id="pfpSjCZa" x="0" y="45" width="1.8" height="3.6" style="fill:rgb(68,144,168);fill-rule:nonzero;"/>
                                <path id="pIOkgGvs1" d="M45.66,47.49C45.75,46.41 45.81,46.35 46.89,46.26L48,46.17L48,48.6L45.57,48.6L45.66,47.49Z" style="fill:rgb(68,144,168);fill-rule:nonzero;"/>
                                <path id="pKFdlUl2H" d="M22.56,39.09L22.65,33.75L23.79,33.66L24.9,33.57L24.9,35.79C24.9,37.02 24.81,39.45 24.69,41.19L24.51,44.4L22.5,44.4L22.56,39.09Z" style="fill:rgb(68,144,168);fill-rule:nonzero;"/>
                                <path id="pleqYqlMO" d="M0,39.45C0,37.56 0.03,37.5 0.75,37.5C1.47,37.5 1.5,37.56 1.5,39.45C1.5,41.34 1.47,41.4 0.75,41.4C0.03,41.4 0,41.34 0,39.45Z" style="fill:rgb(68,144,168);fill-rule:nonzero;"/>
                                <path id="p1B1B4K8gW" d="M22.8,30.3L22.8,25.2L23.82,25.2C24.72,25.2 24.87,25.32 25.05,26.1C25.17,26.58 25.14,27.72 25.05,28.65C24.84,30.3 24.81,30.3 23.82,30.3L22.8,30.3Z" style="fill:rgb(68,144,168);fill-rule:nonzero;"/>
                                <rect id="pGmD8ywgJ" x="0" y="23.4" width="1.8" height="6" style="fill:rgb(68,144,168);fill-rule:nonzero;"/>
                                <path id="pjY99bt72" d="M45.51,25.59C45.15,25.26 45.27,23.55 45.66,23.16C45.87,22.95 46.47,22.8 47.01,22.8C48,22.8 48,22.8 48,24.3L48,25.8L46.86,25.8C46.23,25.8 45.6,25.71 45.51,25.59Z" style="fill:rgb(68,144,168);fill-rule:nonzero;"/>
                                <rect id="pM2s4Bx19" x="39.3" y="23.1" width="3.6" height="2.1" style="fill:rgb(68,144,168);fill-rule:nonzero;"/>
                                <path id="pij47buDb" d="M22.71,20.79C22.59,20.7 22.5,20.01 22.5,19.29L22.5,18L24.9,18L24.9,21L23.91,21C23.34,21 22.8,20.91 22.71,20.79Z" style="fill:rgb(68,144,168);fill-rule:nonzero;"/>
                                <rect id="pKT1Uvyxc" x="45.9" y="15.3" width="2.1" height="3" style="fill:rgb(68,144,168);fill-rule:nonzero;"/>
                                <path id="pb8LKdmrr" d="M22.68,16.02C22.44,15.42 22.44,13.56 22.68,12.69C22.83,12.15 23.1,12 23.88,12L24.9,12L24.9,16.5L23.88,16.5C23.22,16.5 22.8,16.32 22.68,16.02Z" style="fill:rgb(68,144,168);fill-rule:nonzero;"/>
                                <rect id="pMJ9e4PUX" x="22.8" y="3.9" width="2.1" height="5.7" style="fill:rgb(68,144,168);fill-rule:nonzero;"/>
                                <path id="p1FGsWnvwk" d="M0,4.05C0,3.12 0.09,3 0.75,3C1.41,3 1.5,3.12 1.5,4.05C1.5,4.98 1.41,5.1 0.75,5.1C0.09,5.1 0,4.98 0,4.05Z" style="fill:rgb(68,144,168);fill-rule:nonzero;"/>
                                <path id="pzb2W2iNN" d="M0,2.49L0,0L8.7,0L8.7,2.1L5.49,2.1C3.69,2.1 1.74,2.19 1.14,2.28L0,2.49Z" style="fill:rgb(68,144,168);fill-rule:nonzero;"/>
                                <path id="pDl7dbmHC" d="M44.79,2.19C43.89,2.07 43.8,1.98 43.8,1.02L43.8,0L48,0L48,1.2C48,2.4 48,2.4 46.89,2.34C46.26,2.34 45.3,2.25 44.79,2.19Z" style="fill:rgb(68,144,168);fill-rule:nonzero;"/>
                                <path id="pCnJnD4pC" d="M14.79,1.89C14.58,1.83 14.4,1.35 14.4,0.87C14.4,0.03 14.46,0 15.75,0C17.1,0 17.1,0 17.1,1.05C17.1,2.04 17.04,2.1 16.14,2.07C15.6,2.07 14.97,1.98 14.79,1.89Z" style="fill:rgb(68,144,168);fill-rule:nonzero;"/>
                                <rect id="pNfjgkLuY" x="37.2" y="0" width="3.3" height="2.1" style="fill:rgb(68,144,168);fill-rule:nonzero;"/>
                                <rect id="p8ZJPIbhD" x="24" y="0" width="3.6" height="1.8" style="fill:rgb(68,144,168);fill-rule:nonzero;"/>
                                <rect id="p7ClYm44m" x="29.1" y="0" width="3.9" height="1.8" style="fill:rgb(68,144,168);fill-rule:nonzero;"/>
                            </g>
                        </g>
                        <g id="l7QbCWly4kBYageqOtP4fXz" transform="matrix(0.3,0,0,0.3,0.0717553,0.142427)">
                            <g>
                                <path id="pRXTEEQEh" d="M0.03,25.23C0,3.24 0.03,1.68 0.51,1.35C0.9,1.05 1.98,0.99 4.5,1.11C6.87,1.2 7.8,1.14 7.47,0.93C6.96,0.6 0.84,0.42 0.33,0.72C0.15,0.84 0,0.72 0,0.48C0,0.06 2.4,0 23.4,0C46.17,0 46.8,0.03 46.53,0.57C46.14,1.29 46.41,1.53 47.28,1.32L48,1.14L48,12.42C48,23.25 47.97,23.7 47.43,23.7C46.8,23.7 46.08,24.39 46.41,24.69C46.5,24.81 46.92,24.9 47.31,24.9L48,24.9L48,47.43L47.34,47.34C46.83,47.28 46.62,47.43 46.56,47.94L46.47,48.6L38.01,48.54L29.55,48.45L29.46,47.31L29.37,46.2L37.56,46.38L45.75,46.59L45.87,36.42C45.96,28.05 45.9,26.19 45.57,25.89C45.3,25.68 41.94,25.53 35.43,25.47L25.68,25.35L25.47,26.4C25.35,26.97 25.2,31.68 25.11,36.84L24.93,46.2L25.98,46.2C27.03,46.2 27.03,46.23 26.94,47.34L26.85,48.45L13.74,48.54L0.6,48.6L0.75,47.19L0.9,45.75L0.48,47.25C0.12,48.57 0.06,45.72 0.03,25.23ZM22.5,46.17C22.41,45.93 22.38,41.28 22.44,35.82C22.5,26.97 22.47,25.86 22.02,25.68C21.42,25.44 2.43,25.38 2.19,25.62C1.89,25.92 1.71,44.19 2.01,45.3L2.28,46.35L11.85,46.44C17.13,46.5 21.51,46.59 21.57,46.68C21.9,46.98 22.65,46.59 22.5,46.17ZM23.97,36.51C24,35.22 23.88,34.53 23.7,34.65C23.52,34.77 23.43,36.57 23.46,39.24C23.49,43.41 23.49,43.53 23.73,41.1C23.85,39.69 23.94,37.62 23.97,36.51ZM0.51,38.94C0.45,38.55 0.39,38.79 0.39,39.45C0.36,40.11 0.42,40.41 0.51,40.14C0.57,39.84 0.57,39.3 0.51,38.94ZM23.97,26.55C23.82,26.16 23.73,26.55 23.76,27.75C23.76,29.43 23.79,29.49 24,28.35C24.12,27.69 24.12,26.88 23.97,26.55ZM0.9,27.39C0.9,26.79 0.81,26.4 0.72,26.49C0.39,26.79 0.33,28.5 0.63,28.5C0.78,28.5 0.9,28.02 0.9,27.39ZM41.64,24.09C41.34,24.03 40.86,24.03 40.59,24.09C40.29,24.18 40.53,24.24 41.1,24.24C41.67,24.24 41.91,24.18 41.64,24.09ZM22.08,22.74C22.23,22.53 22.38,17.88 22.44,12.42L22.56,2.49L19.77,2.31C17.49,2.13 2.07,2.31 1.92,2.49C1.89,2.52 1.83,7.08 1.77,12.6L1.65,22.65L2.55,22.83C3.06,22.95 7.59,23.04 12.66,23.07C19.65,23.1 21.93,23.01 22.08,22.74ZM45.42,22.77C45.69,22.5 45.93,2.76 45.66,2.61C45.51,2.49 40.89,2.34 35.37,2.22L25.35,2.04L25.26,9.48C25.2,13.59 25.11,18.3 25.05,19.98L24.96,23.01L35.13,22.95C40.71,22.92 45.36,22.83 45.42,22.77ZM23.88,18.99C23.55,18.66 23.31,19.17 23.55,19.71C23.79,20.22 23.79,20.22 23.91,19.71C24,19.41 23.97,19.08 23.88,18.99ZM23.97,14.19C23.97,12.93 23.94,12.84 23.67,13.5C23.4,14.19 23.52,15.6 23.85,15.6C23.94,15.6 24,14.97 23.97,14.19ZM23.91,5.79C23.85,5.16 23.79,5.61 23.79,6.75C23.79,7.92 23.85,8.4 23.91,7.89C23.97,7.35 23.97,6.39 23.91,5.79ZM26.34,0.69C26.04,0.63 25.56,0.63 25.29,0.69C24.99,0.78 25.23,0.84 25.8,0.84C26.37,0.84 26.61,0.78 26.34,0.69ZM31.74,0.69C31.44,0.63 30.9,0.63 30.54,0.69C30.15,0.75 30.39,0.81 31.05,0.81C31.71,0.84 32.01,0.78 31.74,0.69Z" style="fill:rgb(77,156,180);fill-rule:nonzero;"/>
                                <path id="pT1IuWRyB" d="M47.1,0.3C47.1,0.15 47.31,0 47.55,0C47.79,0 48,0.15 48,0.3C48,0.48 47.79,0.6 47.55,0.6C47.31,0.6 47.1,0.48 47.1,0.3Z" style="fill:rgb(77,156,180);fill-rule:nonzero;"/>
                            </g>
                        </g>
                        <g id="l4V5mgt0vsTKfuzCPGErxNx" transform="matrix(0.3,0,0,0.3,0.0717553,0.142427)">
                            <g>
                                <path id="pdK1hD3Sy" d="M1.5,48.15C1.5,47.85 1.8,47.7 2.4,47.7C3,47.7 3.3,47.85 3.3,48.15C3.3,48.45 3,48.6 2.4,48.6C1.8,48.6 1.5,48.45 1.5,48.15Z" style="fill:rgb(83,164,187);fill-rule:nonzero;"/>
                                <path id="pU993mM7d" d="M7.2,48.18C7.2,47.94 7.44,47.67 7.74,47.61C8.43,47.43 7.5,47.34 4.08,47.28L1.41,47.25L1.14,46.35C0.78,45.03 0.96,24.9 1.35,24.66C1.5,24.54 6.18,24.48 11.7,24.54C18.27,24.6 21.63,24.51 21.45,24.33C21.27,24.15 17.25,24 11.19,23.97C3.18,23.94 1.17,23.85 0.87,23.52C0.63,23.25 0.57,20.31 0.66,13.29C0.72,5.52 0.66,3.48 0.36,3.51C0.18,3.57 0,3.33 0,3C0,2.61 0.15,2.49 0.42,2.58C0.72,2.7 0.9,2.52 0.96,2.04C1.05,1.26 1.71,1.05 3.18,1.35C4.59,1.59 4.56,2.4 3.15,2.4L2.1,2.4L2.07,7.14C2.07,9.72 2.04,14.28 2.01,17.25L1.95,22.65L11.88,22.74L21.81,22.8L22.02,21.69C22.11,21.06 22.2,16.47 22.2,11.49L22.2,2.4L14.55,2.4C8.13,2.4 6.9,2.34 6.9,1.98C6.9,1.32 8.04,1.2 15.39,1.26C21.57,1.29 22.89,1.2 22.44,0.75C22.38,0.66 17.61,0.54 11.85,0.45C6.12,0.39 1.35,0.24 1.26,0.15C1.17,0.06 6.12,0 12.27,0L23.43,0L23.34,11.73L23.25,23.49L21.87,24.39L22.68,24.75L23.52,25.08L23.43,29.85C23.34,35.13 23.25,36 22.62,36C22.29,36 22.2,35.07 22.2,31.08L22.2,26.16L20.04,25.98C17.01,25.71 2.76,25.65 2.52,25.89C2.4,26.01 2.25,30 2.16,34.8C2.04,42.45 1.95,43.5 1.53,43.59C1.11,43.71 1.14,43.74 1.59,43.77C1.86,43.77 2.1,44.04 2.1,44.34C2.1,44.64 2.28,45.12 2.49,45.39C2.82,45.81 3.99,45.87 12.45,45.96L22.05,46.05L21.96,41.19C21.84,36.39 21.87,36.3 22.47,36.3C23.07,36.3 23.1,36.45 23.1,39.81C23.1,41.73 23.25,44.07 23.46,45C23.91,47.22 23.4,48.6 22.14,48.6C21.63,48.6 21.3,48.45 21.3,48.18C21.3,47.64 20.61,47.4 19.11,47.43C18.42,47.43 18.03,47.52 18.24,47.61C19.05,47.94 18.6,48.6 17.55,48.6C16.71,48.6 16.5,48.48 16.5,48C16.5,47.43 16.32,47.4 12.39,47.46C10.11,47.49 8.97,47.55 9.84,47.61C10.95,47.7 11.4,47.85 11.4,48.18C11.4,48.51 10.92,48.6 9.3,48.6C7.68,48.6 7.2,48.51 7.2,48.18Z" style="fill:rgb(83,164,187);fill-rule:nonzero;"/>
                                <path id="pJ75w9nBU" d="M12.6,48.15C12.6,47.85 12.9,47.7 13.5,47.7C14.1,47.7 14.4,47.85 14.4,48.15C14.4,48.45 14.1,48.6 13.5,48.6C12.9,48.6 12.6,48.45 12.6,48.15Z" style="fill:rgb(83,164,187);fill-rule:nonzero;"/>
                                <path id="pAN9Doucu" d="M24.18,37.59C24.27,31.5 24.45,26.07 24.57,25.5L24.78,24.45L28.8,24.3C32.46,24.15 32.61,24.12 30.45,24C29.13,23.94 27.12,23.88 25.95,23.85C24.03,23.85 23.85,23.79 23.91,23.25C24.09,21.9 24.27,14.13 24.3,7.86L24.33,1.17L35.22,1.29C41.19,1.35 46.26,1.5 46.5,1.65C46.8,1.83 46.86,3.57 46.74,10.02C46.65,14.49 46.71,18.48 46.83,18.9C46.95,19.32 47.04,19.47 47.07,19.29C47.13,18.54 48,18.87 48,19.62C48,20.16 47.82,20.37 47.34,20.46C46.74,20.55 46.65,20.73 46.65,21.96C46.65,22.74 46.53,23.49 46.38,23.61C46.26,23.73 44.64,23.85 42.81,23.85C40.95,23.85 38.04,23.91 36.3,23.97C31.35,24.12 34.08,24.51 40.53,24.57C45,24.6 46.2,24.69 46.47,25.02C46.8,25.41 46.89,34.11 46.62,40.5C46.53,42.78 46.5,42.9 46.05,42.9C45.66,42.9 45.6,41.67 45.54,34.44L45.45,25.95L35.88,25.71C28.89,25.53 26.25,25.53 25.98,25.8C25.47,26.31 25.35,45.57 25.86,45.72C26.07,45.81 30.6,45.93 35.94,46.05L45.6,46.23L45.6,45.3C45.6,44.13 46.38,44.1 46.65,45.27C46.8,45.93 46.95,46.11 47.43,45.99C47.82,45.87 48,45.99 48,46.32C48,46.59 47.79,46.8 47.52,46.8C46.92,46.8 46.2,47.52 46.2,48.12C46.2,48.39 46.05,48.6 45.87,48.6C45.69,48.6 45.6,48.33 45.69,48C45.84,47.43 45.72,47.4 40.71,47.43C37.86,47.46 35.85,47.55 36.24,47.61C36.6,47.67 36.9,47.94 36.9,48.18C36.9,48.54 35.85,48.6 30.42,48.6L23.97,48.6L24.18,37.59ZM34.5,47.4C33.9,47.01 30.21,47.01 30.45,47.4C30.54,47.58 31.62,47.7 32.79,47.7C34.29,47.7 34.8,47.61 34.5,47.4ZM45.3,22.65C45.33,22.65 45.39,18.12 45.51,12.57L45.69,2.52L35.73,2.46C30.27,2.43 25.77,2.49 25.77,2.64C25.74,2.76 25.65,7.26 25.53,12.66L25.35,22.47L27.45,22.56C28.62,22.62 33.09,22.65 37.41,22.65L45.3,22.65Z" style="fill:rgb(83,164,187);fill-rule:nonzero;"/>
                                <path id="pO2RM6rGJ" d="M42,48.15C42,47.91 42.21,47.7 42.45,47.7C42.69,47.7 42.9,47.91 42.9,48.15C42.9,48.39 42.69,48.6 42.45,48.6C42.21,48.6 42,48.39 42,48.15Z" style="fill:rgb(83,164,187);fill-rule:nonzero;"/>
                                <path id="pWztVQa3f" d="M0.09,45.75C0.09,44.94 0.15,44.61 0.21,45.09C0.27,45.54 0.27,46.2 0.21,46.59C0.15,46.95 0.09,46.59 0.09,45.75Z" style="fill:rgb(83,164,187);fill-rule:nonzero;"/>
                                <path id="pK6aWGxpq" d="M0.12,31.65C0.12,28.02 0.18,26.58 0.21,28.44C0.27,30.3 0.27,33.27 0.21,35.04C0.18,36.81 0.12,35.28 0.12,31.65Z" style="fill:rgb(83,164,187);fill-rule:nonzero;"/>
                                <path id="pP0kbKVgs" d="M47.1,22.95C47.1,22.71 47.31,22.5 47.55,22.5C47.79,22.5 48,22.71 48,22.95C48,23.19 47.79,23.4 47.55,23.4C47.31,23.4 47.1,23.19 47.1,22.95Z" style="fill:rgb(83,164,187);fill-rule:nonzero;"/>
                                <path id="p12yd7CM6B" d="M0.09,6.9C0.09,5.49 0.15,4.92 0.21,5.64C0.27,6.33 0.27,7.47 0.21,8.19C0.15,8.88 0.09,8.31 0.09,6.9Z" style="fill:rgb(83,164,187);fill-rule:nonzero;"/>
                                <path id="p3NMqz5lX" d="M28.65,0.3C25.44,0.18 27.36,0.12 35.34,0.06C42.75,0.03 46.47,0.09 46.35,0.3C46.14,0.63 36.81,0.63 28.65,0.3Z" style="fill:rgb(83,164,187);fill-rule:nonzero;"/>
                            </g>
                        </g>
                        <g id="l36ENIgmbu5rqWaVIad2SNC" transform="matrix(0.3,0,0,0.3,0.0717553,0.142427)">
                            <g>
                                <path id="p40UVUPHI" d="M22.11,47.22C21.96,47.04 14.55,46.86 5.94,46.83C1.98,46.8 1.8,46.77 1.44,46.14C1.17,45.63 1.11,43.29 1.2,37.05C1.26,32.43 1.32,27.87 1.32,26.91C1.35,25.8 1.5,25.08 1.77,24.93C1.98,24.78 4.89,24.72 8.22,24.75C11.52,24.81 16.14,24.87 18.45,24.9C20.76,24.93 22.8,25.08 22.98,25.23C23.19,25.41 23.31,26.19 23.25,27.24C22.86,34.08 22.8,43.8 23.1,45.09C23.4,46.2 23.4,46.59 23.1,46.95C22.71,47.43 22.41,47.52 22.11,47.22Z" style="fill:rgb(94,177,200);fill-rule:nonzero;"/>
                                <path id="p18l8gDxmX" d="M31.05,46.8L24.75,46.65L24.75,35.94C24.75,28.2 24.84,25.14 25.11,24.87C25.35,24.63 28.08,24.6 35.91,24.78L46.35,25.05L46.44,36.09L46.5,47.1L41.94,47.04C39.42,47.01 34.53,46.89 31.05,46.8Z" style="fill:rgb(94,177,200);fill-rule:nonzero;"/>
                                <path id="pQBfm4Af9" d="M11.4,23.7L1.05,23.55L1.14,12.63C1.17,6.6 1.26,1.65 1.29,1.59C1.35,1.56 6.24,1.5 12.18,1.47L22.95,1.44L22.95,12.45C22.95,21.87 22.89,23.46 22.5,23.7C22.26,23.85 21.99,23.97 21.9,23.94C21.81,23.88 17.1,23.79 11.4,23.7Z" style="fill:rgb(94,177,200);fill-rule:nonzero;"/>
                                <path id="p2lfMYA1L" d="M24.45,19.83C24.51,17.76 24.57,12.78 24.63,8.79L24.69,1.5L46.53,1.56L46.47,12.3C46.44,18.21 46.35,23.16 46.23,23.31C46.14,23.46 41.34,23.58 35.22,23.58L24.36,23.58L24.45,19.83Z" style="fill:rgb(94,177,200);fill-rule:nonzero;"/>
                                <path id="pRTkRmo1H" d="M7.74,0.09C8.43,0.03 9.57,0.03 10.29,0.09C10.98,0.15 10.41,0.21 9,0.21C7.59,0.21 7.02,0.15 7.74,0.09Z" style="fill:rgb(94,177,200);fill-rule:nonzero;"/>
                                <path id="p18Zr97Rov" d="M18.09,0.09C19.02,0.03 20.58,0.03 21.54,0.09C22.47,0.15 21.69,0.18 19.8,0.18C17.91,0.18 17.13,0.15 18.09,0.09Z" style="fill:rgb(94,177,200);fill-rule:nonzero;"/>
                                <path id="p6AM40Dj1" d="M35.76,0.09C37.71,0.03 40.89,0.03 42.84,0.09C44.76,0.12 43.17,0.18 39.3,0.18C35.43,0.18 33.84,0.12 35.76,0.09Z" style="fill:rgb(94,177,200);fill-rule:nonzero;"/>
                            </g>
                        </g>
                        <g id="l6W7d0eZYPcUu78utELgvpa" transform="matrix(0.3,0,0,0.3,0.0717553,0.142427)">
                            <g>
                                <path id="p9u98P74A" d="M22.56,45.9C22.56,45.33 22.62,45.09 22.71,45.39C22.77,45.66 22.77,46.14 22.71,46.44C22.62,46.71 22.56,46.47 22.56,45.9Z" style="fill:rgb(103,186,209);fill-rule:nonzero;"/>
                                <path id="pcfOWefvt" d="M45.33,44.04C45.33,42.51 45.42,39.42 45.57,37.2C45.9,32.52 45.66,26.1 45.18,25.95C45,25.89 44.1,25.74 43.2,25.56L41.55,25.29L43.89,25.23L46.2,25.2L46.2,36C46.2,45.09 46.14,46.8 45.78,46.8C45.45,46.8 45.36,46.2 45.33,44.04Z" style="fill:rgb(103,186,209);fill-rule:nonzero;"/>
                                <path id="p12WhQkTXF" d="M22.32,41.85C22.32,40.38 22.35,39.72 22.41,40.41C22.47,41.1 22.47,42.33 22.41,43.11C22.35,43.89 22.32,43.35 22.32,41.85Z" style="fill:rgb(103,186,209);fill-rule:nonzero;"/>
                                <path id="p1FBxq6dWq" d="M22.32,28.41C22.2,28.11 22.26,27.72 22.41,27.57C22.83,27.15 23.13,27.96 22.8,28.53C22.59,28.86 22.5,28.83 22.32,28.41Z" style="fill:rgb(103,186,209);fill-rule:nonzero;"/>
                                <path id="puhyYpqlf" d="M21.99,26.1C21.06,25.74 21.12,25.2 22.05,25.2C22.59,25.2 22.8,25.35 22.8,25.8C22.8,26.13 22.77,26.4 22.74,26.37C22.68,26.37 22.35,26.25 21.99,26.1Z" style="fill:rgb(103,186,209);fill-rule:nonzero;"/>
                                <path id="pWRwUulKD" d="M3.36,25.56C2.67,25.5 2.13,25.38 2.22,25.26C2.28,25.14 4.29,25.08 6.66,25.11C9,25.14 12.96,25.17 15.42,25.17C17.88,25.2 19.83,25.26 19.74,25.35C19.59,25.53 5.37,25.71 3.36,25.56Z" style="fill:rgb(103,186,209);fill-rule:nonzero;"/>
                                <path id="p16pFCvQNY" d="M29.04,25.59C26.67,25.5 25.5,25.38 25.5,25.14C25.5,24.9 26.31,24.87 28.26,25.02C29.76,25.11 33.09,25.23 35.67,25.23C39.12,25.26 39.96,25.35 38.85,25.5C37.35,25.74 35.73,25.77 29.04,25.59Z" style="fill:rgb(103,186,209);fill-rule:nonzero;"/>
                                <path id="pbfkcaI6X" d="M4.14,23.19C4.5,23.13 5.1,23.13 5.49,23.19C5.85,23.25 5.55,23.31 4.8,23.31C4.05,23.31 3.75,23.25 4.14,23.19Z" style="fill:rgb(103,186,209);fill-rule:nonzero;"/>
                                <path id="ptasCeNw7" d="M11.7,23.19C11.7,22.8 12.3,22.02 12.3,22.38C12.3,22.56 12.6,22.86 12.99,23.04C13.62,23.34 13.59,23.37 12.69,23.37C12.15,23.4 11.7,23.31 11.7,23.19Z" style="fill:rgb(103,186,209);fill-rule:nonzero;"/>
                                <path id="prcQrn5UU" d="M21.66,22.92C21.78,22.29 22.32,22.23 22.44,22.89C22.5,23.19 22.35,23.4 22.05,23.4C21.75,23.4 21.6,23.22 21.66,22.92Z" style="fill:rgb(103,186,209);fill-rule:nonzero;"/>
                                <path id="p1HTzRwOfj" d="M22.17,20.49C22.17,20.34 22.17,16.71 22.2,12.36C22.23,7.38 22.11,4.11 21.9,3.48L21.57,2.49L14.31,2.55C10.32,2.58 6.39,2.7 5.55,2.82C4.35,3 3.78,2.94 2.7,2.46L1.35,1.83L7.8,1.8C11.34,1.8 16.17,1.74 18.51,1.71L22.77,1.65L22.86,2.55C22.92,3.06 22.95,4.74 22.92,6.3C22.92,7.86 22.86,11.76 22.83,14.94C22.83,18.54 22.68,20.7 22.5,20.7C22.35,20.7 22.2,20.61 22.17,20.49Z" style="fill:rgb(103,186,209);fill-rule:nonzero;"/>
                                <path id="p12q11WROI" d="M45.9,7.56C45.9,4.71 45.78,3.27 45.54,2.94C45.21,2.52 43.8,2.43 35.13,2.28C29.64,2.19 25.05,2.04 24.96,1.95C24.87,1.86 29.46,1.8 35.16,1.83C40.89,1.86 45.69,1.77 45.87,1.68C46.11,1.53 46.2,2.97 46.2,6.57C46.2,9.39 46.14,11.7 46.05,11.7C45.96,11.7 45.9,9.84 45.9,7.56Z" style="fill:rgb(103,186,209);fill-rule:nonzero;"/>
                            </g>
                        </g>
                    </g>
                </g>
            </g>
        </g>
    </g>
</svg>
