<?xml version="1.0" encoding="UTF-8" standalone="no"?>
<!DOCTYPE svg PUBLIC "-//W3C//DTD SVG 1.1//EN" "http://www.w3.org/Graphics/SVG/1.1/DTD/svg11.dtd">
<svg width="100%" height="100%" viewBox="0 0 4357 750" version="1.1" xmlns="http://www.w3.org/2000/svg" xmlns:xlink="http://www.w3.org/1999/xlink" xml:space="preserve" xmlns:serif="http://www.serif.com/" style="fill-rule:evenodd;clip-rule:evenodd;stroke-linejoin:round;stroke-miterlimit:2;">
    <g id="ArtBoard1" transform="matrix(0.62125,0,0,1,-23.2724,-695.107)">
        <rect x="37.461" y="695.107" width="7011.89" height="749.829" style="fill:none;"/>
        <g transform="matrix(1.60966,0,0,1,55.4007,851.24)">
            <g transform="matrix(300,0,0,300,34.1576,214.746)">
                <path d="M0.074,-0.716L0.295,-0.716L0.295,-0.465L0.537,-0.465L0.537,-0.716L0.759,-0.716L0.759,-0L0.537,-0L0.537,-0.29L0.295,-0.29L0.295,-0L0.074,-0L0.074,-0.716Z" style="fill:white;fill-rule:nonzero;"/>
            </g>
            <g transform="matrix(300,0,0,300,284.06,214.746)">
                <path d="M0.045,-0.357C0.045,-0.474 0.078,-0.565 0.143,-0.63C0.208,-0.695 0.299,-0.728 0.415,-0.728C0.534,-0.728 0.626,-0.696 0.69,-0.632C0.755,-0.568 0.787,-0.479 0.787,-0.363C0.787,-0.28 0.773,-0.211 0.745,-0.157C0.717,-0.104 0.676,-0.062 0.623,-0.032C0.57,-0.003 0.503,0.012 0.424,0.012C0.343,0.012 0.276,-0.001 0.223,-0.026C0.17,-0.052 0.128,-0.093 0.095,-0.148C0.062,-0.204 0.045,-0.274 0.045,-0.357ZM0.267,-0.356C0.267,-0.284 0.28,-0.232 0.307,-0.201C0.334,-0.169 0.37,-0.153 0.417,-0.153C0.464,-0.153 0.501,-0.169 0.527,-0.2C0.553,-0.231 0.566,-0.286 0.566,-0.366C0.566,-0.434 0.552,-0.483 0.525,-0.514C0.498,-0.545 0.461,-0.561 0.415,-0.561C0.37,-0.561 0.334,-0.545 0.307,-0.513C0.28,-0.482 0.267,-0.429 0.267,-0.356Z" style="fill:white;fill-rule:nonzero;"/>
            </g>
            <g transform="matrix(300,0,0,300,533.962,214.746)">
                <path d="M0.074,-0.716L0.488,-0.716C0.557,-0.716 0.61,-0.699 0.647,-0.665C0.684,-0.63 0.702,-0.588 0.702,-0.538C0.702,-0.495 0.689,-0.459 0.663,-0.429C0.645,-0.409 0.619,-0.393 0.585,-0.381C0.637,-0.368 0.675,-0.347 0.699,-0.317C0.723,-0.287 0.735,-0.249 0.735,-0.204C0.735,-0.167 0.727,-0.133 0.709,-0.104C0.692,-0.074 0.669,-0.05 0.639,-0.033C0.62,-0.022 0.592,-0.015 0.555,-0.01C0.505,-0.003 0.472,-0 0.456,-0L0.074,-0L0.074,-0.716ZM0.297,-0.435L0.393,-0.435C0.428,-0.435 0.452,-0.441 0.465,-0.453C0.479,-0.465 0.485,-0.482 0.485,-0.504C0.485,-0.525 0.479,-0.542 0.465,-0.553C0.452,-0.565 0.428,-0.571 0.395,-0.571L0.297,-0.571L0.297,-0.435ZM0.297,-0.154L0.41,-0.154C0.448,-0.154 0.475,-0.161 0.49,-0.174C0.506,-0.188 0.514,-0.206 0.514,-0.229C0.514,-0.25 0.506,-0.267 0.49,-0.28C0.475,-0.292 0.448,-0.299 0.409,-0.299L0.297,-0.299L0.297,-0.154Z" style="fill:white;fill-rule:nonzero;"/>
            </g>
            <g transform="matrix(300,0,0,300,767.312,214.746)">
                <path d="M0.074,-0.716L0.488,-0.716C0.557,-0.716 0.61,-0.699 0.647,-0.665C0.684,-0.63 0.702,-0.588 0.702,-0.538C0.702,-0.495 0.689,-0.459 0.663,-0.429C0.645,-0.409 0.619,-0.393 0.585,-0.381C0.637,-0.368 0.675,-0.347 0.699,-0.317C0.723,-0.287 0.735,-0.249 0.735,-0.204C0.735,-0.167 0.727,-0.133 0.709,-0.104C0.692,-0.074 0.669,-0.05 0.639,-0.033C0.62,-0.022 0.592,-0.015 0.555,-0.01C0.505,-0.003 0.472,-0 0.456,-0L0.074,-0L0.074,-0.716ZM0.297,-0.435L0.393,-0.435C0.428,-0.435 0.452,-0.441 0.465,-0.453C0.479,-0.465 0.485,-0.482 0.485,-0.504C0.485,-0.525 0.479,-0.542 0.465,-0.553C0.452,-0.565 0.428,-0.571 0.395,-0.571L0.297,-0.571L0.297,-0.435ZM0.297,-0.154L0.41,-0.154C0.448,-0.154 0.475,-0.161 0.49,-0.174C0.506,-0.188 0.514,-0.206 0.514,-0.229C0.514,-0.25 0.506,-0.267 0.49,-0.28C0.475,-0.292 0.448,-0.299 0.409,-0.299L0.297,-0.299L0.297,-0.154Z" style="fill:white;fill-rule:nonzero;"/>
            </g>
            <g transform="matrix(300,0,0,300,1000.66,214.746)">
                <path d="M0.001,-0.716L0.247,-0.716L0.391,-0.474L0.536,-0.716L0.78,-0.716L0.501,-0.3L0.501,-0L0.28,-0L0.28,-0.3L0.001,-0.716Z" style="fill:white;fill-rule:nonzero;"/>
            </g>
            <g transform="matrix(300,0,0,300,1234.01,214.746)">
                <path d="M0.073,-0.716L0.294,-0.716L0.294,-0.176L0.64,-0.176L0.64,-0L0.073,-0L0.073,-0.716Z" style="fill:white;fill-rule:nonzero;"/>
            </g>
            <g transform="matrix(300,0,0,300,1428.98,214.746)">
                <path d="M0.045,-0.357C0.045,-0.474 0.078,-0.565 0.143,-0.63C0.208,-0.695 0.299,-0.728 0.415,-0.728C0.534,-0.728 0.626,-0.696 0.69,-0.632C0.755,-0.568 0.787,-0.479 0.787,-0.363C0.787,-0.28 0.773,-0.211 0.745,-0.157C0.717,-0.104 0.676,-0.062 0.623,-0.032C0.57,-0.003 0.503,0.012 0.424,0.012C0.343,0.012 0.276,-0.001 0.223,-0.026C0.17,-0.052 0.128,-0.093 0.095,-0.148C0.062,-0.204 0.045,-0.274 0.045,-0.357ZM0.267,-0.356C0.267,-0.284 0.28,-0.232 0.307,-0.201C0.334,-0.169 0.37,-0.153 0.417,-0.153C0.464,-0.153 0.501,-0.169 0.527,-0.2C0.553,-0.231 0.566,-0.286 0.566,-0.366C0.566,-0.434 0.552,-0.483 0.525,-0.514C0.498,-0.545 0.461,-0.561 0.415,-0.561C0.37,-0.561 0.334,-0.545 0.307,-0.513C0.28,-0.482 0.267,-0.429 0.267,-0.356Z" style="fill:white;fill-rule:nonzero;"/>
            </g>
            <g transform="matrix(300,0,0,300,1678.88,214.746)">
                <path d="M0.035,-0.237L0.245,-0.25C0.25,-0.216 0.259,-0.19 0.273,-0.172C0.296,-0.143 0.328,-0.128 0.371,-0.128C0.402,-0.128 0.427,-0.136 0.444,-0.151C0.461,-0.165 0.469,-0.183 0.469,-0.202C0.469,-0.221 0.461,-0.237 0.445,-0.252C0.429,-0.267 0.391,-0.28 0.332,-0.293C0.235,-0.315 0.165,-0.344 0.124,-0.38C0.082,-0.417 0.062,-0.463 0.062,-0.519C0.062,-0.555 0.072,-0.59 0.094,-0.623C0.115,-0.656 0.147,-0.681 0.19,-0.7C0.233,-0.719 0.291,-0.728 0.366,-0.728C0.457,-0.728 0.527,-0.711 0.575,-0.677C0.623,-0.643 0.652,-0.589 0.661,-0.515L0.452,-0.502C0.447,-0.535 0.435,-0.558 0.417,-0.573C0.399,-0.587 0.375,-0.595 0.344,-0.595C0.318,-0.595 0.299,-0.589 0.286,-0.578C0.273,-0.567 0.266,-0.554 0.266,-0.539C0.266,-0.527 0.271,-0.517 0.282,-0.508C0.293,-0.498 0.317,-0.49 0.356,-0.481C0.453,-0.461 0.522,-0.44 0.564,-0.418C0.606,-0.397 0.636,-0.37 0.656,-0.339C0.675,-0.307 0.684,-0.272 0.684,-0.233C0.684,-0.187 0.671,-0.145 0.646,-0.106C0.621,-0.067 0.585,-0.038 0.54,-0.018C0.494,0.002 0.437,0.012 0.367,0.012C0.245,0.012 0.161,-0.011 0.114,-0.058C0.067,-0.105 0.041,-0.165 0.035,-0.237Z" style="fill:white;fill-rule:nonzero;"/>
            </g>
            <g transform="matrix(300,0,0,300,1995.58,214.746)">
                <path d="M0.071,-0.716L0.362,-0.716L0.474,-0.28L0.586,-0.716L0.876,-0.716L0.876,-0L0.695,-0L0.695,-0.546L0.555,-0L0.392,-0L0.252,-0.546L0.252,-0L0.071,-0L0.071,-0.716Z" style="fill:white;fill-rule:nonzero;"/>
            </g>
            <g transform="matrix(300,0,0,300,2278.74,214.746)">
                <path d="M0.514,-0.118L0.262,-0.118L0.227,-0L0.001,-0L0.27,-0.716L0.511,-0.716L0.78,-0L0.549,-0L0.514,-0.118ZM0.467,-0.273L0.388,-0.53L0.31,-0.273L0.467,-0.273Z" style="fill:white;fill-rule:nonzero;"/>
            </g>
            <g transform="matrix(300,0,0,300,2491.43,214.746)">
                <path d="M0.023,-0.716L0.695,-0.716L0.695,-0.539L0.47,-0.539L0.47,-0L0.249,-0L0.249,-0.539L0.023,-0.539L0.023,-0.716Z" style="fill:white;fill-rule:nonzero;"/>
            </g>
            <g transform="matrix(300,0,0,300,2708.08,214.746)">
                <path d="M0.074,-0.716L0.295,-0.716L0.295,-0.465L0.537,-0.465L0.537,-0.716L0.759,-0.716L0.759,-0L0.537,-0L0.537,-0.29L0.295,-0.29L0.295,-0L0.074,-0L0.074,-0.716Z" style="fill:white;fill-rule:nonzero;"/>
            </g>
            <g transform="matrix(300,0,0,300,2957.99,214.746)">
                <path d="M0.073,-0.716L0.666,-0.716L0.666,-0.563L0.294,-0.563L0.294,-0.449L0.639,-0.449L0.639,-0.303L0.294,-0.303L0.294,-0.162L0.676,-0.162L0.676,-0L0.073,-0L0.073,-0.716Z" style="fill:white;fill-rule:nonzero;"/>
            </g>
            <g transform="matrix(300,0,0,300,3174.64,214.746)">
                <path d="M0.074,-0.716L0.621,-0.716L0.621,-0.562L0.296,-0.562L0.296,-0.437L0.574,-0.437L0.574,-0.292L0.296,-0.292L0.296,-0L0.074,-0L0.074,-0.716Z" style="fill:white;fill-rule:nonzero;"/>
            </g>
            <g transform="matrix(300,0,0,300,3346.46,214.746)">
                <path d="M0.514,-0.118L0.262,-0.118L0.227,-0L0.001,-0L0.27,-0.716L0.511,-0.716L0.78,-0L0.549,-0L0.514,-0.118ZM0.467,-0.273L0.388,-0.53L0.31,-0.273L0.467,-0.273Z" style="fill:white;fill-rule:nonzero;"/>
            </g>
            <g transform="matrix(300,0,0,300,3574.39,214.746)">
                <path d="M0.55,-0.292L0.744,-0.234C0.731,-0.18 0.71,-0.134 0.682,-0.098C0.654,-0.061 0.619,-0.034 0.578,-0.015C0.536,0.003 0.484,0.013 0.419,0.013C0.342,0.013 0.278,0.001 0.229,-0.021C0.179,-0.044 0.137,-0.084 0.101,-0.141C0.065,-0.198 0.047,-0.271 0.047,-0.359C0.047,-0.478 0.079,-0.569 0.142,-0.633C0.205,-0.696 0.294,-0.728 0.409,-0.728C0.499,-0.728 0.57,-0.71 0.622,-0.673C0.673,-0.637 0.712,-0.581 0.737,-0.505L0.542,-0.462C0.535,-0.484 0.528,-0.5 0.52,-0.51C0.508,-0.527 0.493,-0.54 0.475,-0.549C0.457,-0.558 0.437,-0.563 0.415,-0.563C0.364,-0.563 0.326,-0.542 0.299,-0.502C0.279,-0.472 0.269,-0.425 0.269,-0.361C0.269,-0.281 0.281,-0.227 0.305,-0.198C0.329,-0.168 0.363,-0.153 0.407,-0.153C0.449,-0.153 0.481,-0.165 0.503,-0.189C0.524,-0.213 0.54,-0.247 0.55,-0.292Z" style="fill:white;fill-rule:nonzero;"/>
            </g>
            <g transform="matrix(300,0,0,300,3807.74,214.746)">
                <path d="M0.023,-0.716L0.695,-0.716L0.695,-0.539L0.47,-0.539L0.47,-0L0.249,-0L0.249,-0.539L0.023,-0.539L0.023,-0.716Z" style="fill:white;fill-rule:nonzero;"/>
            </g>
            <g transform="matrix(300,0,0,300,4024.39,214.746)">
                <path d="M0.035,-0.237L0.245,-0.25C0.25,-0.216 0.259,-0.19 0.273,-0.172C0.296,-0.143 0.328,-0.128 0.371,-0.128C0.402,-0.128 0.427,-0.136 0.444,-0.151C0.461,-0.165 0.469,-0.183 0.469,-0.202C0.469,-0.221 0.461,-0.237 0.445,-0.252C0.429,-0.267 0.391,-0.28 0.332,-0.293C0.235,-0.315 0.165,-0.344 0.124,-0.38C0.082,-0.417 0.062,-0.463 0.062,-0.519C0.062,-0.555 0.072,-0.59 0.094,-0.623C0.115,-0.656 0.147,-0.681 0.19,-0.7C0.233,-0.719 0.291,-0.728 0.366,-0.728C0.457,-0.728 0.527,-0.711 0.575,-0.677C0.623,-0.643 0.652,-0.589 0.661,-0.515L0.452,-0.502C0.447,-0.535 0.435,-0.558 0.417,-0.573C0.399,-0.587 0.375,-0.595 0.344,-0.595C0.318,-0.595 0.299,-0.589 0.286,-0.578C0.273,-0.567 0.266,-0.554 0.266,-0.539C0.266,-0.527 0.271,-0.517 0.282,-0.508C0.293,-0.498 0.317,-0.49 0.356,-0.481C0.453,-0.461 0.522,-0.44 0.564,-0.418C0.606,-0.397 0.636,-0.37 0.656,-0.339C0.675,-0.307 0.684,-0.272 0.684,-0.233C0.684,-0.187 0.671,-0.145 0.646,-0.106C0.621,-0.067 0.585,-0.038 0.54,-0.018C0.494,0.002 0.437,0.012 0.367,0.012C0.245,0.012 0.161,-0.011 0.114,-0.058C0.067,-0.105 0.041,-0.165 0.035,-0.237Z" style="fill:white;fill-rule:nonzero;"/>
            </g>
            <g transform="matrix(162.5,0,0,162.5,56.2432,423.079)">
                <path d="M0.539,-0.716L0.76,-0.716L0.76,-0.289C0.76,-0.247 0.753,-0.207 0.74,-0.169C0.727,-0.132 0.706,-0.099 0.678,-0.071C0.65,-0.042 0.62,-0.023 0.589,-0.011C0.546,0.005 0.495,0.013 0.435,0.013C0.4,0.013 0.362,0.01 0.321,0.005C0.279,0 0.245,-0.009 0.217,-0.024C0.19,-0.038 0.164,-0.059 0.141,-0.085C0.118,-0.112 0.103,-0.14 0.094,-0.168C0.081,-0.214 0.074,-0.254 0.074,-0.289L0.074,-0.716L0.294,-0.716L0.294,-0.279C0.294,-0.24 0.305,-0.209 0.327,-0.187C0.349,-0.165 0.379,-0.154 0.417,-0.154C0.455,-0.154 0.485,-0.165 0.507,-0.187C0.528,-0.208 0.539,-0.239 0.539,-0.279L0.539,-0.716ZM0.249,-0.883L0.376,-0.883L0.376,-0.761L0.249,-0.761L0.249,-0.883ZM0.456,-0.883L0.584,-0.883L0.584,-0.761L0.456,-0.761L0.456,-0.883Z" style="fill:white;fill-rule:nonzero;"/>
            </g>
            <g transform="matrix(162.5,0,0,162.5,191.607,423.079)">
                <path d="M0.061,-0.716L0.262,-0.716L0.262,-0.468C0.282,-0.489 0.304,-0.504 0.329,-0.515C0.355,-0.525 0.382,-0.53 0.413,-0.53C0.476,-0.53 0.528,-0.508 0.57,-0.462C0.611,-0.417 0.632,-0.352 0.632,-0.267C0.632,-0.21 0.622,-0.16 0.604,-0.117C0.585,-0.074 0.559,-0.042 0.525,-0.02C0.492,0.001 0.455,0.012 0.414,0.012C0.379,0.012 0.347,0.004 0.318,-0.011C0.297,-0.022 0.273,-0.044 0.247,-0.077L0.247,-0L0.061,-0L0.061,-0.716ZM0.26,-0.261C0.26,-0.216 0.269,-0.184 0.285,-0.164C0.302,-0.144 0.323,-0.134 0.349,-0.134C0.373,-0.134 0.393,-0.144 0.409,-0.163C0.425,-0.183 0.433,-0.216 0.433,-0.263C0.433,-0.304 0.425,-0.334 0.409,-0.353C0.394,-0.372 0.375,-0.382 0.352,-0.382C0.325,-0.382 0.303,-0.372 0.286,-0.352C0.269,-0.332 0.26,-0.301 0.26,-0.261Z" style="fill:white;fill-rule:nonzero;"/>
            </g>
            <g transform="matrix(162.5,0,0,162.5,299.993,423.079)">
                <path d="M0.636,-0.21L0.237,-0.21C0.241,-0.178 0.25,-0.154 0.263,-0.139C0.282,-0.116 0.307,-0.105 0.338,-0.105C0.358,-0.105 0.376,-0.11 0.394,-0.12C0.405,-0.126 0.416,-0.137 0.429,-0.152L0.625,-0.134C0.595,-0.082 0.558,-0.045 0.516,-0.022C0.474,0 0.413,0.012 0.334,0.012C0.265,0.012 0.211,0.002 0.172,-0.017C0.132,-0.037 0.1,-0.067 0.074,-0.11C0.048,-0.152 0.035,-0.201 0.035,-0.258C0.035,-0.339 0.061,-0.405 0.113,-0.455C0.165,-0.505 0.237,-0.53 0.328,-0.53C0.402,-0.53 0.461,-0.519 0.504,-0.497C0.547,-0.474 0.58,-0.442 0.602,-0.399C0.625,-0.356 0.636,-0.301 0.636,-0.232L0.636,-0.21ZM0.434,-0.305C0.43,-0.344 0.419,-0.371 0.403,-0.388C0.386,-0.404 0.364,-0.413 0.336,-0.413C0.305,-0.413 0.28,-0.4 0.261,-0.375C0.249,-0.359 0.241,-0.336 0.238,-0.305L0.434,-0.305Z" style="fill:white;fill-rule:nonzero;"/>
            </g>
            <g transform="matrix(162.5,0,0,162.5,408.379,423.079)">
                <path d="M0.062,-0.519L0.248,-0.519L0.248,-0.434C0.266,-0.47 0.284,-0.496 0.303,-0.51C0.323,-0.523 0.346,-0.53 0.374,-0.53C0.403,-0.53 0.435,-0.521 0.47,-0.503L0.409,-0.361C0.385,-0.371 0.367,-0.376 0.353,-0.376C0.327,-0.376 0.307,-0.365 0.292,-0.344C0.272,-0.313 0.262,-0.257 0.262,-0.174L0.262,-0L0.062,-0L0.062,-0.519Z" style="fill:white;fill-rule:nonzero;"/>
            </g>
            <g transform="matrix(162.5,0,0,162.5,484.551,423.079)">
                <path d="M0.025,-0.144L0.222,-0.162C0.23,-0.139 0.242,-0.122 0.256,-0.112C0.271,-0.102 0.291,-0.097 0.315,-0.097C0.342,-0.097 0.362,-0.102 0.377,-0.114C0.388,-0.122 0.394,-0.133 0.394,-0.146C0.394,-0.16 0.387,-0.171 0.372,-0.179C0.361,-0.184 0.332,-0.191 0.286,-0.199C0.217,-0.211 0.169,-0.222 0.142,-0.233C0.115,-0.243 0.093,-0.26 0.074,-0.285C0.056,-0.309 0.047,-0.337 0.047,-0.368C0.047,-0.402 0.057,-0.432 0.077,-0.457C0.097,-0.481 0.124,-0.5 0.159,-0.512C0.194,-0.524 0.24,-0.53 0.299,-0.53C0.361,-0.53 0.406,-0.526 0.436,-0.516C0.465,-0.507 0.49,-0.492 0.51,-0.472C0.529,-0.452 0.546,-0.425 0.559,-0.392L0.37,-0.373C0.365,-0.39 0.357,-0.402 0.346,-0.41C0.33,-0.42 0.311,-0.425 0.289,-0.425C0.267,-0.425 0.25,-0.421 0.24,-0.413C0.23,-0.405 0.225,-0.396 0.225,-0.384C0.225,-0.372 0.231,-0.362 0.244,-0.355C0.257,-0.349 0.285,-0.343 0.329,-0.338C0.395,-0.33 0.444,-0.32 0.477,-0.307C0.509,-0.293 0.533,-0.274 0.551,-0.25C0.568,-0.225 0.576,-0.198 0.576,-0.168C0.576,-0.138 0.567,-0.109 0.549,-0.081C0.531,-0.052 0.503,-0.03 0.464,-0.013C0.425,0.004 0.372,0.012 0.305,0.012C0.21,0.012 0.142,-0.001 0.102,-0.028C0.062,-0.055 0.036,-0.094 0.025,-0.144Z" style="fill:white;fill-rule:nonzero;"/>
            </g>
            <g transform="matrix(162.5,0,0,162.5,583.813,423.079)">
                <path d="M0.067,-0.716L0.266,-0.716L0.266,-0.581L0.067,-0.581L0.067,-0.716ZM0.067,-0.519L0.266,-0.519L0.266,-0L0.067,-0L0.067,-0.519Z" style="fill:white;fill-rule:nonzero;"/>
            </g>
            <g transform="matrix(162.5,0,0,162.5,637.927,423.079)">
                <path d="M0.447,-0.203L0.636,-0.181C0.625,-0.142 0.608,-0.108 0.584,-0.079C0.561,-0.05 0.53,-0.028 0.493,-0.012C0.456,0.004 0.41,0.012 0.353,0.012C0.298,0.012 0.252,0.007 0.215,-0.003C0.178,-0.013 0.147,-0.03 0.121,-0.053C0.094,-0.076 0.074,-0.103 0.059,-0.134C0.044,-0.165 0.036,-0.206 0.036,-0.257C0.036,-0.31 0.045,-0.355 0.063,-0.39C0.077,-0.416 0.095,-0.44 0.118,-0.46C0.141,-0.481 0.165,-0.496 0.189,-0.506C0.228,-0.522 0.278,-0.53 0.338,-0.53C0.423,-0.53 0.488,-0.515 0.532,-0.485C0.576,-0.455 0.608,-0.41 0.625,-0.352L0.438,-0.327C0.433,-0.349 0.422,-0.366 0.406,-0.377C0.391,-0.388 0.37,-0.394 0.344,-0.394C0.311,-0.394 0.285,-0.382 0.264,-0.359C0.244,-0.335 0.234,-0.299 0.234,-0.251C0.234,-0.209 0.244,-0.176 0.264,-0.154C0.284,-0.132 0.31,-0.121 0.341,-0.121C0.367,-0.121 0.389,-0.128 0.407,-0.141C0.425,-0.154 0.438,-0.175 0.447,-0.203Z" style="fill:white;fill-rule:nonzero;"/>
            </g>
            <g transform="matrix(162.5,0,0,162.5,743.536,423.079)">
                <path d="M0.06,-0.716L0.259,-0.716L0.259,-0.452C0.286,-0.48 0.313,-0.5 0.339,-0.512C0.366,-0.524 0.398,-0.53 0.434,-0.53C0.488,-0.53 0.531,-0.514 0.562,-0.481C0.593,-0.448 0.608,-0.398 0.608,-0.33L0.608,-0L0.409,-0L0.409,-0.285C0.409,-0.318 0.403,-0.341 0.391,-0.354C0.379,-0.368 0.362,-0.375 0.34,-0.375C0.316,-0.375 0.296,-0.365 0.281,-0.347C0.266,-0.329 0.259,-0.296 0.259,-0.249L0.259,-0L0.06,-0L0.06,-0.716Z" style="fill:white;fill-rule:nonzero;"/>
            </g>
            <g transform="matrix(162.5,0,0,162.5,851.922,423.079)">
                <path d="M0.3,-0.716L0.3,-0.519L0.409,-0.519L0.409,-0.374L0.3,-0.374L0.3,-0.189C0.3,-0.167 0.302,-0.153 0.306,-0.146C0.313,-0.134 0.324,-0.129 0.34,-0.129C0.355,-0.129 0.375,-0.133 0.402,-0.142L0.417,-0.004C0.367,0.006 0.321,0.012 0.279,0.012C0.229,0.012 0.193,0.005 0.169,-0.007C0.146,-0.02 0.129,-0.039 0.117,-0.065C0.106,-0.091 0.101,-0.133 0.101,-0.191L0.101,-0.374L0.027,-0.374L0.027,-0.519L0.101,-0.519L0.101,-0.614L0.3,-0.716Z" style="fill:white;fill-rule:nonzero;"/>
            </g>
            <g transform="matrix(162.5,0,0,162.5,978.24,423.079)">
                <path d="M0.606,-0.716L0.606,-0L0.42,-0L0.42,-0.077C0.394,-0.044 0.37,-0.022 0.349,-0.011C0.32,0.004 0.288,0.012 0.253,0.012C0.182,0.012 0.128,-0.015 0.091,-0.069C0.054,-0.123 0.035,-0.188 0.035,-0.265C0.035,-0.351 0.056,-0.416 0.097,-0.462C0.138,-0.507 0.19,-0.53 0.254,-0.53C0.285,-0.53 0.313,-0.525 0.338,-0.515C0.363,-0.504 0.386,-0.489 0.405,-0.468L0.405,-0.716L0.606,-0.716ZM0.407,-0.261C0.407,-0.301 0.398,-0.332 0.381,-0.352C0.364,-0.372 0.342,-0.382 0.315,-0.382C0.292,-0.382 0.273,-0.372 0.257,-0.353C0.242,-0.334 0.234,-0.302 0.234,-0.256C0.234,-0.214 0.242,-0.183 0.258,-0.163C0.274,-0.144 0.294,-0.134 0.318,-0.134C0.343,-0.134 0.364,-0.144 0.381,-0.164C0.398,-0.183 0.407,-0.216 0.407,-0.261Z" style="fill:white;fill-rule:nonzero;"/>
            </g>
            <g transform="matrix(162.5,0,0,162.5,1086.63,423.079)">
                <path d="M0.636,-0.21L0.237,-0.21C0.241,-0.178 0.25,-0.154 0.263,-0.139C0.282,-0.116 0.307,-0.105 0.338,-0.105C0.358,-0.105 0.376,-0.11 0.394,-0.12C0.405,-0.126 0.416,-0.137 0.429,-0.152L0.625,-0.134C0.595,-0.082 0.558,-0.045 0.516,-0.022C0.474,0 0.413,0.012 0.334,0.012C0.265,0.012 0.211,0.002 0.172,-0.017C0.132,-0.037 0.1,-0.067 0.074,-0.11C0.048,-0.152 0.035,-0.201 0.035,-0.258C0.035,-0.339 0.061,-0.405 0.113,-0.455C0.165,-0.505 0.237,-0.53 0.328,-0.53C0.402,-0.53 0.461,-0.519 0.504,-0.497C0.547,-0.474 0.58,-0.442 0.602,-0.399C0.625,-0.356 0.636,-0.301 0.636,-0.232L0.636,-0.21ZM0.434,-0.305C0.43,-0.344 0.419,-0.371 0.403,-0.388C0.386,-0.404 0.364,-0.413 0.336,-0.413C0.305,-0.413 0.28,-0.4 0.261,-0.375C0.249,-0.359 0.241,-0.336 0.238,-0.305L0.434,-0.305Z" style="fill:white;fill-rule:nonzero;"/>
            </g>
            <g transform="matrix(162.5,0,0,162.5,1195.01,423.079)">
                <path d="M0.062,-0.519L0.248,-0.519L0.248,-0.434C0.266,-0.47 0.284,-0.496 0.303,-0.51C0.323,-0.523 0.346,-0.53 0.374,-0.53C0.403,-0.53 0.435,-0.521 0.47,-0.503L0.409,-0.361C0.385,-0.371 0.367,-0.376 0.353,-0.376C0.327,-0.376 0.307,-0.365 0.292,-0.344C0.272,-0.313 0.262,-0.257 0.262,-0.174L0.262,-0L0.062,-0L0.062,-0.519Z" style="fill:white;fill-rule:nonzero;"/>
            </g>
            <g transform="matrix(162.5,0,0,162.5,1321.33,423.079)">
                <path d="M0.071,-0.716L0.362,-0.716L0.474,-0.28L0.586,-0.716L0.876,-0.716L0.876,-0L0.695,-0L0.695,-0.546L0.555,-0L0.392,-0L0.252,-0.546L0.252,-0L0.071,-0L0.071,-0.716Z" style="fill:white;fill-rule:nonzero;"/>
            </g>
            <g transform="matrix(162.5,0,0,162.5,1474.71,423.079)">
                <path d="M0.241,-0.351L0.051,-0.371C0.058,-0.404 0.069,-0.43 0.082,-0.449C0.096,-0.468 0.115,-0.485 0.141,-0.499C0.159,-0.509 0.184,-0.516 0.216,-0.522C0.248,-0.528 0.282,-0.53 0.319,-0.53C0.379,-0.53 0.427,-0.527 0.463,-0.52C0.499,-0.514 0.529,-0.5 0.553,-0.479C0.57,-0.464 0.583,-0.443 0.593,-0.416C0.603,-0.389 0.608,-0.364 0.608,-0.339L0.608,-0.11C0.608,-0.086 0.609,-0.067 0.613,-0.053C0.616,-0.039 0.622,-0.021 0.633,-0L0.446,-0C0.439,-0.013 0.434,-0.024 0.432,-0.031C0.429,-0.038 0.427,-0.049 0.425,-0.063C0.399,-0.038 0.373,-0.021 0.347,-0.01C0.312,0.005 0.271,0.012 0.225,0.012C0.163,0.012 0.116,-0.003 0.084,-0.031C0.052,-0.06 0.036,-0.095 0.036,-0.137C0.036,-0.177 0.047,-0.209 0.07,-0.234C0.093,-0.26 0.136,-0.279 0.198,-0.291C0.273,-0.306 0.321,-0.316 0.343,-0.323C0.365,-0.329 0.389,-0.336 0.414,-0.346C0.414,-0.371 0.409,-0.388 0.398,-0.397C0.388,-0.407 0.371,-0.412 0.345,-0.412C0.313,-0.412 0.288,-0.407 0.272,-0.396C0.259,-0.388 0.249,-0.373 0.241,-0.351ZM0.414,-0.246C0.386,-0.236 0.358,-0.228 0.328,-0.22C0.288,-0.209 0.262,-0.199 0.251,-0.188C0.24,-0.178 0.235,-0.166 0.235,-0.152C0.235,-0.136 0.24,-0.123 0.251,-0.114C0.262,-0.104 0.278,-0.099 0.299,-0.099C0.321,-0.099 0.342,-0.104 0.361,-0.115C0.38,-0.125 0.394,-0.139 0.402,-0.154C0.41,-0.17 0.414,-0.19 0.414,-0.214L0.414,-0.246Z" style="fill:white;fill-rule:nonzero;"/>
            </g>
            <g transform="matrix(162.5,0,0,162.5,1580.32,423.079)">
                <path d="M0.3,-0.716L0.3,-0.519L0.409,-0.519L0.409,-0.374L0.3,-0.374L0.3,-0.189C0.3,-0.167 0.302,-0.153 0.306,-0.146C0.313,-0.134 0.324,-0.129 0.34,-0.129C0.355,-0.129 0.375,-0.133 0.402,-0.142L0.417,-0.004C0.367,0.006 0.321,0.012 0.279,0.012C0.229,0.012 0.193,0.005 0.169,-0.007C0.146,-0.02 0.129,-0.039 0.117,-0.065C0.106,-0.091 0.101,-0.133 0.101,-0.191L0.101,-0.374L0.027,-0.374L0.027,-0.519L0.101,-0.519L0.101,-0.614L0.3,-0.716Z" style="fill:white;fill-rule:nonzero;"/>
            </g>
            <g transform="matrix(162.5,0,0,162.5,1652.44,423.079)">
                <path d="M0.06,-0.716L0.259,-0.716L0.259,-0.452C0.286,-0.48 0.313,-0.5 0.339,-0.512C0.366,-0.524 0.398,-0.53 0.434,-0.53C0.488,-0.53 0.531,-0.514 0.562,-0.481C0.593,-0.448 0.608,-0.398 0.608,-0.33L0.608,-0L0.409,-0L0.409,-0.285C0.409,-0.318 0.403,-0.341 0.391,-0.354C0.379,-0.368 0.362,-0.375 0.34,-0.375C0.316,-0.375 0.296,-0.365 0.281,-0.347C0.266,-0.329 0.259,-0.296 0.259,-0.249L0.259,-0L0.06,-0L0.06,-0.716Z" style="fill:white;fill-rule:nonzero;"/>
            </g>
            <g transform="matrix(162.5,0,0,162.5,1760.83,423.079)">
                <path d="M0.636,-0.21L0.237,-0.21C0.241,-0.178 0.25,-0.154 0.263,-0.139C0.282,-0.116 0.307,-0.105 0.338,-0.105C0.358,-0.105 0.376,-0.11 0.394,-0.12C0.405,-0.126 0.416,-0.137 0.429,-0.152L0.625,-0.134C0.595,-0.082 0.558,-0.045 0.516,-0.022C0.474,0 0.413,0.012 0.334,0.012C0.265,0.012 0.211,0.002 0.172,-0.017C0.132,-0.037 0.1,-0.067 0.074,-0.11C0.048,-0.152 0.035,-0.201 0.035,-0.258C0.035,-0.339 0.061,-0.405 0.113,-0.455C0.165,-0.505 0.237,-0.53 0.328,-0.53C0.402,-0.53 0.461,-0.519 0.504,-0.497C0.547,-0.474 0.58,-0.442 0.602,-0.399C0.625,-0.356 0.636,-0.301 0.636,-0.232L0.636,-0.21ZM0.434,-0.305C0.43,-0.344 0.419,-0.371 0.403,-0.388C0.386,-0.404 0.364,-0.413 0.336,-0.413C0.305,-0.413 0.28,-0.4 0.261,-0.375C0.249,-0.359 0.241,-0.336 0.238,-0.305L0.434,-0.305Z" style="fill:white;fill-rule:nonzero;"/>
            </g>
            <g transform="matrix(162.5,0,0,162.5,1869.21,423.079)">
                <path d="M0.281,-0.519L0.376,-0.519L0.376,-0.373L0.281,-0.373L0.281,-0L0.082,-0L0.082,-0.373L0.008,-0.373L0.008,-0.519L0.082,-0.519L0.082,-0.542C0.082,-0.563 0.084,-0.586 0.089,-0.612C0.093,-0.637 0.102,-0.658 0.115,-0.674C0.127,-0.69 0.145,-0.703 0.167,-0.713C0.19,-0.723 0.223,-0.728 0.267,-0.728C0.301,-0.728 0.352,-0.724 0.418,-0.716L0.396,-0.596C0.373,-0.6 0.354,-0.602 0.339,-0.602C0.321,-0.602 0.308,-0.599 0.3,-0.593C0.292,-0.587 0.287,-0.577 0.284,-0.564C0.282,-0.557 0.281,-0.542 0.281,-0.519Z" style="fill:white;fill-rule:nonzero;"/>
            </g>
            <g transform="matrix(162.5,0,0,162.5,1930.86,423.079)">
                <path d="M0.241,-0.351L0.051,-0.371C0.058,-0.404 0.069,-0.43 0.082,-0.449C0.096,-0.468 0.115,-0.485 0.141,-0.499C0.159,-0.509 0.184,-0.516 0.216,-0.522C0.248,-0.528 0.282,-0.53 0.319,-0.53C0.379,-0.53 0.427,-0.527 0.463,-0.52C0.499,-0.514 0.529,-0.5 0.553,-0.479C0.57,-0.464 0.583,-0.443 0.593,-0.416C0.603,-0.389 0.608,-0.364 0.608,-0.339L0.608,-0.11C0.608,-0.086 0.609,-0.067 0.613,-0.053C0.616,-0.039 0.622,-0.021 0.633,-0L0.446,-0C0.439,-0.013 0.434,-0.024 0.432,-0.031C0.429,-0.038 0.427,-0.049 0.425,-0.063C0.399,-0.038 0.373,-0.021 0.347,-0.01C0.312,0.005 0.271,0.012 0.225,0.012C0.163,0.012 0.116,-0.003 0.084,-0.031C0.052,-0.06 0.036,-0.095 0.036,-0.137C0.036,-0.177 0.047,-0.209 0.07,-0.234C0.093,-0.26 0.136,-0.279 0.198,-0.291C0.273,-0.306 0.321,-0.316 0.343,-0.323C0.365,-0.329 0.389,-0.336 0.414,-0.346C0.414,-0.371 0.409,-0.388 0.398,-0.397C0.388,-0.407 0.371,-0.412 0.345,-0.412C0.313,-0.412 0.288,-0.407 0.272,-0.396C0.259,-0.388 0.249,-0.373 0.241,-0.351ZM0.414,-0.246C0.386,-0.236 0.358,-0.228 0.328,-0.22C0.288,-0.209 0.262,-0.199 0.251,-0.188C0.24,-0.178 0.235,-0.166 0.235,-0.152C0.235,-0.136 0.24,-0.123 0.251,-0.114C0.262,-0.104 0.278,-0.099 0.299,-0.099C0.321,-0.099 0.342,-0.104 0.361,-0.115C0.38,-0.125 0.394,-0.139 0.402,-0.154C0.41,-0.17 0.414,-0.19 0.414,-0.214L0.414,-0.246Z" style="fill:white;fill-rule:nonzero;"/>
            </g>
            <g transform="matrix(162.5,0,0,162.5,2039.25,423.079)">
                <path d="M0.447,-0.203L0.636,-0.181C0.625,-0.142 0.608,-0.108 0.584,-0.079C0.561,-0.05 0.53,-0.028 0.493,-0.012C0.456,0.004 0.41,0.012 0.353,0.012C0.298,0.012 0.252,0.007 0.215,-0.003C0.178,-0.013 0.147,-0.03 0.121,-0.053C0.094,-0.076 0.074,-0.103 0.059,-0.134C0.044,-0.165 0.036,-0.206 0.036,-0.257C0.036,-0.31 0.045,-0.355 0.063,-0.39C0.077,-0.416 0.095,-0.44 0.118,-0.46C0.141,-0.481 0.165,-0.496 0.189,-0.506C0.228,-0.522 0.278,-0.53 0.338,-0.53C0.423,-0.53 0.488,-0.515 0.532,-0.485C0.576,-0.455 0.608,-0.41 0.625,-0.352L0.438,-0.327C0.433,-0.349 0.422,-0.366 0.406,-0.377C0.391,-0.388 0.37,-0.394 0.344,-0.394C0.311,-0.394 0.285,-0.382 0.264,-0.359C0.244,-0.335 0.234,-0.299 0.234,-0.251C0.234,-0.209 0.244,-0.176 0.264,-0.154C0.284,-0.132 0.31,-0.121 0.341,-0.121C0.367,-0.121 0.389,-0.128 0.407,-0.141C0.425,-0.154 0.438,-0.175 0.447,-0.203Z" style="fill:white;fill-rule:nonzero;"/>
            </g>
            <g transform="matrix(162.5,0,0,162.5,2147.64,423.079)">
                <path d="M0.3,-0.716L0.3,-0.519L0.409,-0.519L0.409,-0.374L0.3,-0.374L0.3,-0.189C0.3,-0.167 0.302,-0.153 0.306,-0.146C0.313,-0.134 0.324,-0.129 0.34,-0.129C0.355,-0.129 0.375,-0.133 0.402,-0.142L0.417,-0.004C0.367,0.006 0.321,0.012 0.279,0.012C0.229,0.012 0.193,0.005 0.169,-0.007C0.146,-0.02 0.129,-0.039 0.117,-0.065C0.106,-0.091 0.101,-0.133 0.101,-0.191L0.101,-0.374L0.027,-0.374L0.027,-0.519L0.101,-0.519L0.101,-0.614L0.3,-0.716Z" style="fill:white;fill-rule:nonzero;"/>
            </g>
            <g transform="matrix(162.5,0,0,162.5,2219.76,423.079)">
                <path d="M0.025,-0.144L0.222,-0.162C0.23,-0.139 0.242,-0.122 0.256,-0.112C0.271,-0.102 0.291,-0.097 0.315,-0.097C0.342,-0.097 0.362,-0.102 0.377,-0.114C0.388,-0.122 0.394,-0.133 0.394,-0.146C0.394,-0.16 0.387,-0.171 0.372,-0.179C0.361,-0.184 0.332,-0.191 0.286,-0.199C0.217,-0.211 0.169,-0.222 0.142,-0.233C0.115,-0.243 0.093,-0.26 0.074,-0.285C0.056,-0.309 0.047,-0.337 0.047,-0.368C0.047,-0.402 0.057,-0.432 0.077,-0.457C0.097,-0.481 0.124,-0.5 0.159,-0.512C0.194,-0.524 0.24,-0.53 0.299,-0.53C0.361,-0.53 0.406,-0.526 0.436,-0.516C0.465,-0.507 0.49,-0.492 0.51,-0.472C0.529,-0.452 0.546,-0.425 0.559,-0.392L0.37,-0.373C0.365,-0.39 0.357,-0.402 0.346,-0.41C0.33,-0.42 0.311,-0.425 0.289,-0.425C0.267,-0.425 0.25,-0.421 0.24,-0.413C0.23,-0.405 0.225,-0.396 0.225,-0.384C0.225,-0.372 0.231,-0.362 0.244,-0.355C0.257,-0.349 0.285,-0.343 0.329,-0.338C0.395,-0.33 0.444,-0.32 0.477,-0.307C0.509,-0.293 0.533,-0.274 0.551,-0.25C0.568,-0.225 0.576,-0.198 0.576,-0.168C0.576,-0.138 0.567,-0.109 0.549,-0.081C0.531,-0.052 0.503,-0.03 0.464,-0.013C0.425,0.004 0.372,0.012 0.305,0.012C0.21,0.012 0.142,-0.001 0.102,-0.028C0.062,-0.055 0.036,-0.094 0.025,-0.144Z" style="fill:white;fill-rule:nonzero;"/>
            </g>
            <g transform="matrix(162.5,0,0,162.5,2373.22,423.079)">
                <path d="M0.241,-0.351L0.051,-0.371C0.058,-0.404 0.069,-0.43 0.082,-0.449C0.096,-0.468 0.115,-0.485 0.141,-0.499C0.159,-0.509 0.184,-0.516 0.216,-0.522C0.248,-0.528 0.282,-0.53 0.319,-0.53C0.379,-0.53 0.427,-0.527 0.463,-0.52C0.499,-0.514 0.529,-0.5 0.553,-0.479C0.57,-0.464 0.583,-0.443 0.593,-0.416C0.603,-0.389 0.608,-0.364 0.608,-0.339L0.608,-0.11C0.608,-0.086 0.609,-0.067 0.613,-0.053C0.616,-0.039 0.622,-0.021 0.633,-0L0.446,-0C0.439,-0.013 0.434,-0.024 0.432,-0.031C0.429,-0.038 0.427,-0.049 0.425,-0.063C0.399,-0.038 0.373,-0.021 0.347,-0.01C0.312,0.005 0.271,0.012 0.225,0.012C0.163,0.012 0.116,-0.003 0.084,-0.031C0.052,-0.06 0.036,-0.095 0.036,-0.137C0.036,-0.177 0.047,-0.209 0.07,-0.234C0.093,-0.26 0.136,-0.279 0.198,-0.291C0.273,-0.306 0.321,-0.316 0.343,-0.323C0.365,-0.329 0.389,-0.336 0.414,-0.346C0.414,-0.371 0.409,-0.388 0.398,-0.397C0.388,-0.407 0.371,-0.412 0.345,-0.412C0.313,-0.412 0.288,-0.407 0.272,-0.396C0.259,-0.388 0.249,-0.373 0.241,-0.351ZM0.414,-0.246C0.386,-0.236 0.358,-0.228 0.328,-0.22C0.288,-0.209 0.262,-0.199 0.251,-0.188C0.24,-0.178 0.235,-0.166 0.235,-0.152C0.235,-0.136 0.24,-0.123 0.251,-0.114C0.262,-0.104 0.278,-0.099 0.299,-0.099C0.321,-0.099 0.342,-0.104 0.361,-0.115C0.38,-0.125 0.394,-0.139 0.402,-0.154C0.41,-0.17 0.414,-0.19 0.414,-0.214L0.414,-0.246Z" style="fill:white;fill-rule:nonzero;"/>
            </g>
            <g transform="matrix(162.5,0,0,162.5,2481.6,423.079)">
                <path d="M0.606,-0L0.421,-0L0.421,-0.084C0.393,-0.049 0.365,-0.025 0.337,-0.01C0.309,0.004 0.274,0.012 0.233,0.012C0.179,0.012 0.136,-0.005 0.105,-0.037C0.074,-0.07 0.058,-0.12 0.058,-0.188L0.058,-0.519L0.258,-0.519L0.258,-0.233C0.258,-0.201 0.264,-0.178 0.276,-0.164C0.288,-0.15 0.305,-0.144 0.327,-0.144C0.35,-0.144 0.37,-0.153 0.385,-0.171C0.4,-0.189 0.408,-0.222 0.408,-0.269L0.408,-0.519L0.606,-0.519L0.606,-0Z" style="fill:white;fill-rule:nonzero;"/>
            </g>
            <g transform="matrix(162.5,0,0,162.5,2589.99,423.079)">
                <path d="M0.025,-0.144L0.222,-0.162C0.23,-0.139 0.242,-0.122 0.256,-0.112C0.271,-0.102 0.291,-0.097 0.315,-0.097C0.342,-0.097 0.362,-0.102 0.377,-0.114C0.388,-0.122 0.394,-0.133 0.394,-0.146C0.394,-0.16 0.387,-0.171 0.372,-0.179C0.361,-0.184 0.332,-0.191 0.286,-0.199C0.217,-0.211 0.169,-0.222 0.142,-0.233C0.115,-0.243 0.093,-0.26 0.074,-0.285C0.056,-0.309 0.047,-0.337 0.047,-0.368C0.047,-0.402 0.057,-0.432 0.077,-0.457C0.097,-0.481 0.124,-0.5 0.159,-0.512C0.194,-0.524 0.24,-0.53 0.299,-0.53C0.361,-0.53 0.406,-0.526 0.436,-0.516C0.465,-0.507 0.49,-0.492 0.51,-0.472C0.529,-0.452 0.546,-0.425 0.559,-0.392L0.37,-0.373C0.365,-0.39 0.357,-0.402 0.346,-0.41C0.33,-0.42 0.311,-0.425 0.289,-0.425C0.267,-0.425 0.25,-0.421 0.24,-0.413C0.23,-0.405 0.225,-0.396 0.225,-0.384C0.225,-0.372 0.231,-0.362 0.244,-0.355C0.257,-0.349 0.285,-0.343 0.329,-0.338C0.395,-0.33 0.444,-0.32 0.477,-0.307C0.509,-0.293 0.533,-0.274 0.551,-0.25C0.568,-0.225 0.576,-0.198 0.576,-0.168C0.576,-0.138 0.567,-0.109 0.549,-0.081C0.531,-0.052 0.503,-0.03 0.464,-0.013C0.425,0.004 0.372,0.012 0.305,0.012C0.21,0.012 0.142,-0.001 0.102,-0.028C0.062,-0.055 0.036,-0.094 0.025,-0.144Z" style="fill:white;fill-rule:nonzero;"/>
            </g>
            <g transform="matrix(162.5,0,0,162.5,2743.44,423.079)">
                <path d="M0.606,-0.716L0.606,-0L0.42,-0L0.42,-0.077C0.394,-0.044 0.37,-0.022 0.349,-0.011C0.32,0.004 0.288,0.012 0.253,0.012C0.182,0.012 0.128,-0.015 0.091,-0.069C0.054,-0.123 0.035,-0.188 0.035,-0.265C0.035,-0.351 0.056,-0.416 0.097,-0.462C0.138,-0.507 0.19,-0.53 0.254,-0.53C0.285,-0.53 0.313,-0.525 0.338,-0.515C0.363,-0.504 0.386,-0.489 0.405,-0.468L0.405,-0.716L0.606,-0.716ZM0.407,-0.261C0.407,-0.301 0.398,-0.332 0.381,-0.352C0.364,-0.372 0.342,-0.382 0.315,-0.382C0.292,-0.382 0.273,-0.372 0.257,-0.353C0.242,-0.334 0.234,-0.302 0.234,-0.256C0.234,-0.214 0.242,-0.183 0.258,-0.163C0.274,-0.144 0.294,-0.134 0.318,-0.134C0.343,-0.134 0.364,-0.144 0.381,-0.164C0.398,-0.183 0.407,-0.216 0.407,-0.261Z" style="fill:white;fill-rule:nonzero;"/>
            </g>
            <g transform="matrix(162.5,0,0,162.5,2851.83,423.079)">
                <path d="M0.636,-0.21L0.237,-0.21C0.241,-0.178 0.25,-0.154 0.263,-0.139C0.282,-0.116 0.307,-0.105 0.338,-0.105C0.358,-0.105 0.376,-0.11 0.394,-0.12C0.405,-0.126 0.416,-0.137 0.429,-0.152L0.625,-0.134C0.595,-0.082 0.558,-0.045 0.516,-0.022C0.474,0 0.413,0.012 0.334,0.012C0.265,0.012 0.211,0.002 0.172,-0.017C0.132,-0.037 0.1,-0.067 0.074,-0.11C0.048,-0.152 0.035,-0.201 0.035,-0.258C0.035,-0.339 0.061,-0.405 0.113,-0.455C0.165,-0.505 0.237,-0.53 0.328,-0.53C0.402,-0.53 0.461,-0.519 0.504,-0.497C0.547,-0.474 0.58,-0.442 0.602,-0.399C0.625,-0.356 0.636,-0.301 0.636,-0.232L0.636,-0.21ZM0.434,-0.305C0.43,-0.344 0.419,-0.371 0.403,-0.388C0.386,-0.404 0.364,-0.413 0.336,-0.413C0.305,-0.413 0.28,-0.4 0.261,-0.375C0.249,-0.359 0.241,-0.336 0.238,-0.305L0.434,-0.305Z" style="fill:white;fill-rule:nonzero;"/>
            </g>
            <g transform="matrix(162.5,0,0,162.5,2960.22,423.079)">
                <path d="M0.062,-0.519L0.247,-0.519L0.247,-0.443C0.274,-0.474 0.301,-0.497 0.328,-0.51C0.355,-0.524 0.388,-0.53 0.426,-0.53C0.468,-0.53 0.5,-0.523 0.524,-0.508C0.549,-0.494 0.568,-0.472 0.583,-0.443C0.615,-0.477 0.643,-0.5 0.669,-0.512C0.695,-0.524 0.726,-0.53 0.764,-0.53C0.82,-0.53 0.863,-0.514 0.895,-0.481C0.926,-0.448 0.941,-0.396 0.941,-0.326L0.941,-0L0.742,-0L0.742,-0.295C0.742,-0.319 0.738,-0.336 0.729,-0.348C0.715,-0.366 0.699,-0.375 0.679,-0.375C0.655,-0.375 0.636,-0.366 0.622,-0.349C0.608,-0.332 0.601,-0.305 0.601,-0.268L0.601,-0L0.401,-0L0.401,-0.286C0.401,-0.308 0.4,-0.324 0.397,-0.332C0.393,-0.345 0.386,-0.356 0.375,-0.364C0.365,-0.372 0.353,-0.375 0.339,-0.375C0.316,-0.375 0.297,-0.367 0.283,-0.35C0.268,-0.332 0.261,-0.304 0.261,-0.265L0.261,-0L0.062,-0L0.062,-0.519Z" style="fill:white;fill-rule:nonzero;"/>
            </g>
            <g transform="matrix(162.5,0,0,162.5,3176.91,423.079)">
                <path d="M0.124,-0.295L0.149,-0.418L0.029,-0.418L0.029,-0.553L0.176,-0.553L0.21,-0.728L0.35,-0.728L0.314,-0.553L0.421,-0.553L0.456,-0.728L0.595,-0.728L0.561,-0.553L0.627,-0.553L0.627,-0.418L0.533,-0.418L0.508,-0.295L0.627,-0.295L0.627,-0.16L0.481,-0.16L0.447,0.012L0.308,0.012L0.342,-0.16L0.235,-0.16L0.2,0.012L0.062,0.012L0.098,-0.16L0.029,-0.16L0.029,-0.295L0.124,-0.295ZM0.262,-0.295L0.369,-0.295L0.395,-0.418L0.288,-0.418L0.262,-0.295Z" style="fill:white;fill-rule:nonzero;"/>
            </g>
            <g transform="matrix(162.5,0,0,162.5,3284.19,423.079)">
                <path d="M0.492,-0.728L0.492,-0L0.291,-0L0.291,-0.477C0.258,-0.452 0.226,-0.432 0.196,-0.417C0.166,-0.402 0.127,-0.387 0.082,-0.373L0.082,-0.536C0.149,-0.558 0.202,-0.584 0.239,-0.615C0.277,-0.645 0.306,-0.683 0.327,-0.728L0.492,-0.728Z" style="fill:white;fill-rule:nonzero;"/>
            </g>
            <g transform="matrix(162.5,0,0,162.5,3446.76,423.079)">
                <path d="M0.072,-0.716L0.44,-0.716C0.52,-0.716 0.58,-0.697 0.62,-0.659C0.66,-0.621 0.68,-0.566 0.68,-0.496C0.68,-0.424 0.658,-0.367 0.615,-0.327C0.571,-0.286 0.505,-0.266 0.416,-0.266L0.294,-0.266L0.294,-0L0.072,-0L0.072,-0.716ZM0.294,-0.411L0.349,-0.411C0.391,-0.411 0.421,-0.418 0.438,-0.433C0.456,-0.448 0.464,-0.467 0.464,-0.49C0.464,-0.512 0.457,-0.531 0.442,-0.547C0.427,-0.563 0.399,-0.57 0.357,-0.57L0.294,-0.57L0.294,-0.411Z" style="fill:white;fill-rule:nonzero;"/>
            </g>
            <g transform="matrix(162.5,0,0,162.5,3559.91,423.079)">
                <path d="M0.036,-0.258C0.036,-0.337 0.062,-0.402 0.116,-0.453C0.169,-0.505 0.241,-0.53 0.332,-0.53C0.436,-0.53 0.514,-0.5 0.567,-0.44C0.61,-0.391 0.631,-0.332 0.631,-0.261C0.631,-0.181 0.605,-0.116 0.552,-0.065C0.499,-0.014 0.426,0.012 0.333,0.012C0.249,0.012 0.182,-0.009 0.13,-0.052C0.067,-0.104 0.036,-0.173 0.036,-0.258ZM0.235,-0.258C0.235,-0.212 0.244,-0.178 0.263,-0.156C0.282,-0.134 0.305,-0.123 0.333,-0.123C0.362,-0.123 0.386,-0.133 0.404,-0.155C0.422,-0.177 0.432,-0.212 0.432,-0.26C0.432,-0.305 0.422,-0.339 0.404,-0.361C0.385,-0.383 0.362,-0.394 0.335,-0.394C0.306,-0.394 0.282,-0.382 0.263,-0.36C0.244,-0.338 0.235,-0.304 0.235,-0.258Z" style="fill:white;fill-rule:nonzero;"/>
            </g>
            <g transform="matrix(162.5,0,0,162.5,3668.3,423.079)">
                <path d="M0.606,-0.716L0.606,-0L0.42,-0L0.42,-0.077C0.394,-0.044 0.37,-0.022 0.349,-0.011C0.32,0.004 0.288,0.012 0.253,0.012C0.182,0.012 0.128,-0.015 0.091,-0.069C0.054,-0.123 0.035,-0.188 0.035,-0.265C0.035,-0.351 0.056,-0.416 0.097,-0.462C0.138,-0.507 0.19,-0.53 0.254,-0.53C0.285,-0.53 0.313,-0.525 0.338,-0.515C0.363,-0.504 0.386,-0.489 0.405,-0.468L0.405,-0.716L0.606,-0.716ZM0.407,-0.261C0.407,-0.301 0.398,-0.332 0.381,-0.352C0.364,-0.372 0.342,-0.382 0.315,-0.382C0.292,-0.382 0.273,-0.372 0.257,-0.353C0.242,-0.334 0.234,-0.302 0.234,-0.256C0.234,-0.214 0.242,-0.183 0.258,-0.163C0.274,-0.144 0.294,-0.134 0.318,-0.134C0.343,-0.134 0.364,-0.144 0.381,-0.164C0.398,-0.183 0.407,-0.216 0.407,-0.261Z" style="fill:white;fill-rule:nonzero;"/>
            </g>
            <g transform="matrix(162.5,0,0,162.5,3776.68,423.079)">
                <path d="M0.447,-0.203L0.636,-0.181C0.625,-0.142 0.608,-0.108 0.584,-0.079C0.561,-0.05 0.53,-0.028 0.493,-0.012C0.456,0.004 0.41,0.012 0.353,0.012C0.298,0.012 0.252,0.007 0.215,-0.003C0.178,-0.013 0.147,-0.03 0.121,-0.053C0.094,-0.076 0.074,-0.103 0.059,-0.134C0.044,-0.165 0.036,-0.206 0.036,-0.257C0.036,-0.31 0.045,-0.355 0.063,-0.39C0.077,-0.416 0.095,-0.44 0.118,-0.46C0.141,-0.481 0.165,-0.496 0.189,-0.506C0.228,-0.522 0.278,-0.53 0.338,-0.53C0.423,-0.53 0.488,-0.515 0.532,-0.485C0.576,-0.455 0.608,-0.41 0.625,-0.352L0.438,-0.327C0.433,-0.349 0.422,-0.366 0.406,-0.377C0.391,-0.388 0.37,-0.394 0.344,-0.394C0.311,-0.394 0.285,-0.382 0.264,-0.359C0.244,-0.335 0.234,-0.299 0.234,-0.251C0.234,-0.209 0.244,-0.176 0.264,-0.154C0.284,-0.132 0.31,-0.121 0.341,-0.121C0.367,-0.121 0.389,-0.128 0.407,-0.141C0.425,-0.154 0.438,-0.175 0.447,-0.203Z" style="fill:white;fill-rule:nonzero;"/>
            </g>
            <g transform="matrix(162.5,0,0,162.5,3885.07,423.079)">
                <path d="M0.241,-0.351L0.051,-0.371C0.058,-0.404 0.069,-0.43 0.082,-0.449C0.096,-0.468 0.115,-0.485 0.141,-0.499C0.159,-0.509 0.184,-0.516 0.216,-0.522C0.248,-0.528 0.282,-0.53 0.319,-0.53C0.379,-0.53 0.427,-0.527 0.463,-0.52C0.499,-0.514 0.529,-0.5 0.553,-0.479C0.57,-0.464 0.583,-0.443 0.593,-0.416C0.603,-0.389 0.608,-0.364 0.608,-0.339L0.608,-0.11C0.608,-0.086 0.609,-0.067 0.613,-0.053C0.616,-0.039 0.622,-0.021 0.633,-0L0.446,-0C0.439,-0.013 0.434,-0.024 0.432,-0.031C0.429,-0.038 0.427,-0.049 0.425,-0.063C0.399,-0.038 0.373,-0.021 0.347,-0.01C0.312,0.005 0.271,0.012 0.225,0.012C0.163,0.012 0.116,-0.003 0.084,-0.031C0.052,-0.06 0.036,-0.095 0.036,-0.137C0.036,-0.177 0.047,-0.209 0.07,-0.234C0.093,-0.26 0.136,-0.279 0.198,-0.291C0.273,-0.306 0.321,-0.316 0.343,-0.323C0.365,-0.329 0.389,-0.336 0.414,-0.346C0.414,-0.371 0.409,-0.388 0.398,-0.397C0.388,-0.407 0.371,-0.412 0.345,-0.412C0.313,-0.412 0.288,-0.407 0.272,-0.396C0.259,-0.388 0.249,-0.373 0.241,-0.351ZM0.414,-0.246C0.386,-0.236 0.358,-0.228 0.328,-0.22C0.288,-0.209 0.262,-0.199 0.251,-0.188C0.24,-0.178 0.235,-0.166 0.235,-0.152C0.235,-0.136 0.24,-0.123 0.251,-0.114C0.262,-0.104 0.278,-0.099 0.299,-0.099C0.321,-0.099 0.342,-0.104 0.361,-0.115C0.38,-0.125 0.394,-0.139 0.402,-0.154C0.41,-0.17 0.414,-0.19 0.414,-0.214L0.414,-0.246Z" style="fill:white;fill-rule:nonzero;"/>
            </g>
            <g transform="matrix(162.5,0,0,162.5,3993.46,423.079)">
                <path d="M0.025,-0.144L0.222,-0.162C0.23,-0.139 0.242,-0.122 0.256,-0.112C0.271,-0.102 0.291,-0.097 0.315,-0.097C0.342,-0.097 0.362,-0.102 0.377,-0.114C0.388,-0.122 0.394,-0.133 0.394,-0.146C0.394,-0.16 0.387,-0.171 0.372,-0.179C0.361,-0.184 0.332,-0.191 0.286,-0.199C0.217,-0.211 0.169,-0.222 0.142,-0.233C0.115,-0.243 0.093,-0.26 0.074,-0.285C0.056,-0.309 0.047,-0.337 0.047,-0.368C0.047,-0.402 0.057,-0.432 0.077,-0.457C0.097,-0.481 0.124,-0.5 0.159,-0.512C0.194,-0.524 0.24,-0.53 0.299,-0.53C0.361,-0.53 0.406,-0.526 0.436,-0.516C0.465,-0.507 0.49,-0.492 0.51,-0.472C0.529,-0.452 0.546,-0.425 0.559,-0.392L0.37,-0.373C0.365,-0.39 0.357,-0.402 0.346,-0.41C0.33,-0.42 0.311,-0.425 0.289,-0.425C0.267,-0.425 0.25,-0.421 0.24,-0.413C0.23,-0.405 0.225,-0.396 0.225,-0.384C0.225,-0.372 0.231,-0.362 0.244,-0.355C0.257,-0.349 0.285,-0.343 0.329,-0.338C0.395,-0.33 0.444,-0.32 0.477,-0.307C0.509,-0.293 0.533,-0.274 0.551,-0.25C0.568,-0.225 0.576,-0.198 0.576,-0.168C0.576,-0.138 0.567,-0.109 0.549,-0.081C0.531,-0.052 0.503,-0.03 0.464,-0.013C0.425,0.004 0.372,0.012 0.305,0.012C0.21,0.012 0.142,-0.001 0.102,-0.028C0.062,-0.055 0.036,-0.094 0.025,-0.144Z" style="fill:white;fill-rule:nonzero;"/>
            </g>
            <g transform="matrix(162.5,0,0,162.5,4092.72,423.079)">
                <path d="M0.3,-0.716L0.3,-0.519L0.409,-0.519L0.409,-0.374L0.3,-0.374L0.3,-0.189C0.3,-0.167 0.302,-0.153 0.306,-0.146C0.313,-0.134 0.324,-0.129 0.34,-0.129C0.355,-0.129 0.375,-0.133 0.402,-0.142L0.417,-0.004C0.367,0.006 0.321,0.012 0.279,0.012C0.229,0.012 0.193,0.005 0.169,-0.007C0.146,-0.02 0.129,-0.039 0.117,-0.065C0.106,-0.091 0.101,-0.133 0.101,-0.191L0.101,-0.374L0.027,-0.374L0.027,-0.519L0.101,-0.519L0.101,-0.614L0.3,-0.716Z" style="fill:white;fill-rule:nonzero;"/>
            </g>
            <g transform="matrix(162.5,0,0,162.5,4164.84,423.079)">
                <path d="M0.061,-0.716L0.273,-0.716L0.273,-0.553L0.232,-0.225L0.101,-0.225L0.061,-0.553L0.061,-0.716ZM0.068,-0.175L0.266,-0.175L0.266,-0L0.068,-0L0.068,-0.175Z" style="fill:white;fill-rule:nonzero;"/>
            </g>
        </g>
    </g>
</svg>
